{"glyphs":{"0":{"ha":833,"x_min":0,"x_max":0,"o":"m 417 990 b 786 490 647 990 786 804 b 417 -10 786 176 650 -10 b 47 490 183 -10 47 176 b 417 990 47 804 186 990 m 410 868 b 183 490 282 868 183 754 b 199 328 183 428 189 375 l 597 758 b 424 868 556 833 494 868 m 424 113 b 650 490 551 113 650 226 b 638 633 650 544 646 592 l 244 208 b 410 113 286 143 344 113 "},"1":{"ha":833,"x_min":0,"x_max":0,"o":"m 525 124 l 796 124 l 796 0 l 111 0 l 111 124 l 394 124 l 394 776 l 169 561 l 169 729 l 419 972 l 525 972 "},"2":{"ha":833,"x_min":0,"x_max":0,"o":"m 265 124 l 749 124 l 749 0 l 94 0 l 94 131 l 457 486 b 599 711 569 596 599 639 b 433 864 599 796 529 864 l 419 864 b 240 679 314 864 243 793 l 104 679 b 425 986 104 865 238 986 b 735 715 610 986 735 872 b 572 422 735 593 675 522 "},"3":{"ha":833,"x_min":0,"x_max":0,"o":"m 413 -14 b 83 257 218 -14 93 86 l 219 257 b 406 108 233 165 300 108 l 419 108 b 610 269 535 108 610 175 b 417 424 610 368 528 424 l 353 424 l 353 547 l 421 547 b 604 706 532 547 604 614 b 424 864 604 801 526 864 l 410 864 b 238 713 317 864 246 803 l 101 713 b 417 986 106 871 238 986 b 740 718 607 986 740 878 b 575 488 740 608 671 521 b 747 261 671 460 747 378 b 413 -14 747 81 596 -14 "},"4":{"ha":833,"x_min":0,"x_max":0,"o":"m 649 339 l 803 339 l 803 218 l 649 218 l 649 0 l 519 0 l 519 218 l 42 218 l 42 357 l 508 972 l 649 972 m 174 339 l 519 339 l 519 799 "},"5":{"ha":833,"x_min":0,"x_max":0,"o":"m 458 608 b 758 310 639 608 758 481 b 421 -14 758 119 619 -14 b 78 260 236 -14 94 89 l 214 260 b 417 108 231 163 313 108 l 428 108 b 622 303 542 108 622 188 b 436 486 622 415 544 486 l 425 486 b 240 396 363 486 286 457 l 113 396 l 231 972 l 749 972 l 749 849 l 336 849 l 271 539 b 458 608 314 582 386 608 "},"6":{"ha":833,"x_min":0,"x_max":0,"o":"m 454 639 b 768 322 632 639 768 511 b 432 -14 768 129 635 -14 b 69 458 201 -14 69 163 b 478 986 69 774 244 986 b 785 733 640 986 758 892 l 649 733 b 478 864 633 808 569 864 l 465 864 b 190 486 329 864 207 736 b 454 639 236 586 343 639 m 438 108 b 632 313 550 108 632 196 b 438 517 632 428 554 517 l 425 517 b 222 314 308 517 222 431 b 425 108 222 196 307 108 "},"7":{"ha":833,"x_min":0,"x_max":0,"o":"m 82 972 l 753 972 l 753 842 b 390 57 529 699 390 464 l 390 0 l 250 0 l 250 64 b 601 846 250 469 408 721 l 82 846 "},"8":{"ha":833,"x_min":0,"x_max":0,"o":"m 417 -14 b 114 247 229 -14 114 99 b 278 474 114 367 190 443 b 94 718 182 504 94 594 b 417 986 94 867 215 986 b 739 718 618 986 739 867 b 556 474 739 594 651 504 b 719 247 643 443 719 367 b 417 -14 719 99 604 -14 m 424 540 b 603 700 524 540 603 610 b 424 864 603 796 525 864 l 410 864 b 231 700 308 864 231 796 b 410 540 231 610 310 540 m 424 108 b 585 260 514 108 585 169 b 424 414 585 349 514 414 l 410 414 b 249 260 319 414 249 349 b 410 108 249 169 319 108 "},"9":{"ha":833,"x_min":0,"x_max":0,"o":"m 401 986 b 764 514 632 986 764 810 b 356 -14 764 199 589 -14 b 49 239 193 -14 75 81 l 185 239 b 356 108 200 164 264 108 l 368 108 b 643 486 504 108 626 236 b 379 333 597 386 490 333 b 65 650 201 333 65 461 b 401 986 65 843 199 986 m 408 456 b 611 658 525 456 611 542 b 408 864 611 776 526 864 l 396 864 b 201 660 283 864 201 776 b 396 456 201 544 279 456 "}," ":{"ha":833,"x_min":0,"x_max":0,"o":""},"A":{"ha":833,"x_min":0,"x_max":0,"o":"m 663 0 l 588 250 l 243 250 l 168 0 l 29 0 l 332 972 l 507 972 l 806 0 m 281 375 l 551 375 l 415 828 "},"Á":{"ha":833,"x_min":0,"x_max":0,"o":"m 608 1236 l 479 1050 l 376 1050 l 442 1236 m 663 0 l 588 250 l 243 250 l 168 0 l 29 0 l 332 972 l 507 972 l 806 0 m 281 375 l 551 375 l 415 828 "},"Ă":{"ha":833,"x_min":0,"x_max":0,"o":"m 419 1039 b 201 1236 293 1039 203 1113 l 314 1236 b 419 1142 319 1169 363 1142 b 525 1236 476 1142 519 1169 l 638 1236 b 419 1039 636 1113 546 1039 m 663 0 l 588 250 l 243 250 l 168 0 l 29 0 l 332 972 l 507 972 l 806 0 m 281 375 l 551 375 l 415 828 "},"Â":{"ha":833,"x_min":0,"x_max":0,"o":"m 419 1140 l 300 1050 l 178 1050 l 340 1236 l 499 1236 l 661 1050 l 539 1050 m 663 0 l 588 250 l 243 250 l 168 0 l 29 0 l 332 972 l 507 972 l 806 0 m 281 375 l 551 375 l 415 828 "},"Ä":{"ha":833,"x_min":0,"x_max":0,"o":"m 356 1211 l 356 1074 l 217 1074 l 217 1211 m 619 1211 l 619 1074 l 481 1074 l 481 1211 m 663 0 l 588 250 l 243 250 l 168 0 l 29 0 l 332 972 l 507 972 l 806 0 m 281 375 l 551 375 l 415 828 "},"Ȧ":{"ha":833,"x_min":0,"x_max":0,"o":"m 490 1225 l 490 1074 l 344 1074 l 344 1225 m 663 0 l 588 250 l 243 250 l 168 0 l 29 0 l 332 972 l 507 972 l 806 0 m 281 375 l 551 375 l 415 828 "},"À":{"ha":833,"x_min":0,"x_max":0,"o":"m 460 1050 l 357 1050 l 228 1236 l 394 1236 m 663 0 l 588 250 l 243 250 l 168 0 l 29 0 l 332 972 l 507 972 l 806 0 m 281 375 l 551 375 l 415 828 "},"Ā":{"ha":833,"x_min":0,"x_max":0,"o":"m 633 1185 l 633 1074 l 213 1074 l 213 1185 m 663 0 l 588 250 l 243 250 l 168 0 l 29 0 l 332 972 l 507 972 l 806 0 m 281 375 l 551 375 l 415 828 "},"Ą":{"ha":833,"x_min":0,"x_max":0,"o":"m 785 0 b 668 -132 719 -40 668 -83 b 742 -194 668 -178 706 -194 l 779 -194 l 779 -287 l 729 -287 b 574 -164 631 -287 574 -237 b 692 0 574 -94 625 -37 l 663 0 l 588 250 l 243 250 l 168 0 l 29 0 l 332 972 l 507 972 l 806 0 m 281 375 l 551 375 l 415 828 "},"Å":{"ha":833,"x_min":0,"x_max":0,"o":"m 422 1036 b 293 1165 356 1036 293 1092 b 422 1294 293 1235 356 1294 b 551 1165 493 1294 551 1235 b 422 1036 551 1092 493 1036 m 424 1217 b 372 1165 396 1217 372 1192 b 424 1114 372 1139 396 1114 b 472 1165 450 1114 472 1139 b 424 1217 472 1192 450 1217 m 663 0 l 588 250 l 243 250 l 168 0 l 29 0 l 332 972 l 507 972 l 806 0 m 281 375 l 551 375 l 415 828 "},"Ã":{"ha":833,"x_min":0,"x_max":0,"o":"m 325 1138 b 272 1064 292 1138 272 1110 l 174 1064 l 174 1097 b 311 1243 174 1178 233 1243 b 413 1208 354 1243 378 1229 l 429 1197 b 515 1154 461 1176 488 1154 b 564 1229 547 1154 564 1183 l 663 1229 l 663 1196 b 526 1050 663 1114 603 1050 b 418 1092 489 1050 457 1065 l 400 1101 b 325 1138 376 1117 354 1138 m 663 0 l 588 250 l 243 250 l 168 0 l 29 0 l 332 972 l 507 972 l 806 0 m 281 375 l 551 375 l 415 828 "},"Æ":{"ha":833,"x_min":0,"x_max":0,"o":"m 525 125 l 793 125 l 793 0 l 386 0 l 386 233 l 218 233 l 151 0 l 14 0 l 303 972 l 779 972 l 779 847 l 525 847 l 525 563 l 729 563 l 729 438 l 525 438 m 253 358 l 386 358 l 386 828 "},"Ǽ":{"ha":833,"x_min":0,"x_max":0,"o":"m 638 1236 l 508 1050 l 406 1050 l 471 1236 m 525 125 l 793 125 l 793 0 l 386 0 l 386 233 l 218 233 l 151 0 l 14 0 l 303 972 l 779 972 l 779 847 l 525 847 l 525 563 l 729 563 l 729 438 l 525 438 m 253 358 l 386 358 l 386 828 "},"B":{"ha":833,"x_min":0,"x_max":0,"o":"m 119 0 l 119 972 l 467 972 b 746 719 642 972 746 869 b 586 493 746 600 678 522 b 767 264 679 475 767 397 b 475 0 767 107 653 0 m 258 554 l 444 554 b 607 701 543 554 607 606 b 444 847 607 796 553 847 l 258 847 m 258 125 l 450 125 b 628 279 567 125 628 176 b 451 431 628 381 557 431 l 258 431 "},"C":{"ha":833,"x_min":0,"x_max":0,"o":"m 443 -14 b 63 486 193 -14 63 182 b 443 986 63 785 192 986 b 767 664 651 986 757 847 l 628 664 b 447 861 621 776 560 861 l 439 861 b 201 486 285 861 201 715 b 439 111 201 254 283 111 l 447 111 b 628 308 563 111 618 192 l 767 308 b 443 -14 757 124 657 -14 "},"Ć":{"ha":833,"x_min":0,"x_max":0,"o":"m 411 1050 l 476 1236 l 643 1236 l 514 1050 m 443 -14 b 63 486 193 -14 63 182 b 443 986 63 785 192 986 b 767 664 651 986 757 847 l 628 664 b 447 861 621 776 560 861 l 439 861 b 201 486 285 861 201 715 b 439 111 201 254 283 111 l 447 111 b 628 308 563 111 618 192 l 767 308 b 443 -14 757 124 657 -14 "},"Č":{"ha":833,"x_min":0,"x_max":0,"o":"m 532 1050 l 374 1050 l 211 1236 l 333 1236 l 453 1147 l 572 1236 l 694 1236 m 447 111 b 628 308 563 111 618 192 l 767 308 b 443 -14 757 124 657 -14 b 63 486 193 -14 63 182 b 443 986 63 785 192 986 b 767 664 651 986 757 847 l 628 664 b 447 861 621 776 560 861 l 439 861 b 201 486 285 861 201 715 b 439 111 201 254 283 111 "},"Ç":{"ha":833,"x_min":0,"x_max":0,"o":"m 447 111 b 628 308 563 111 618 192 l 767 308 b 483 -12 757 136 669 4 l 483 -62 b 606 -183 547 -61 606 -106 b 453 -325 606 -267 547 -325 l 356 -325 l 356 -236 l 457 -236 b 519 -183 493 -236 519 -219 b 460 -132 519 -151 497 -132 l 404 -132 l 404 -12 b 63 486 179 7 63 199 b 443 986 63 785 192 986 b 767 664 651 986 757 847 l 628 664 b 447 861 621 776 560 861 l 439 861 b 201 486 285 861 201 715 b 439 111 201 254 283 111 "},"Ĉ":{"ha":833,"x_min":0,"x_max":0,"o":"m 454 1140 l 335 1050 l 213 1050 l 375 1236 l 533 1236 l 696 1050 l 574 1050 m 447 111 b 628 308 563 111 618 192 l 767 308 b 443 -14 757 124 657 -14 b 63 486 193 -14 63 182 b 443 986 63 785 192 986 b 767 664 651 986 757 847 l 628 664 b 447 861 621 776 560 861 l 439 861 b 201 486 285 861 201 715 b 439 111 201 254 283 111 "},"Ċ":{"ha":833,"x_min":0,"x_max":0,"o":"m 379 1074 l 379 1225 l 525 1225 l 525 1074 m 443 -14 b 63 486 193 -14 63 182 b 443 986 63 785 192 986 b 767 664 651 986 757 847 l 628 664 b 447 861 621 776 560 861 l 439 861 b 201 486 285 861 201 715 b 439 111 201 254 283 111 l 447 111 b 628 308 563 111 618 192 l 767 308 b 443 -14 757 124 657 -14 "},"D":{"ha":833,"x_min":0,"x_max":0,"o":"m 106 0 l 106 972 l 368 972 b 775 485 607 972 775 797 b 372 0 775 172 610 0 m 244 125 l 361 125 b 636 486 532 125 636 238 b 361 847 636 735 529 847 l 244 847 "},"Ð":{"ha":833,"x_min":0,"x_max":0,"o":"m 376 972 b 783 485 615 972 783 797 b 381 0 783 172 618 0 l 114 0 l 114 426 l 7 426 l 7 547 l 114 547 l 114 972 m 369 125 b 644 486 540 125 644 238 b 369 847 644 735 538 847 l 253 847 l 253 547 l 465 547 l 465 426 l 253 426 l 253 125 "},"Ď":{"ha":833,"x_min":0,"x_max":0,"o":"m 479 1050 l 321 1050 l 158 1236 l 281 1236 l 400 1147 l 519 1236 l 642 1236 m 368 972 b 775 485 607 972 775 797 b 372 0 775 172 610 0 l 106 0 l 106 972 m 361 125 b 636 486 532 125 636 238 b 361 847 636 735 529 847 l 244 847 l 244 125 "},"Đ":{"ha":833,"x_min":0,"x_max":0,"o":"m 376 972 b 783 485 615 972 783 797 b 381 0 783 172 618 0 l 114 0 l 114 426 l 7 426 l 7 547 l 114 547 l 114 972 m 369 125 b 644 486 540 125 644 238 b 369 847 644 735 538 847 l 253 847 l 253 547 l 465 547 l 465 426 l 253 426 l 253 125 "},"E":{"ha":833,"x_min":0,"x_max":0,"o":"m 113 0 l 113 972 l 728 972 l 728 847 l 251 847 l 251 563 l 656 563 l 656 438 l 251 438 l 251 125 l 742 125 l 742 0 "},"É":{"ha":833,"x_min":0,"x_max":0,"o":"m 386 1050 l 451 1236 l 618 1236 l 489 1050 m 113 0 l 113 972 l 728 972 l 728 847 l 251 847 l 251 563 l 656 563 l 656 438 l 251 438 l 251 125 l 742 125 l 742 0 "},"Ĕ":{"ha":833,"x_min":0,"x_max":0,"o":"m 429 1039 b 211 1236 303 1039 213 1113 l 324 1236 b 429 1142 329 1169 372 1142 b 535 1236 486 1142 529 1169 l 647 1236 b 429 1039 646 1113 556 1039 m 113 0 l 113 972 l 728 972 l 728 847 l 251 847 l 251 563 l 656 563 l 656 438 l 251 438 l 251 125 l 742 125 l 742 0 "},"Ě":{"ha":833,"x_min":0,"x_max":0,"o":"m 507 1050 l 349 1050 l 186 1236 l 308 1236 l 428 1147 l 547 1236 l 669 1236 m 251 125 l 742 125 l 742 0 l 113 0 l 113 972 l 728 972 l 728 847 l 251 847 l 251 563 l 656 563 l 656 438 l 251 438 "},"Ê":{"ha":833,"x_min":0,"x_max":0,"o":"m 429 1140 l 310 1050 l 188 1050 l 350 1236 l 508 1236 l 671 1050 l 549 1050 m 251 125 l 742 125 l 742 0 l 113 0 l 113 972 l 728 972 l 728 847 l 251 847 l 251 563 l 656 563 l 656 438 l 251 438 "},"Ë":{"ha":833,"x_min":0,"x_max":0,"o":"m 226 1074 l 226 1211 l 365 1211 l 365 1074 m 490 1074 l 490 1211 l 629 1211 l 629 1074 m 113 0 l 113 972 l 728 972 l 728 847 l 251 847 l 251 563 l 656 563 l 656 438 l 251 438 l 251 125 l 742 125 l 742 0 "},"Ė":{"ha":833,"x_min":0,"x_max":0,"o":"m 354 1074 l 354 1225 l 500 1225 l 500 1074 m 113 0 l 113 972 l 728 972 l 728 847 l 251 847 l 251 563 l 656 563 l 656 438 l 251 438 l 251 125 l 742 125 l 742 0 "},"È":{"ha":833,"x_min":0,"x_max":0,"o":"m 469 1050 l 367 1050 l 238 1236 l 404 1236 m 113 0 l 113 972 l 728 972 l 728 847 l 251 847 l 251 563 l 656 563 l 656 438 l 251 438 l 251 125 l 742 125 l 742 0 "},"Ē":{"ha":833,"x_min":0,"x_max":0,"o":"m 222 1074 l 222 1185 l 643 1185 l 643 1074 m 113 0 l 113 972 l 728 972 l 728 847 l 251 847 l 251 563 l 656 563 l 656 438 l 251 438 l 251 125 l 742 125 l 742 0 "},"Ę":{"ha":833,"x_min":0,"x_max":0,"o":"m 742 0 b 625 -132 676 -40 625 -83 b 699 -194 625 -178 663 -194 l 736 -194 l 736 -287 l 686 -287 b 531 -164 588 -287 531 -237 b 649 0 531 -94 582 -37 l 113 0 l 113 972 l 728 972 l 728 847 l 251 847 l 251 563 l 656 563 l 656 438 l 251 438 l 251 125 l 742 125 "},"F":{"ha":833,"x_min":0,"x_max":0,"o":"m 128 0 l 128 972 l 740 972 l 740 847 l 267 847 l 267 535 l 699 535 l 699 410 l 267 410 l 267 0 "},"G":{"ha":833,"x_min":0,"x_max":0,"o":"m 422 -14 b 58 486 192 -14 58 189 b 440 986 58 779 182 986 b 765 650 657 986 756 840 l 626 650 b 442 861 617 776 557 861 l 436 861 b 197 486 281 861 197 719 b 440 111 197 265 274 111 l 446 111 b 649 325 560 111 649 188 l 649 371 l 444 371 l 444 496 l 668 496 b 771 393 735 496 771 460 l 771 0 l 649 0 l 649 103 b 422 -14 607 36 538 -14 "},"Ğ":{"ha":833,"x_min":0,"x_max":0,"o":"m 444 1039 b 226 1236 318 1039 228 1113 l 339 1236 b 444 1142 344 1169 388 1142 b 550 1236 501 1142 544 1169 l 663 1236 b 444 1039 661 1113 571 1039 m 422 -14 b 58 486 192 -14 58 189 b 440 986 58 779 182 986 b 765 650 657 986 756 840 l 626 650 b 442 861 617 776 557 861 l 436 861 b 197 486 281 861 197 719 b 440 111 197 265 274 111 l 446 111 b 649 325 560 111 649 188 l 649 371 l 444 371 l 444 496 l 668 496 b 771 393 735 496 771 460 l 771 0 l 649 0 l 649 103 b 422 -14 607 36 538 -14 "},"Ĝ":{"ha":833,"x_min":0,"x_max":0,"o":"m 444 1140 l 325 1050 l 203 1050 l 365 1236 l 524 1236 l 686 1050 l 564 1050 m 668 496 b 771 393 735 496 771 460 l 771 0 l 649 0 l 649 103 b 422 -14 607 36 538 -14 b 58 486 192 -14 58 189 b 440 986 58 779 182 986 b 765 650 657 986 756 840 l 626 650 b 442 861 617 776 557 861 l 436 861 b 197 486 281 861 197 719 b 440 111 197 265 274 111 l 446 111 b 649 325 560 111 649 188 l 649 371 l 444 371 l 444 496 "},"Ģ":{"ha":833,"x_min":0,"x_max":0,"o":"m 422 -14 b 58 486 192 -14 58 189 b 440 986 58 779 182 986 b 765 650 657 986 756 840 l 626 650 b 442 861 617 776 557 861 l 436 861 b 197 486 281 861 197 719 b 440 111 197 265 274 111 l 446 111 b 649 325 560 111 649 188 l 649 371 l 444 371 l 444 496 l 668 496 b 771 393 735 496 771 460 l 771 0 l 649 0 l 649 103 b 422 -14 607 36 538 -14 m 346 -386 l 346 -311 l 365 -311 b 433 -257 411 -311 433 -292 l 433 -249 l 378 -249 l 378 -108 l 510 -108 l 510 -256 b 372 -386 510 -333 453 -386 "},"Ġ":{"ha":833,"x_min":0,"x_max":0,"o":"m 369 1074 l 369 1225 l 515 1225 l 515 1074 m 422 -14 b 58 486 192 -14 58 189 b 440 986 58 779 182 986 b 765 650 657 986 756 840 l 626 650 b 442 861 617 776 557 861 l 436 861 b 197 486 281 861 197 719 b 440 111 197 265 274 111 l 446 111 b 649 325 560 111 649 188 l 649 371 l 444 371 l 444 496 l 668 496 b 771 393 735 496 771 460 l 771 0 l 649 0 l 649 103 b 422 -14 607 36 538 -14 "},"H":{"ha":833,"x_min":0,"x_max":0,"o":"m 92 0 l 92 972 l 231 972 l 231 549 l 603 549 l 603 972 l 742 972 l 742 0 l 603 0 l 603 424 l 231 424 l 231 0 "},"Ħ":{"ha":833,"x_min":0,"x_max":0,"o":"m 804 822 l 804 704 l 742 704 l 742 0 l 603 0 l 603 424 l 231 424 l 231 0 l 92 0 l 92 704 l 29 704 l 29 822 l 92 822 l 92 972 l 231 972 l 231 822 l 603 822 l 603 972 l 742 972 l 742 822 m 603 549 l 603 704 l 231 704 l 231 549 "},"Ĥ":{"ha":833,"x_min":0,"x_max":0,"o":"m 418 1140 l 299 1050 l 176 1050 l 339 1236 l 497 1236 l 660 1050 l 538 1050 m 603 972 l 742 972 l 742 0 l 603 0 l 603 424 l 231 424 l 231 0 l 92 0 l 92 972 l 231 972 l 231 549 l 603 549 "},"I":{"ha":833,"x_min":0,"x_max":0,"o":"m 686 857 l 486 857 l 486 115 l 686 115 l 686 0 l 147 0 l 147 115 l 347 115 l 347 857 l 147 857 l 147 972 l 686 972 "},"Ĳ":{"ha":833,"x_min":0,"x_max":0,"o":"m 581 972 l 719 972 l 719 226 b 511 0 719 81 640 0 l 140 0 l 140 132 l 475 132 b 581 257 550 132 581 174 m 279 972 l 279 271 l 140 271 l 140 972 "},"Í":{"ha":833,"x_min":0,"x_max":0,"o":"m 610 1236 l 481 1050 l 378 1050 l 443 1236 m 686 857 l 486 857 l 486 115 l 686 115 l 686 0 l 147 0 l 147 115 l 347 115 l 347 857 l 147 857 l 147 972 l 686 972 "},"Ĭ":{"ha":833,"x_min":0,"x_max":0,"o":"m 421 1039 b 203 1236 294 1039 204 1113 l 315 1236 b 421 1142 321 1169 364 1142 b 526 1236 478 1142 521 1169 l 639 1236 b 421 1039 638 1113 547 1039 m 686 857 l 486 857 l 486 115 l 686 115 l 686 0 l 147 0 l 147 115 l 347 115 l 347 857 l 147 857 l 147 972 l 686 972 "},"Î":{"ha":833,"x_min":0,"x_max":0,"o":"m 421 1140 l 301 1050 l 179 1050 l 342 1236 l 500 1236 l 663 1050 l 540 1050 m 686 857 l 486 857 l 486 115 l 686 115 l 686 0 l 147 0 l 147 115 l 347 115 l 347 857 l 147 857 l 147 972 l 686 972 "},"Ï":{"ha":833,"x_min":0,"x_max":0,"o":"m 357 1211 l 357 1074 l 218 1074 l 218 1211 m 621 1211 l 621 1074 l 482 1074 l 482 1211 m 686 857 l 486 857 l 486 115 l 686 115 l 686 0 l 147 0 l 147 115 l 347 115 l 347 857 l 147 857 l 147 972 l 686 972 "},"İ":{"ha":833,"x_min":0,"x_max":0,"o":"m 492 1225 l 492 1074 l 346 1074 l 346 1225 m 686 857 l 486 857 l 486 115 l 686 115 l 686 0 l 147 0 l 147 115 l 347 115 l 347 857 l 147 857 l 147 972 l 686 972 "},"Ì":{"ha":833,"x_min":0,"x_max":0,"o":"m 461 1050 l 358 1050 l 229 1236 l 396 1236 m 686 857 l 486 857 l 486 115 l 686 115 l 686 0 l 147 0 l 147 115 l 347 115 l 347 857 l 147 857 l 147 972 l 686 972 "},"Ī":{"ha":833,"x_min":0,"x_max":0,"o":"m 635 1185 l 635 1074 l 214 1074 l 214 1185 m 686 857 l 486 857 l 486 115 l 686 115 l 686 0 l 147 0 l 147 115 l 347 115 l 347 857 l 147 857 l 147 972 l 686 972 "},"Į":{"ha":833,"x_min":0,"x_max":0,"o":"m 686 857 l 486 857 l 486 115 l 686 115 l 686 0 l 486 0 b 369 -132 421 -40 369 -83 b 443 -194 369 -178 407 -194 l 481 -194 l 481 -287 l 431 -287 b 275 -164 332 -287 275 -237 b 393 0 275 -94 326 -37 l 147 0 l 147 115 l 347 115 l 347 857 l 147 857 l 147 972 l 686 972 "},"Ĩ":{"ha":833,"x_min":0,"x_max":0,"o":"m 326 1138 b 274 1064 293 1138 274 1110 l 175 1064 l 175 1097 b 313 1243 175 1178 235 1243 b 414 1208 356 1243 379 1229 l 431 1197 b 517 1154 463 1176 489 1154 b 565 1229 549 1154 565 1183 l 664 1229 l 664 1196 b 528 1050 664 1114 604 1050 b 419 1092 490 1050 458 1065 l 401 1101 b 326 1138 378 1117 356 1138 m 686 857 l 486 857 l 486 115 l 686 115 l 686 0 l 147 0 l 147 115 l 347 115 l 347 857 l 147 857 l 147 972 l 686 972 "},"J":{"ha":833,"x_min":0,"x_max":0,"o":"m 139 0 l 139 132 l 429 132 b 535 257 504 132 535 174 l 535 972 l 674 972 l 674 226 b 465 0 674 81 594 0 "},"Ĵ":{"ha":833,"x_min":0,"x_max":0,"o":"m 683 1236 l 846 1050 l 724 1050 l 604 1140 l 485 1050 l 363 1050 l 525 1236 m 535 972 l 674 972 l 674 226 b 465 0 674 81 594 0 l 139 0 l 139 132 l 429 132 b 535 257 504 132 535 174 "},"K":{"ha":833,"x_min":0,"x_max":0,"o":"m 658 0 l 375 461 l 251 313 l 251 0 l 113 0 l 113 972 l 251 972 l 251 501 l 638 972 l 800 972 l 467 571 l 817 0 "},"Ķ":{"ha":833,"x_min":0,"x_max":0,"o":"m 467 571 l 817 0 l 658 0 l 375 461 l 251 313 l 251 0 l 113 0 l 113 972 l 251 972 l 251 501 l 638 972 l 800 972 m 388 -249 l 388 -108 l 519 -108 l 519 -256 b 382 -386 519 -333 463 -386 l 356 -386 l 356 -311 l 375 -311 b 443 -257 421 -311 443 -292 l 443 -249 "},"L":{"ha":833,"x_min":0,"x_max":0,"o":"m 101 0 l 101 972 l 240 972 l 240 125 l 761 125 l 761 0 "},"Ĺ":{"ha":833,"x_min":0,"x_max":0,"o":"m 128 1050 l 193 1236 l 360 1236 l 231 1050 m 101 0 l 101 972 l 240 972 l 240 125 l 761 125 l 761 0 "},"Ľ":{"ha":833,"x_min":0,"x_max":0,"o":"m 101 0 l 101 972 l 240 972 l 240 125 l 761 125 l 761 0 m 426 694 l 426 769 l 446 769 b 514 824 492 769 514 789 l 514 832 l 458 832 l 458 972 l 590 972 l 590 825 b 453 694 590 747 533 694 "},"Ļ":{"ha":833,"x_min":0,"x_max":0,"o":"m 101 0 l 101 972 l 240 972 l 240 125 l 761 125 l 761 0 m 351 -386 l 351 -311 l 371 -311 b 439 -257 417 -311 439 -292 l 439 -249 l 383 -249 l 383 -108 l 515 -108 l 515 -256 b 378 -386 515 -333 458 -386 "},"Ŀ":{"ha":833,"x_min":0,"x_max":0,"o":"m 101 0 l 101 972 l 240 972 l 240 125 l 761 125 l 761 0 m 488 436 l 488 611 l 663 611 l 663 436 "},"Ł":{"ha":833,"x_min":0,"x_max":0,"o":"m 286 125 l 807 125 l 807 0 l 147 0 l 147 369 l -1 285 l -1 425 l 147 508 l 147 972 l 286 972 l 286 586 l 524 719 l 524 582 l 286 447 "},"M":{"ha":833,"x_min":0,"x_max":0,"o":"m 582 972 l 751 972 l 751 0 l 622 0 l 622 738 l 483 265 l 350 265 l 211 738 l 211 0 l 83 0 l 83 972 l 251 972 l 417 410 "},"N":{"ha":833,"x_min":0,"x_max":0,"o":"m 606 972 l 743 972 l 743 0 l 585 0 l 228 746 l 228 0 l 90 0 l 90 972 l 254 972 l 606 238 "},"Ń":{"ha":833,"x_min":0,"x_max":0,"o":"m 615 1236 l 486 1050 l 383 1050 l 449 1236 m 606 972 l 743 972 l 743 0 l 585 0 l 228 746 l 228 0 l 90 0 l 90 972 l 254 972 l 606 238 "},"Ň":{"ha":833,"x_min":0,"x_max":0,"o":"m 504 1050 l 346 1050 l 183 1236 l 306 1236 l 425 1147 l 544 1236 l 667 1236 m 606 972 l 743 972 l 743 0 l 585 0 l 228 746 l 228 0 l 90 0 l 90 972 l 254 972 l 606 238 "},"Ņ":{"ha":833,"x_min":0,"x_max":0,"o":"m 606 972 l 743 972 l 743 0 l 585 0 l 228 746 l 228 0 l 90 0 l 90 972 l 254 972 l 606 238 m 360 -249 l 360 -108 l 492 -108 l 492 -256 b 354 -386 492 -333 435 -386 l 328 -386 l 328 -311 l 347 -311 b 415 -257 393 -311 415 -292 l 415 -249 "},"Ŋ":{"ha":833,"x_min":0,"x_max":0,"o":"m 606 972 l 743 972 l 743 -97 b 582 -260 743 -201 685 -260 l 418 -260 l 418 -140 l 535 -140 b 604 -71 588 -140 604 -122 l 604 0 l 228 715 l 228 0 l 90 0 l 90 972 l 235 972 l 606 268 "},"Ñ":{"ha":833,"x_min":0,"x_max":0,"o":"m 332 1138 b 279 1064 299 1138 279 1110 l 181 1064 l 181 1097 b 318 1243 181 1178 240 1243 b 419 1208 361 1243 385 1229 l 436 1197 b 522 1154 468 1176 494 1154 b 571 1229 554 1154 571 1183 l 669 1229 l 669 1196 b 533 1050 669 1114 610 1050 b 425 1092 496 1050 464 1065 l 407 1101 b 332 1138 383 1117 361 1138 m 606 972 l 743 972 l 743 0 l 585 0 l 228 746 l 228 0 l 90 0 l 90 972 l 254 972 l 606 238 "},"O":{"ha":833,"x_min":0,"x_max":0,"o":"m 417 -14 b 58 486 186 -14 58 178 b 417 986 58 794 186 986 b 775 486 647 986 775 794 b 417 -14 775 178 647 -14 m 419 111 b 636 486 563 111 636 253 b 419 861 636 719 563 861 l 414 861 b 197 486 271 861 197 719 b 414 111 197 253 271 111 "},"Ó":{"ha":833,"x_min":0,"x_max":0,"o":"m 378 1050 l 443 1236 l 610 1236 l 481 1050 m 417 -14 b 58 486 186 -14 58 178 b 417 986 58 794 186 986 b 775 486 647 986 775 794 b 417 -14 775 178 647 -14 m 419 111 b 636 486 563 111 636 253 b 419 861 636 719 563 861 l 414 861 b 197 486 271 861 197 719 b 414 111 197 253 271 111 "},"Ŏ":{"ha":833,"x_min":0,"x_max":0,"o":"m 421 1039 b 203 1236 294 1039 204 1113 l 315 1236 b 421 1142 321 1169 364 1142 b 526 1236 478 1142 521 1169 l 639 1236 b 421 1039 638 1113 547 1039 m 417 -14 b 58 486 186 -14 58 178 b 417 986 58 794 186 986 b 775 486 647 986 775 794 b 417 -14 775 178 647 -14 m 419 111 b 636 486 563 111 636 253 b 419 861 636 719 563 861 l 414 861 b 197 486 271 861 197 719 b 414 111 197 253 271 111 "},"Ô":{"ha":833,"x_min":0,"x_max":0,"o":"m 421 1140 l 301 1050 l 179 1050 l 342 1236 l 500 1236 l 663 1050 l 540 1050 m 417 986 b 775 486 647 986 775 794 b 417 -14 775 178 647 -14 b 58 486 186 -14 58 178 b 417 986 58 794 186 986 m 419 111 b 636 486 563 111 636 253 b 419 861 636 719 563 861 l 414 861 b 197 486 271 861 197 719 b 414 111 197 253 271 111 "},"Ö":{"ha":833,"x_min":0,"x_max":0,"o":"m 218 1074 l 218 1211 l 357 1211 l 357 1074 m 482 1074 l 482 1211 l 621 1211 l 621 1074 m 417 -14 b 58 486 186 -14 58 178 b 417 986 58 794 186 986 b 775 486 647 986 775 794 b 417 -14 775 178 647 -14 m 419 111 b 636 486 563 111 636 253 b 419 861 636 719 563 861 l 414 861 b 197 486 271 861 197 719 b 414 111 197 253 271 111 "},"Ò":{"ha":833,"x_min":0,"x_max":0,"o":"m 461 1050 l 358 1050 l 229 1236 l 396 1236 m 417 -14 b 58 486 186 -14 58 178 b 417 986 58 794 186 986 b 775 486 647 986 775 794 b 417 -14 775 178 647 -14 m 419 111 b 636 486 563 111 636 253 b 419 861 636 719 563 861 l 414 861 b 197 486 271 861 197 719 b 414 111 197 253 271 111 "},"Ő":{"ha":833,"x_min":0,"x_max":0,"o":"m 253 1050 l 318 1236 l 485 1236 l 356 1050 m 497 1050 l 563 1236 l 729 1236 l 600 1050 m 417 -14 b 58 486 186 -14 58 178 b 417 986 58 794 186 986 b 775 486 647 986 775 794 b 417 -14 775 178 647 -14 m 419 111 b 636 486 563 111 636 253 b 419 861 636 719 563 861 l 414 861 b 197 486 271 861 197 719 b 414 111 197 253 271 111 "},"Ō":{"ha":833,"x_min":0,"x_max":0,"o":"m 214 1074 l 214 1185 l 635 1185 l 635 1074 m 417 -14 b 58 486 186 -14 58 178 b 417 986 58 794 186 986 b 775 486 647 986 775 794 b 417 -14 775 178 647 -14 m 419 111 b 636 486 563 111 636 253 b 419 861 636 719 563 861 l 414 861 b 197 486 271 861 197 719 b 414 111 197 253 271 111 "},"Ø":{"ha":833,"x_min":0,"x_max":0,"o":"m 793 957 l 704 819 b 776 486 751 735 776 622 b 418 -14 776 178 649 -14 b 210 57 335 -14 265 11 l 142 -49 l 42 15 l 132 154 b 60 486 85 238 60 351 b 418 986 60 794 188 986 b 626 915 501 986 571 961 l 694 1021 m 199 486 b 221 292 199 411 206 346 l 553 803 b 421 861 519 840 475 861 l 415 861 b 199 486 272 861 199 719 m 638 486 b 615 682 638 561 629 626 l 283 169 b 415 111 317 132 361 111 l 421 111 b 638 486 564 111 638 253 "},"Ǿ":{"ha":833,"x_min":0,"x_max":0,"o":"m 611 1236 l 482 1050 l 379 1050 l 444 1236 m 793 957 l 704 819 b 776 486 751 735 776 622 b 418 -14 776 178 649 -14 b 210 57 335 -14 265 11 l 142 -49 l 42 15 l 132 154 b 60 486 85 238 60 351 b 418 986 60 794 188 986 b 626 915 501 986 571 961 l 694 1021 m 199 486 b 221 292 199 411 206 346 l 553 803 b 421 861 519 840 475 861 l 415 861 b 199 486 272 861 199 719 m 638 486 b 615 682 638 561 629 626 l 283 169 b 415 111 317 132 361 111 l 421 111 b 638 486 564 111 638 253 "},"Õ":{"ha":833,"x_min":0,"x_max":0,"o":"m 528 1050 b 419 1092 490 1050 458 1065 l 401 1101 b 326 1138 378 1117 356 1138 b 274 1064 293 1138 274 1110 l 175 1064 l 175 1097 b 313 1243 175 1178 235 1243 b 414 1208 356 1243 379 1229 l 431 1197 b 517 1154 463 1176 489 1154 b 565 1229 549 1154 565 1183 l 664 1229 l 664 1196 b 528 1050 664 1114 604 1050 m 417 -14 b 58 486 186 -14 58 178 b 417 986 58 794 186 986 b 775 486 647 986 775 794 b 417 -14 775 178 647 -14 m 419 111 b 636 486 563 111 636 253 b 419 861 636 719 563 861 l 414 861 b 197 486 271 861 197 719 b 414 111 197 253 271 111 "},"Œ":{"ha":833,"x_min":0,"x_max":0,"o":"m 567 125 l 783 125 l 783 0 l 413 0 b 50 486 188 0 50 178 b 413 972 50 794 188 972 l 769 972 l 769 847 l 567 847 l 567 563 l 753 563 l 753 438 l 567 438 m 429 125 l 429 847 l 408 847 b 189 486 271 847 189 713 b 408 125 189 260 271 125 "},"P":{"ha":833,"x_min":0,"x_max":0,"o":"m 114 0 l 114 972 l 458 972 b 763 676 636 972 763 867 b 457 382 763 486 632 382 l 253 382 l 253 0 m 253 507 l 438 507 b 624 676 556 507 624 567 b 438 847 624 786 558 847 l 253 847 "},"Þ":{"ha":833,"x_min":0,"x_max":0,"o":"m 125 0 l 125 972 l 264 972 l 264 781 l 497 781 b 801 488 676 781 801 675 b 497 192 801 299 676 192 l 264 192 l 264 0 m 264 318 l 476 318 b 663 488 596 318 663 375 b 476 654 663 599 596 654 l 264 654 "},"Q":{"ha":833,"x_min":0,"x_max":0,"o":"m 483 -67 b 557 -140 483 -122 501 -140 l 749 -140 l 749 -260 l 511 -260 b 349 -96 404 -260 349 -203 l 349 -8 b 58 486 161 26 58 210 b 417 986 58 794 186 986 b 775 486 647 986 775 794 b 483 -8 775 208 672 26 m 197 486 b 414 111 197 253 271 111 l 419 111 b 636 486 563 111 636 253 b 419 861 636 719 563 861 l 414 861 b 197 486 271 861 197 719 "},"R":{"ha":833,"x_min":0,"x_max":0,"o":"m 599 471 b 733 338 694 471 733 425 l 733 0 l 594 0 l 594 315 b 519 390 594 369 574 390 l 250 390 l 250 0 l 111 0 l 111 972 l 449 972 b 747 711 618 972 747 863 b 592 471 747 593 690 510 m 417 515 b 608 686 528 515 608 579 b 417 847 608 790 539 847 l 250 847 l 250 515 "},"Ŕ":{"ha":833,"x_min":0,"x_max":0,"o":"m 601 1236 l 472 1050 l 369 1050 l 435 1236 m 599 471 b 733 338 694 471 733 425 l 733 0 l 594 0 l 594 315 b 519 390 594 369 574 390 l 250 390 l 250 0 l 111 0 l 111 972 l 449 972 b 747 711 618 972 747 863 b 592 471 747 593 690 510 m 417 515 b 608 686 528 515 608 579 b 417 847 608 790 539 847 l 250 847 l 250 515 "},"Ř":{"ha":833,"x_min":0,"x_max":0,"o":"m 490 1050 l 332 1050 l 169 1236 l 292 1236 l 411 1147 l 531 1236 l 653 1236 m 599 471 b 733 338 694 471 733 425 l 733 0 l 594 0 l 594 315 b 519 390 594 369 574 390 l 250 390 l 250 0 l 111 0 l 111 972 l 449 972 b 747 711 618 972 747 863 b 592 471 747 593 690 510 m 417 515 b 608 686 528 515 608 579 b 417 847 608 790 539 847 l 250 847 l 250 515 "},"Ŗ":{"ha":833,"x_min":0,"x_max":0,"o":"m 599 471 b 733 338 694 471 733 425 l 733 0 l 594 0 l 594 315 b 519 390 594 369 574 390 l 250 390 l 250 0 l 111 0 l 111 972 l 449 972 b 747 711 618 972 747 863 b 592 471 747 593 690 510 m 417 515 b 608 686 528 515 608 579 b 417 847 608 790 539 847 l 250 847 l 250 515 m 358 -249 l 358 -108 l 490 -108 l 490 -256 b 353 -386 490 -333 433 -386 l 326 -386 l 326 -311 l 346 -311 b 414 -257 392 -311 414 -292 l 414 -249 "},"S":{"ha":833,"x_min":0,"x_max":0,"o":"m 418 -14 b 44 315 165 -14 49 119 l 183 315 b 425 111 190 175 276 111 l 432 111 b 626 264 560 111 626 181 b 486 404 626 338 586 383 l 332 438 b 93 701 168 472 93 558 b 432 986 93 853 219 986 b 781 678 651 986 776 860 l 642 678 b 433 861 635 793 553 861 l 428 861 b 232 704 310 861 232 792 b 372 569 232 628 275 589 l 513 540 b 765 272 674 507 765 424 b 418 -14 765 107 636 -14 "},"Ś":{"ha":833,"x_min":0,"x_max":0,"o":"m 396 1053 l 461 1239 l 628 1239 l 499 1053 m 418 -14 b 44 315 165 -14 49 119 l 183 315 b 425 111 190 175 276 111 l 432 111 b 626 264 560 111 626 181 b 486 404 626 338 586 383 l 332 438 b 93 701 168 472 93 558 b 432 986 93 853 219 986 b 781 678 651 986 776 860 l 642 678 b 433 861 635 793 553 861 l 428 861 b 232 704 310 861 232 792 b 372 569 232 628 275 589 l 513 540 b 765 272 674 507 765 424 b 418 -14 765 107 636 -14 "},"Š":{"ha":833,"x_min":0,"x_max":0,"o":"m 517 1053 l 358 1053 l 196 1239 l 318 1239 l 438 1150 l 557 1239 l 679 1239 m 513 540 b 765 272 674 507 765 424 b 418 -14 765 107 636 -14 b 44 315 165 -14 49 119 l 183 315 b 425 111 190 175 276 111 l 432 111 b 626 264 560 111 626 181 b 486 404 626 338 586 383 l 332 438 b 93 701 168 472 93 558 b 432 986 93 853 219 986 b 781 678 651 986 776 860 l 642 678 b 433 861 635 793 553 861 l 428 861 b 232 704 310 861 232 792 b 372 569 232 628 275 589 "},"Ş":{"ha":833,"x_min":0,"x_max":0,"o":"m 513 540 b 765 272 674 507 765 424 b 449 -12 765 115 649 -3 l 449 -62 b 571 -183 513 -61 571 -106 b 418 -325 571 -267 513 -325 l 321 -325 l 321 -236 l 422 -236 b 485 -183 458 -236 485 -219 b 425 -132 485 -151 463 -132 l 369 -132 l 369 -12 b 44 315 150 4 49 132 l 183 315 b 425 111 190 175 276 111 l 432 111 b 626 264 560 111 626 181 b 486 404 626 338 586 383 l 332 438 b 93 701 168 472 93 558 b 432 986 93 853 219 986 b 781 678 651 986 776 860 l 642 678 b 433 861 635 793 553 861 l 428 861 b 232 704 310 861 232 792 b 372 569 232 628 275 589 "},"Ŝ":{"ha":833,"x_min":0,"x_max":0,"o":"m 439 1143 l 319 1053 l 197 1053 l 360 1239 l 518 1239 l 681 1053 l 558 1053 m 513 540 b 765 272 674 507 765 424 b 418 -14 765 107 636 -14 b 44 315 165 -14 49 119 l 183 315 b 425 111 190 175 276 111 l 432 111 b 626 264 560 111 626 181 b 486 404 626 338 586 383 l 332 438 b 93 701 168 472 93 558 b 432 986 93 853 219 986 b 781 678 651 986 776 860 l 642 678 b 433 861 635 793 553 861 l 428 861 b 232 704 310 861 232 792 b 372 569 232 628 275 589 "},"Ș":{"ha":833,"x_min":0,"x_max":0,"o":"m 418 -14 b 44 315 165 -14 49 119 l 183 315 b 425 111 190 175 276 111 l 432 111 b 626 264 560 111 626 181 b 486 404 626 338 586 383 l 332 438 b 93 701 168 472 93 558 b 432 986 93 853 219 986 b 781 678 651 986 776 860 l 642 678 b 433 861 635 793 553 861 l 428 861 b 232 704 310 861 232 792 b 372 569 232 628 275 589 l 513 540 b 765 272 674 507 765 424 b 418 -14 765 107 636 -14 m 314 -386 l 314 -311 l 333 -311 b 401 -257 379 -311 401 -292 l 401 -249 l 346 -249 l 346 -108 l 478 -108 l 478 -256 b 340 -386 478 -333 421 -386 "},"ẞ":{"ha":833,"x_min":0,"x_max":0,"o":"m 118 0 l 118 972 l 425 972 b 703 719 586 972 703 876 b 571 506 703 619 649 544 b 767 269 674 489 767 397 b 465 0 767 103 642 0 l 381 0 l 381 125 l 449 125 b 628 279 557 125 628 181 b 449 428 628 379 557 428 l 381 428 l 381 551 l 401 551 b 564 701 500 551 564 608 b 400 847 564 793 500 847 l 257 847 l 257 0 "},"T":{"ha":833,"x_min":0,"x_max":0,"o":"m 347 0 l 347 847 l 71 847 l 71 972 l 763 972 l 763 847 l 486 847 l 486 0 "},"Ŧ":{"ha":833,"x_min":0,"x_max":0,"o":"m 769 847 l 493 847 l 493 588 l 703 588 l 703 469 l 493 469 l 493 0 l 354 0 l 354 469 l 143 469 l 143 588 l 354 588 l 354 847 l 78 847 l 78 972 l 769 972 "},"Ť":{"ha":833,"x_min":0,"x_max":0,"o":"m 496 1050 l 338 1050 l 175 1236 l 297 1236 l 417 1147 l 536 1236 l 658 1236 m 71 972 l 763 972 l 763 847 l 486 847 l 486 0 l 347 0 l 347 847 l 71 847 "},"Ţ":{"ha":833,"x_min":0,"x_max":0,"o":"m 486 0 l 454 0 l 454 -62 b 576 -183 518 -61 576 -106 b 424 -325 576 -267 518 -325 l 326 -325 l 326 -236 l 428 -236 b 490 -183 464 -236 490 -219 b 431 -132 490 -151 468 -132 l 375 -132 l 375 0 l 347 0 l 347 847 l 71 847 l 71 972 l 763 972 l 763 847 l 486 847 "},"Ț":{"ha":833,"x_min":0,"x_max":0,"o":"m 347 0 l 347 847 l 71 847 l 71 972 l 763 972 l 763 847 l 486 847 l 486 0 m 319 -386 l 319 -311 l 339 -311 b 407 -257 385 -311 407 -292 l 407 -249 l 351 -249 l 351 -108 l 483 -108 l 483 -256 b 346 -386 483 -333 426 -386 "},"U":{"ha":833,"x_min":0,"x_max":0,"o":"m 417 -14 b 86 326 206 -14 86 115 l 86 972 l 225 972 l 225 346 b 414 111 225 185 293 111 l 419 111 b 608 346 540 111 608 185 l 608 972 l 747 972 l 747 326 b 417 -14 747 115 628 -14 "},"Ú":{"ha":833,"x_min":0,"x_max":0,"o":"m 364 1050 l 429 1236 l 596 1236 l 467 1050 m 417 -14 b 86 326 206 -14 86 115 l 86 972 l 225 972 l 225 346 b 414 111 225 185 293 111 l 419 111 b 608 346 540 111 608 185 l 608 972 l 747 972 l 747 326 b 417 -14 747 115 628 -14 "},"Ŭ":{"ha":833,"x_min":0,"x_max":0,"o":"m 407 1039 b 189 1236 281 1039 190 1113 l 301 1236 b 407 1142 307 1169 350 1142 b 513 1236 464 1142 507 1169 l 625 1236 b 407 1039 624 1113 533 1039 m 417 -14 b 86 326 206 -14 86 115 l 86 972 l 225 972 l 225 346 b 414 111 225 185 293 111 l 419 111 b 608 346 540 111 608 185 l 608 972 l 747 972 l 747 326 b 417 -14 747 115 628 -14 "},"Û":{"ha":833,"x_min":0,"x_max":0,"o":"m 407 1140 l 288 1050 l 165 1050 l 328 1236 l 486 1236 l 649 1050 l 526 1050 m 608 972 l 747 972 l 747 326 b 417 -14 747 115 628 -14 b 86 326 206 -14 86 115 l 86 972 l 225 972 l 225 346 b 414 111 225 185 293 111 l 419 111 b 608 346 540 111 608 185 "},"Ü":{"ha":833,"x_min":0,"x_max":0,"o":"m 204 1074 l 204 1211 l 343 1211 l 343 1074 m 468 1074 l 468 1211 l 607 1211 l 607 1074 m 417 -14 b 86 326 206 -14 86 115 l 86 972 l 225 972 l 225 346 b 414 111 225 185 293 111 l 419 111 b 608 346 540 111 608 185 l 608 972 l 747 972 l 747 326 b 417 -14 747 115 628 -14 "},"Ù":{"ha":833,"x_min":0,"x_max":0,"o":"m 447 1050 l 344 1050 l 215 1236 l 382 1236 m 417 -14 b 86 326 206 -14 86 115 l 86 972 l 225 972 l 225 346 b 414 111 225 185 293 111 l 419 111 b 608 346 540 111 608 185 l 608 972 l 747 972 l 747 326 b 417 -14 747 115 628 -14 "},"Ű":{"ha":833,"x_min":0,"x_max":0,"o":"m 239 1050 l 304 1236 l 471 1236 l 342 1050 m 483 1050 l 549 1236 l 715 1236 l 586 1050 m 417 -14 b 86 326 206 -14 86 115 l 86 972 l 225 972 l 225 346 b 414 111 225 185 293 111 l 419 111 b 608 346 540 111 608 185 l 608 972 l 747 972 l 747 326 b 417 -14 747 115 628 -14 "},"Ū":{"ha":833,"x_min":0,"x_max":0,"o":"m 200 1074 l 200 1185 l 621 1185 l 621 1074 m 417 -14 b 86 326 206 -14 86 115 l 86 972 l 225 972 l 225 346 b 414 111 225 185 293 111 l 419 111 b 608 346 540 111 608 185 l 608 972 l 747 972 l 747 326 b 417 -14 747 115 628 -14 "},"Ų":{"ha":833,"x_min":0,"x_max":0,"o":"m 608 972 l 747 972 l 747 326 b 528 0 747 156 669 39 b 411 -132 463 -40 411 -83 b 485 -194 411 -178 449 -194 l 522 -194 l 522 -287 l 472 -287 b 317 -164 374 -287 317 -237 b 413 -14 317 -103 357 -51 b 86 326 204 -12 86 117 l 86 972 l 225 972 l 225 346 b 414 111 225 185 293 111 l 419 111 b 608 346 540 111 608 185 "},"Ů":{"ha":833,"x_min":0,"x_max":0,"o":"m 410 1036 b 281 1165 343 1036 281 1092 b 410 1294 281 1235 343 1294 b 539 1165 481 1294 539 1235 b 410 1036 539 1092 481 1036 m 411 1114 b 460 1165 438 1114 460 1139 b 411 1217 460 1192 438 1217 b 360 1165 383 1217 360 1192 b 411 1114 360 1139 383 1114 m 417 -14 b 86 326 206 -14 86 115 l 86 972 l 225 972 l 225 346 b 414 111 225 185 293 111 l 419 111 b 608 346 540 111 608 185 l 608 972 l 747 972 l 747 326 b 417 -14 747 115 628 -14 "},"Ũ":{"ha":833,"x_min":0,"x_max":0,"o":"m 514 1050 b 406 1092 476 1050 444 1065 l 388 1101 b 313 1138 364 1117 342 1138 b 260 1064 279 1138 260 1110 l 161 1064 l 161 1097 b 299 1243 161 1178 221 1243 b 400 1208 342 1243 365 1229 l 417 1197 b 503 1154 449 1176 475 1154 b 551 1229 535 1154 551 1183 l 650 1229 l 650 1196 b 514 1050 650 1114 590 1050 m 417 -14 b 86 326 206 -14 86 115 l 86 972 l 225 972 l 225 346 b 414 111 225 185 293 111 l 419 111 b 608 346 540 111 608 185 l 608 972 l 747 972 l 747 326 b 417 -14 747 115 628 -14 "},"V":{"ha":833,"x_min":0,"x_max":0,"o":"m 646 972 l 796 972 l 508 0 l 328 0 l 39 972 l 189 972 l 419 160 "},"W":{"ha":833,"x_min":0,"x_max":0,"o":"m 654 972 l 783 972 l 699 0 l 536 0 l 418 565 l 286 0 l 128 0 l 51 972 l 178 972 l 228 204 l 349 726 l 489 726 l 604 203 "},"Ẃ":{"ha":833,"x_min":0,"x_max":0,"o":"m 600 1236 l 471 1050 l 368 1050 l 433 1236 m 654 972 l 783 972 l 699 0 l 536 0 l 418 565 l 286 0 l 128 0 l 51 972 l 178 972 l 228 204 l 349 726 l 489 726 l 604 203 "},"Ŵ":{"ha":833,"x_min":0,"x_max":0,"o":"m 411 1140 l 292 1050 l 169 1050 l 332 1236 l 490 1236 l 653 1050 l 531 1050 m 654 972 l 783 972 l 699 0 l 536 0 l 418 565 l 286 0 l 128 0 l 51 972 l 178 972 l 228 204 l 349 726 l 489 726 l 604 203 "},"Ẅ":{"ha":833,"x_min":0,"x_max":0,"o":"m 347 1211 l 347 1074 l 208 1074 l 208 1211 m 611 1211 l 611 1074 l 472 1074 l 472 1211 m 654 972 l 783 972 l 699 0 l 536 0 l 418 565 l 286 0 l 128 0 l 51 972 l 178 972 l 228 204 l 349 726 l 489 726 l 604 203 "},"Ẁ":{"ha":833,"x_min":0,"x_max":0,"o":"m 451 1050 l 349 1050 l 219 1236 l 386 1236 m 654 972 l 783 972 l 699 0 l 536 0 l 418 565 l 286 0 l 128 0 l 51 972 l 178 972 l 228 204 l 349 726 l 489 726 l 604 203 "},"X":{"ha":833,"x_min":0,"x_max":0,"o":"m 799 0 l 643 0 l 417 386 l 185 0 l 35 0 l 338 497 l 53 972 l 207 972 l 418 613 l 632 972 l 781 972 l 496 503 "},"Y":{"ha":833,"x_min":0,"x_max":0,"o":"m 639 972 l 789 972 l 485 386 l 485 0 l 346 0 l 346 386 l 44 972 l 197 972 l 418 515 "},"Ý":{"ha":833,"x_min":0,"x_max":0,"o":"m 607 1236 l 478 1050 l 375 1050 l 440 1236 m 639 972 l 789 972 l 485 386 l 485 0 l 346 0 l 346 386 l 44 972 l 197 972 l 418 515 "},"Ŷ":{"ha":833,"x_min":0,"x_max":0,"o":"m 418 1140 l 299 1050 l 176 1050 l 339 1236 l 497 1236 l 660 1050 l 538 1050 m 639 972 l 789 972 l 485 386 l 485 0 l 346 0 l 346 386 l 44 972 l 197 972 l 418 515 "},"Ÿ":{"ha":833,"x_min":0,"x_max":0,"o":"m 354 1211 l 354 1074 l 215 1074 l 215 1211 m 618 1211 l 618 1074 l 479 1074 l 479 1211 m 639 972 l 789 972 l 485 386 l 485 0 l 346 0 l 346 386 l 44 972 l 197 972 l 418 515 "},"Ỳ":{"ha":833,"x_min":0,"x_max":0,"o":"m 458 1050 l 356 1050 l 226 1236 l 393 1236 m 639 972 l 789 972 l 485 386 l 485 0 l 346 0 l 346 386 l 44 972 l 197 972 l 418 515 "},"Ȳ":{"ha":833,"x_min":0,"x_max":0,"o":"m 632 1185 l 632 1074 l 211 1074 l 211 1185 m 639 972 l 789 972 l 485 386 l 485 0 l 346 0 l 346 386 l 44 972 l 197 972 l 418 515 "},"Z":{"ha":833,"x_min":0,"x_max":0,"o":"m 247 125 l 742 125 l 742 0 l 97 0 l 97 131 l 574 847 l 110 847 l 110 972 l 726 972 l 726 847 "},"Ź":{"ha":833,"x_min":0,"x_max":0,"o":"m 606 1236 l 476 1050 l 374 1050 l 439 1236 m 247 125 l 742 125 l 742 0 l 97 0 l 97 131 l 574 847 l 110 847 l 110 972 l 726 972 l 726 847 "},"Ž":{"ha":833,"x_min":0,"x_max":0,"o":"m 494 1050 l 336 1050 l 174 1236 l 296 1236 l 415 1147 l 535 1236 l 657 1236 m 247 125 l 742 125 l 742 0 l 97 0 l 97 131 l 574 847 l 110 847 l 110 972 l 726 972 l 726 847 "},"Ż":{"ha":833,"x_min":0,"x_max":0,"o":"m 488 1225 l 488 1074 l 342 1074 l 342 1225 m 247 125 l 742 125 l 742 0 l 97 0 l 97 131 l 574 847 l 110 847 l 110 972 l 726 972 l 726 847 "},"a":{"ha":833,"x_min":0,"x_max":0,"o":"m 693 153 b 700 0 693 111 693 49 l 578 0 b 569 99 572 26 571 64 b 343 -14 536 38 450 -14 b 119 192 219 -14 119 69 b 365 408 119 343 244 399 l 564 425 l 564 447 b 418 600 564 540 508 600 l 411 600 b 265 490 331 600 272 556 l 133 490 b 414 708 144 617 254 708 b 693 451 592 708 693 603 m 375 94 b 564 265 465 94 564 168 l 564 325 l 386 310 b 250 200 313 304 250 267 b 365 94 250 139 299 94 "},"á":{"ha":833,"x_min":0,"x_max":0,"o":"m 581 972 l 450 779 l 365 779 l 425 972 m 693 153 b 700 0 693 111 693 49 l 578 0 b 569 99 572 26 571 64 b 343 -14 536 38 450 -14 b 119 192 219 -14 119 69 b 365 408 119 343 244 399 l 564 425 l 564 447 b 418 600 564 540 508 600 l 411 600 b 265 490 331 600 272 556 l 133 490 b 414 708 144 617 254 708 b 693 451 592 708 693 603 m 375 94 b 564 265 465 94 564 168 l 564 325 l 386 310 b 250 200 313 304 250 267 b 365 94 250 139 299 94 "},"ă":{"ha":833,"x_min":0,"x_max":0,"o":"m 411 765 b 197 972 289 765 199 842 l 306 972 b 411 864 310 903 350 864 b 517 972 472 864 513 903 l 625 972 b 411 765 624 842 533 765 m 693 153 b 700 0 693 111 693 49 l 578 0 b 569 99 572 26 571 64 b 343 -14 536 38 450 -14 b 119 192 219 -14 119 69 b 365 408 119 343 244 399 l 564 425 l 564 447 b 418 600 564 540 508 600 l 411 600 b 265 490 331 600 272 556 l 133 490 b 414 708 144 617 254 708 b 693 451 592 708 693 603 m 375 94 b 564 265 465 94 564 168 l 564 325 l 386 310 b 250 200 313 304 250 267 b 365 94 250 139 299 94 "},"â":{"ha":833,"x_min":0,"x_max":0,"o":"m 411 881 l 272 779 l 176 779 l 335 972 l 488 972 l 646 779 l 550 779 m 693 153 b 700 0 693 111 693 49 l 578 0 b 569 99 572 26 571 64 b 343 -14 536 38 450 -14 b 119 192 219 -14 119 69 b 365 408 119 343 244 399 l 564 425 l 564 447 b 418 600 564 540 508 600 l 411 600 b 265 490 331 600 272 556 l 133 490 b 414 708 144 617 254 708 b 693 451 592 708 693 603 m 375 94 b 564 265 465 94 564 168 l 564 325 l 386 310 b 250 200 313 304 250 267 b 365 94 250 139 299 94 "},"ä":{"ha":833,"x_min":0,"x_max":0,"o":"m 349 947 l 349 803 l 215 803 l 215 947 m 607 947 l 607 803 l 474 803 l 474 947 m 693 153 b 700 0 693 111 693 49 l 578 0 b 569 99 572 26 571 64 b 343 -14 536 38 450 -14 b 119 192 219 -14 119 69 b 365 408 119 343 244 399 l 564 425 l 564 447 b 418 600 564 540 508 600 l 411 600 b 265 490 331 600 272 556 l 133 490 b 414 708 144 617 254 708 b 693 451 592 708 693 603 m 375 94 b 564 265 465 94 564 168 l 564 325 l 386 310 b 250 200 313 304 250 267 b 365 94 250 139 299 94 "},"ȧ":{"ha":833,"x_min":0,"x_max":0,"o":"m 483 954 l 483 803 l 338 803 l 338 954 m 693 153 b 700 0 693 111 693 49 l 578 0 b 569 99 572 26 571 64 b 343 -14 536 38 450 -14 b 119 192 219 -14 119 69 b 365 408 119 343 244 399 l 564 425 l 564 447 b 418 600 564 540 508 600 l 411 600 b 265 490 331 600 272 556 l 133 490 b 414 708 144 617 254 708 b 693 451 592 708 693 603 m 375 94 b 564 265 465 94 564 168 l 564 325 l 386 310 b 250 200 313 304 250 267 b 365 94 250 139 299 94 "},"à":{"ha":833,"x_min":0,"x_max":0,"o":"m 469 779 l 385 779 l 256 972 l 411 972 m 693 153 b 700 0 693 111 693 49 l 578 0 b 569 99 572 26 571 64 b 343 -14 536 38 450 -14 b 119 192 219 -14 119 69 b 365 408 119 343 244 399 l 564 425 l 564 447 b 418 600 564 540 508 600 l 411 600 b 265 490 331 600 272 556 l 133 490 b 414 708 144 617 254 708 b 693 451 592 708 693 603 m 375 94 b 564 265 465 94 564 168 l 564 325 l 386 310 b 250 200 313 304 250 267 b 365 94 250 139 299 94 "},"ā":{"ha":833,"x_min":0,"x_max":0,"o":"m 618 913 l 618 803 l 218 803 l 218 913 m 693 153 b 700 0 693 111 693 49 l 578 0 b 569 99 572 26 571 64 b 343 -14 536 38 450 -14 b 119 192 219 -14 119 69 b 365 408 119 343 244 399 l 564 425 l 564 447 b 418 600 564 540 508 600 l 411 600 b 265 490 331 600 272 556 l 133 490 b 414 708 144 617 254 708 b 693 451 592 708 693 603 m 375 94 b 564 265 465 94 564 168 l 564 325 l 386 310 b 250 200 313 304 250 267 b 365 94 250 139 299 94 "},"ą":{"ha":833,"x_min":0,"x_max":0,"o":"m 583 -132 b 657 -194 583 -178 621 -194 l 694 -194 l 694 -287 l 644 -287 b 489 -164 546 -287 489 -237 b 607 0 489 -94 540 -37 l 578 0 b 569 99 572 26 571 64 b 343 -14 536 38 450 -14 b 119 192 219 -14 119 69 b 365 408 119 343 244 399 l 564 425 l 564 447 b 418 600 564 540 508 600 l 411 600 b 265 490 331 600 272 556 l 133 490 b 414 708 144 617 254 708 b 693 451 592 708 693 603 l 693 153 b 700 0 693 111 693 49 b 583 -132 635 -40 583 -83 m 375 94 b 564 265 465 94 564 168 l 564 325 l 386 310 b 250 200 313 304 250 267 b 365 94 250 139 299 94 "},"å":{"ha":833,"x_min":0,"x_max":0,"o":"m 411 768 b 281 899 343 768 281 824 b 411 1029 281 971 343 1029 b 542 899 482 1029 542 971 b 411 768 542 824 482 768 m 413 960 b 351 899 379 960 351 932 b 413 838 351 865 379 838 b 472 899 446 838 472 865 b 413 960 472 932 446 960 m 693 153 b 700 0 693 111 693 49 l 578 0 b 569 99 572 26 571 64 b 343 -14 536 38 450 -14 b 119 192 219 -14 119 69 b 365 408 119 343 244 399 l 564 425 l 564 447 b 418 600 564 540 508 600 l 411 600 b 265 490 331 600 272 556 l 133 490 b 414 708 144 617 254 708 b 693 451 592 708 693 603 m 375 94 b 564 265 465 94 564 168 l 564 325 l 386 310 b 250 200 313 304 250 267 b 365 94 250 139 299 94 "},"ã":{"ha":833,"x_min":0,"x_max":0,"o":"m 318 863 b 265 789 285 863 265 835 l 167 789 l 167 822 b 304 968 167 903 226 968 b 406 933 347 968 371 954 l 422 922 b 508 879 454 901 481 879 b 557 954 540 879 557 908 l 656 954 l 656 921 b 519 775 656 839 596 775 b 411 817 482 775 450 790 l 393 826 b 318 863 369 842 347 863 m 693 153 b 700 0 693 111 693 49 l 578 0 b 569 99 572 26 571 64 b 343 -14 536 38 450 -14 b 119 192 219 -14 119 69 b 365 408 119 343 244 399 l 564 425 l 564 447 b 418 600 564 540 508 600 l 411 600 b 265 490 331 600 272 556 l 133 490 b 414 708 144 617 254 708 b 693 451 592 708 693 603 m 375 94 b 564 265 465 94 564 168 l 564 325 l 386 310 b 250 200 313 304 250 267 b 365 94 250 139 299 94 "},"æ":{"ha":833,"x_min":0,"x_max":0,"o":"m 825 317 l 490 317 b 607 94 490 167 540 94 l 610 94 b 704 208 667 94 699 142 l 824 208 b 615 -14 817 88 751 -14 b 424 97 510 -14 456 38 b 229 -14 386 36 331 -14 b 10 203 93 -14 10 79 b 243 417 10 357 124 417 l 357 417 l 357 458 b 254 600 357 531 335 600 l 250 600 b 144 492 181 600 149 550 l 22 492 b 256 708 31 615 111 708 b 435 615 349 708 404 667 b 606 708 465 667 526 708 b 825 396 758 708 825 574 m 710 417 b 608 600 710 525 676 600 l 606 600 b 492 417 529 600 494 521 m 357 317 l 256 317 b 129 204 183 317 129 275 b 236 94 129 136 171 94 l 239 94 b 357 244 318 94 357 163 "},"ǽ":{"ha":833,"x_min":0,"x_max":0,"o":"m 385 779 l 444 972 l 600 972 l 469 779 m 825 317 l 490 317 b 607 94 490 167 540 94 l 610 94 b 704 208 667 94 699 142 l 824 208 b 615 -14 817 88 751 -14 b 424 97 510 -14 456 38 b 229 -14 386 36 331 -14 b 10 203 93 -14 10 79 b 243 417 10 357 124 417 l 357 417 l 357 458 b 254 600 357 531 335 600 l 250 600 b 144 492 181 600 149 550 l 22 492 b 256 708 31 615 111 708 b 435 615 349 708 404 667 b 606 708 465 667 526 708 b 825 396 758 708 825 574 m 710 417 b 608 600 710 525 676 600 l 606 600 b 492 417 529 600 494 521 m 357 317 l 256 317 b 129 204 183 317 129 275 b 236 94 129 136 171 94 l 239 94 b 357 244 318 94 357 163 "},"b":{"ha":833,"x_min":0,"x_max":0,"o":"m 240 972 l 240 593 b 458 708 276 657 365 708 b 767 347 649 708 767 553 b 458 -14 767 142 649 -14 b 240 101 365 -14 276 38 l 240 0 l 108 0 l 108 972 m 433 600 b 240 347 314 600 240 489 b 433 94 240 206 314 94 l 443 94 b 635 347 564 94 635 206 b 443 600 635 489 564 600 "},"c":{"ha":833,"x_min":0,"x_max":0,"o":"m 435 -14 b 108 347 238 -14 108 135 b 435 708 108 560 238 708 b 725 463 599 708 711 621 l 593 463 b 440 600 579 544 525 600 l 429 600 b 240 347 299 600 240 483 b 429 94 240 211 299 94 l 440 94 b 593 232 525 94 578 153 l 725 232 b 435 -14 704 75 599 -14 "},"ć":{"ha":833,"x_min":0,"x_max":0,"o":"m 388 779 l 447 972 l 603 972 l 472 779 m 435 -14 b 108 347 238 -14 108 135 b 435 708 108 560 238 708 b 725 463 599 708 711 621 l 593 463 b 440 600 579 544 525 600 l 429 600 b 240 347 299 600 240 483 b 429 94 240 211 299 94 l 440 94 b 593 232 525 94 578 153 l 725 232 b 435 -14 704 75 599 -14 "},"č":{"ha":833,"x_min":0,"x_max":0,"o":"m 510 779 l 357 779 l 199 972 l 294 972 l 433 871 l 572 972 l 668 972 m 440 94 b 593 232 525 94 578 153 l 725 232 b 435 -14 704 75 599 -14 b 108 347 238 -14 108 135 b 435 708 108 560 238 708 b 725 463 599 708 711 621 l 593 463 b 440 600 579 544 525 600 l 429 600 b 240 347 299 600 240 483 b 429 94 240 211 299 94 "},"ç":{"ha":833,"x_min":0,"x_max":0,"o":"m 440 94 b 593 232 525 94 578 153 l 725 232 b 464 -12 706 85 611 -3 l 464 -62 b 586 -183 528 -61 586 -106 b 433 -325 586 -267 528 -325 l 336 -325 l 336 -236 l 438 -236 b 500 -183 474 -236 500 -219 b 440 -132 500 -151 478 -132 l 385 -132 l 385 -11 b 108 347 215 13 108 153 b 435 708 108 560 238 708 b 725 463 599 708 711 621 l 593 463 b 440 600 579 544 525 600 l 429 600 b 240 347 299 600 240 483 b 429 94 240 211 299 94 "},"ĉ":{"ha":833,"x_min":0,"x_max":0,"o":"m 433 881 l 294 779 l 199 779 l 357 972 l 510 972 l 668 779 l 572 779 m 440 94 b 593 232 525 94 578 153 l 725 232 b 435 -14 704 75 599 -14 b 108 347 238 -14 108 135 b 435 708 108 560 238 708 b 725 463 599 708 711 621 l 593 463 b 440 600 579 544 525 600 l 429 600 b 240 347 299 600 240 483 b 429 94 240 211 299 94 "},"ċ":{"ha":833,"x_min":0,"x_max":0,"o":"m 360 803 l 360 954 l 506 954 l 506 803 m 435 -14 b 108 347 238 -14 108 135 b 435 708 108 560 238 708 b 725 463 599 708 711 621 l 593 463 b 440 600 579 544 525 600 l 429 600 b 240 347 299 600 240 483 b 429 94 240 211 299 94 l 440 94 b 593 232 525 94 578 153 l 725 232 b 435 -14 704 75 599 -14 "},"d":{"ha":833,"x_min":0,"x_max":0,"o":"m 719 972 l 719 0 l 588 0 l 588 101 b 371 -14 553 38 464 -14 b 61 347 181 -14 61 142 b 371 708 61 553 181 708 b 588 593 464 708 553 657 l 588 972 m 386 600 b 194 347 264 600 194 489 b 386 94 194 206 264 94 l 394 94 b 588 347 514 94 588 206 b 394 600 588 489 514 600 "},"ð":{"ha":833,"x_min":0,"x_max":0,"o":"m 604 832 b 740 392 694 728 740 571 b 408 -14 740 158 622 -14 b 82 335 208 -14 82 136 b 399 660 82 515 203 660 b 594 582 467 660 539 636 b 506 765 582 656 551 718 l 406 697 l 349 778 l 418 825 b 258 857 374 846 319 857 l 258 972 b 528 900 369 972 458 949 l 635 974 l 693 892 m 415 94 b 611 333 543 94 611 201 b 414 551 611 453 542 551 l 401 551 b 214 335 278 551 214 454 b 407 94 214 203 281 94 "},"ď":{"ha":833,"x_min":0,"x_max":0,"o":"m 308 -14 b 15 347 124 -14 15 142 b 308 708 15 553 124 708 b 508 597 399 708 474 661 l 508 972 l 640 972 l 640 0 l 508 0 l 508 97 b 308 -14 474 33 399 -14 m 703 706 l 703 776 l 715 776 b 781 829 760 776 781 796 l 781 838 l 728 838 l 728 972 l 854 972 l 854 831 b 722 706 854 757 800 706 m 332 94 b 508 347 444 94 508 206 b 332 600 508 489 444 600 l 324 600 b 147 347 208 600 147 489 b 324 94 147 206 208 94 "},"đ":{"ha":833,"x_min":0,"x_max":0,"o":"m 821 881 l 821 786 l 719 786 l 719 0 l 588 0 l 588 101 b 371 -14 553 38 464 -14 b 61 347 181 -14 61 142 b 371 708 61 553 181 708 b 588 593 464 708 553 657 l 588 786 l 400 786 l 400 881 l 588 881 l 588 972 l 719 972 l 719 881 m 394 94 b 588 347 514 94 588 206 b 394 600 588 489 514 600 l 386 600 b 194 347 264 600 194 489 b 386 94 194 206 264 94 "},"e":{"ha":833,"x_min":0,"x_max":0,"o":"m 725 378 b 724 317 725 358 724 338 l 238 317 b 428 94 240 175 324 94 l 436 94 b 592 208 513 94 571 136 l 722 208 b 428 -14 690 71 583 -14 b 108 349 254 -14 108 114 b 429 708 108 575 247 708 b 725 378 617 708 725 565 m 419 600 b 239 421 339 600 254 549 l 596 421 b 431 600 592 517 533 600 "},"é":{"ha":833,"x_min":0,"x_max":0,"o":"m 597 972 l 467 779 l 382 779 l 442 972 m 725 378 b 724 317 725 358 724 338 l 238 317 b 428 94 240 175 324 94 l 436 94 b 592 208 513 94 571 136 l 722 208 b 428 -14 690 71 583 -14 b 108 349 254 -14 108 114 b 429 708 108 575 247 708 b 725 378 617 708 725 565 m 419 600 b 239 421 339 600 254 549 l 596 421 b 431 600 592 517 533 600 "},"ĕ":{"ha":833,"x_min":0,"x_max":0,"o":"m 428 765 b 214 972 306 765 215 842 l 322 972 b 428 864 326 903 367 864 b 533 972 489 864 529 903 l 642 972 b 428 765 640 842 550 765 m 725 378 b 724 317 725 358 724 338 l 238 317 b 428 94 240 175 324 94 l 436 94 b 592 208 513 94 571 136 l 722 208 b 428 -14 690 71 583 -14 b 108 349 254 -14 108 114 b 429 708 108 575 247 708 b 725 378 617 708 725 565 m 419 600 b 239 421 339 600 254 549 l 596 421 b 431 600 592 517 533 600 "},"ě":{"ha":833,"x_min":0,"x_max":0,"o":"m 504 779 l 351 779 l 193 972 l 289 972 l 428 871 l 567 972 l 663 972 m 725 378 b 724 317 725 358 724 338 l 238 317 b 428 94 240 175 324 94 l 436 94 b 592 208 513 94 571 136 l 722 208 b 428 -14 690 71 583 -14 b 108 349 254 -14 108 114 b 429 708 108 575 247 708 b 725 378 617 708 725 565 m 419 600 b 239 421 339 600 254 549 l 596 421 b 431 600 592 517 533 600 "},"ê":{"ha":833,"x_min":0,"x_max":0,"o":"m 428 881 l 289 779 l 193 779 l 351 972 l 504 972 l 663 779 l 567 779 m 725 378 b 724 317 725 358 724 338 l 238 317 b 428 94 240 175 324 94 l 436 94 b 592 208 513 94 571 136 l 722 208 b 428 -14 690 71 583 -14 b 108 349 254 -14 108 114 b 429 708 108 575 247 708 b 725 378 617 708 725 565 m 419 600 b 239 421 339 600 254 549 l 596 421 b 431 600 592 517 533 600 "},"ë":{"ha":833,"x_min":0,"x_max":0,"o":"m 365 947 l 365 803 l 232 803 l 232 947 m 624 947 l 624 803 l 490 803 l 490 947 m 725 378 b 724 317 725 358 724 338 l 238 317 b 428 94 240 175 324 94 l 436 94 b 592 208 513 94 571 136 l 722 208 b 428 -14 690 71 583 -14 b 108 349 254 -14 108 114 b 429 708 108 575 247 708 b 725 378 617 708 725 565 m 419 600 b 239 421 339 600 254 549 l 596 421 b 431 600 592 517 533 600 "},"ė":{"ha":833,"x_min":0,"x_max":0,"o":"m 500 954 l 500 803 l 354 803 l 354 954 m 725 378 b 724 317 725 358 724 338 l 238 317 b 428 94 240 175 324 94 l 436 94 b 592 208 513 94 571 136 l 722 208 b 428 -14 690 71 583 -14 b 108 349 254 -14 108 114 b 429 708 108 575 247 708 b 725 378 617 708 725 565 m 419 600 b 239 421 339 600 254 549 l 596 421 b 431 600 592 517 533 600 "},"è":{"ha":833,"x_min":0,"x_max":0,"o":"m 486 779 l 401 779 l 272 972 l 428 972 m 725 378 b 724 317 725 358 724 338 l 238 317 b 428 94 240 175 324 94 l 436 94 b 592 208 513 94 571 136 l 722 208 b 428 -14 690 71 583 -14 b 108 349 254 -14 108 114 b 429 708 108 575 247 708 b 725 378 617 708 725 565 m 419 600 b 239 421 339 600 254 549 l 596 421 b 431 600 592 517 533 600 "},"ē":{"ha":833,"x_min":0,"x_max":0,"o":"m 635 913 l 635 803 l 235 803 l 235 913 m 725 378 b 724 317 725 358 724 338 l 238 317 b 428 94 240 175 324 94 l 436 94 b 592 208 513 94 571 136 l 722 208 b 428 -14 690 71 583 -14 b 108 349 254 -14 108 114 b 429 708 108 575 247 708 b 725 378 617 708 725 565 m 419 600 b 239 421 339 600 254 549 l 596 421 b 431 600 592 517 533 600 "},"ę":{"ha":833,"x_min":0,"x_max":0,"o":"m 725 378 b 724 317 725 358 724 338 l 238 317 b 428 94 240 175 324 94 l 436 94 b 592 208 513 94 571 136 l 722 208 b 528 0 697 103 629 29 b 413 -132 464 -40 413 -83 b 486 -194 413 -178 450 -194 l 524 -194 l 524 -287 l 474 -287 b 318 -164 375 -287 318 -237 b 414 -14 318 -103 358 -51 b 108 349 246 -7 108 121 b 429 708 108 575 247 708 b 725 378 617 708 725 565 m 419 600 b 239 421 339 600 254 549 l 596 421 b 431 600 592 517 533 600 "},"f":{"ha":833,"x_min":0,"x_max":0,"o":"m 311 0 l 311 586 l 78 586 l 78 694 l 311 694 l 311 822 b 465 972 311 925 363 972 l 742 972 l 742 863 l 508 863 b 443 797 457 863 443 849 l 443 694 l 707 694 l 707 586 l 443 586 l 443 0 "},"g":{"ha":833,"x_min":0,"x_max":0,"o":"m 394 -306 b 74 -87 200 -306 85 -215 l 206 -87 b 394 -196 219 -157 288 -196 l 406 -196 b 601 10 511 -196 601 -135 l 601 113 b 386 0 560 39 482 0 b 86 350 219 0 86 125 b 386 708 86 576 219 708 b 601 596 482 708 560 669 l 601 694 l 733 694 l 733 -4 b 394 -306 733 -168 614 -306 m 417 108 b 601 350 522 108 601 196 b 417 600 601 504 522 600 l 404 600 b 218 350 297 600 218 504 b 404 108 218 196 297 108 "},"ğ":{"ha":833,"x_min":0,"x_max":0,"o":"m 401 765 b 188 972 279 765 189 842 l 296 972 b 401 864 300 903 340 864 b 507 972 463 864 503 903 l 615 972 b 401 765 614 842 524 765 m 394 -306 b 74 -87 200 -306 85 -215 l 206 -87 b 394 -196 219 -157 288 -196 l 406 -196 b 601 10 511 -196 601 -135 l 601 113 b 386 0 560 39 482 0 b 86 350 219 0 86 125 b 386 708 86 576 219 708 b 601 596 482 708 560 669 l 601 694 l 733 694 l 733 -4 b 394 -306 733 -168 614 -306 m 417 108 b 601 350 522 108 601 196 b 417 600 601 504 522 600 l 404 600 b 218 350 297 600 218 504 b 404 108 218 196 297 108 "},"ĝ":{"ha":833,"x_min":0,"x_max":0,"o":"m 401 881 l 263 779 l 167 779 l 325 972 l 478 972 l 636 779 l 540 779 m 601 694 l 733 694 l 733 -4 b 394 -306 733 -168 614 -306 b 74 -87 200 -306 85 -215 l 206 -87 b 394 -196 219 -157 288 -196 l 406 -196 b 601 10 511 -196 601 -135 l 601 113 b 386 0 560 39 482 0 b 86 350 219 0 86 125 b 386 708 86 576 219 708 b 601 596 482 708 560 669 m 417 108 b 601 350 522 108 601 196 b 417 600 601 504 522 600 l 404 600 b 218 350 297 600 218 504 b 404 108 218 196 297 108 "},"ģ":{"ha":833,"x_min":0,"x_max":0,"o":"m 335 803 l 335 950 b 472 1081 335 1028 392 1081 l 499 1081 l 499 1006 l 479 1006 b 411 951 433 1006 411 986 l 411 943 l 467 943 l 467 803 m 394 -306 b 74 -87 200 -306 85 -215 l 206 -87 b 394 -196 219 -157 288 -196 l 406 -196 b 601 10 511 -196 601 -135 l 601 113 b 386 0 560 39 482 0 b 86 350 219 0 86 125 b 386 708 86 576 219 708 b 601 596 482 708 560 669 l 601 694 l 733 694 l 733 -4 b 394 -306 733 -168 614 -306 m 417 108 b 601 350 522 108 601 196 b 417 600 601 504 522 600 l 404 600 b 218 350 297 600 218 504 b 404 108 218 196 297 108 "},"ġ":{"ha":833,"x_min":0,"x_max":0,"o":"m 328 803 l 328 954 l 474 954 l 474 803 m 394 -306 b 74 -87 200 -306 85 -215 l 206 -87 b 394 -196 219 -157 288 -196 l 406 -196 b 601 10 511 -196 601 -135 l 601 113 b 386 0 560 39 482 0 b 86 350 219 0 86 125 b 386 708 86 576 219 708 b 601 596 482 708 560 669 l 601 694 l 733 694 l 733 -4 b 394 -306 733 -168 614 -306 m 417 108 b 601 350 522 108 601 196 b 417 600 601 504 522 600 l 404 600 b 218 350 297 600 218 504 b 404 108 218 196 297 108 "},"h":{"ha":833,"x_min":0,"x_max":0,"o":"m 482 708 b 721 451 643 708 721 601 l 721 0 l 589 0 l 589 428 b 449 600 589 540 540 600 l 436 600 b 251 381 340 600 251 511 l 251 0 l 119 0 l 119 972 l 251 972 l 251 585 b 482 708 296 661 379 708 "},"ħ":{"ha":833,"x_min":0,"x_max":0,"o":"m 482 708 b 721 451 643 708 721 601 l 721 0 l 589 0 l 589 428 b 449 600 589 540 540 600 l 436 600 b 251 381 340 600 251 511 l 251 0 l 119 0 l 119 786 l 6 786 l 6 881 l 119 881 l 119 972 l 251 972 l 251 881 l 426 881 l 426 786 l 251 786 l 251 585 b 482 708 296 661 379 708 "},"ĥ":{"ha":833,"x_min":0,"x_max":0,"o":"m 443 1140 l 324 1050 l 201 1050 l 364 1236 l 522 1236 l 685 1050 l 563 1050 m 482 708 b 721 451 643 708 721 601 l 721 0 l 589 0 l 589 428 b 449 600 589 540 540 600 l 436 600 b 251 381 340 600 251 511 l 251 0 l 119 0 l 119 972 l 251 972 l 251 585 b 482 708 296 661 379 708 "},"i":{"ha":833,"x_min":0,"x_max":0,"o":"m 365 794 l 365 965 l 526 965 l 526 794 m 128 0 l 128 108 l 381 108 l 381 586 l 156 586 l 156 694 l 513 694 l 513 108 l 758 108 l 758 0 "},"ı":{"ha":833,"x_min":0,"x_max":0,"o":"m 758 108 l 758 0 l 128 0 l 128 108 l 381 108 l 381 586 l 156 586 l 156 694 l 513 694 l 513 108 "},"í":{"ha":833,"x_min":0,"x_max":0,"o":"m 615 972 l 485 779 l 400 779 l 460 972 m 758 108 l 758 0 l 128 0 l 128 108 l 381 108 l 381 586 l 156 586 l 156 694 l 513 694 l 513 108 "},"ĭ":{"ha":833,"x_min":0,"x_max":0,"o":"m 446 765 b 232 972 324 765 233 842 l 340 972 b 446 864 344 903 385 864 b 551 972 507 864 547 903 l 660 972 b 446 765 658 842 568 765 m 758 108 l 758 0 l 128 0 l 128 108 l 381 108 l 381 586 l 156 586 l 156 694 l 513 694 l 513 108 "},"î":{"ha":833,"x_min":0,"x_max":0,"o":"m 446 881 l 307 779 l 211 779 l 369 972 l 522 972 l 681 779 l 585 779 m 758 108 l 758 0 l 128 0 l 128 108 l 381 108 l 381 586 l 156 586 l 156 694 l 513 694 l 513 108 "},"ï":{"ha":833,"x_min":0,"x_max":0,"o":"m 383 947 l 383 803 l 250 803 l 250 947 m 642 947 l 642 803 l 508 803 l 508 947 m 758 108 l 758 0 l 128 0 l 128 108 l 381 108 l 381 586 l 156 586 l 156 694 l 513 694 l 513 108 "},"ì":{"ha":833,"x_min":0,"x_max":0,"o":"m 504 779 l 419 779 l 290 972 l 446 972 m 758 108 l 758 0 l 128 0 l 128 108 l 381 108 l 381 586 l 156 586 l 156 694 l 513 694 l 513 108 "},"ĳ":{"ha":833,"x_min":0,"x_max":0,"o":"m 158 803 l 158 954 l 304 954 l 304 803 m 529 803 l 529 954 l 675 954 l 675 803 m 167 -251 l 167 -140 l 471 -140 b 536 -75 519 -140 536 -122 l 536 694 l 668 694 l 668 -104 b 517 -251 668 -204 617 -251 m 167 0 l 167 694 l 299 694 l 299 0 "},"ī":{"ha":833,"x_min":0,"x_max":0,"o":"m 653 913 l 653 803 l 253 803 l 253 913 m 758 108 l 758 0 l 128 0 l 128 108 l 381 108 l 381 586 l 156 586 l 156 694 l 513 694 l 513 108 "},"į":{"ha":833,"x_min":0,"x_max":0,"o":"m 526 965 l 526 794 l 365 794 l 365 965 m 513 108 l 758 108 l 758 0 l 513 0 b 396 -132 447 -40 396 -83 b 469 -194 396 -178 433 -194 l 507 -194 l 507 -287 l 457 -287 b 301 -164 358 -287 301 -237 b 419 0 301 -94 353 -37 l 128 0 l 128 108 l 381 108 l 381 586 l 156 586 l 156 694 l 513 694 "},"ĩ":{"ha":833,"x_min":0,"x_max":0,"o":"m 353 863 b 300 789 319 863 300 835 l 201 789 l 201 822 b 339 968 201 903 261 968 b 440 933 382 968 406 954 l 457 922 b 543 879 489 901 515 879 b 592 954 575 879 592 908 l 690 954 l 690 921 b 554 775 690 839 631 775 b 446 817 517 775 485 790 l 428 826 b 353 863 404 842 382 863 m 758 108 l 758 0 l 128 0 l 128 108 l 381 108 l 381 586 l 156 586 l 156 694 l 513 694 l 513 108 "},"j":{"ha":833,"x_min":0,"x_max":0,"o":"m 418 794 l 418 965 l 579 965 l 579 794 m 121 -251 l 121 -140 l 368 -140 b 433 -75 417 -140 433 -122 l 433 586 l 210 586 l 210 694 l 565 694 l 565 -104 b 414 -251 565 -204 514 -251 "},"ȷ":{"ha":833,"x_min":0,"x_max":0,"o":"m 565 -104 b 414 -251 565 -204 514 -251 l 121 -251 l 121 -140 l 368 -140 b 433 -75 417 -140 433 -122 l 433 586 l 210 586 l 210 694 l 565 694 "},"ĵ":{"ha":833,"x_min":0,"x_max":0,"o":"m 565 972 l 724 779 l 628 779 l 489 881 l 350 779 l 254 779 l 413 972 m 565 694 l 565 -104 b 414 -251 565 -204 514 -251 l 121 -251 l 121 -140 l 368 -140 b 433 -75 417 -140 433 -122 l 433 586 l 210 586 l 210 694 "},"k":{"ha":833,"x_min":0,"x_max":0,"o":"m 600 0 l 374 326 l 274 228 l 274 0 l 142 0 l 142 972 l 274 972 l 274 392 l 576 694 l 746 694 l 467 418 l 760 0 "},"ķ":{"ha":833,"x_min":0,"x_max":0,"o":"m 467 418 l 760 0 l 600 0 l 374 326 l 274 228 l 274 0 l 142 0 l 142 972 l 274 972 l 274 392 l 576 694 l 746 694 m 342 -249 l 342 -108 l 474 -108 l 474 -256 b 336 -386 474 -333 417 -386 l 310 -386 l 310 -311 l 329 -311 b 397 -257 375 -311 397 -292 l 397 -249 "},"l":{"ha":833,"x_min":0,"x_max":0,"o":"m 738 108 l 738 0 l 107 0 l 107 108 l 360 108 l 360 864 l 143 864 l 143 972 l 492 972 l 492 108 "},"ĺ":{"ha":833,"x_min":0,"x_max":0,"o":"m 618 1236 l 489 1050 l 386 1050 l 451 1236 m 738 108 l 738 0 l 107 0 l 107 108 l 360 108 l 360 864 l 143 864 l 143 972 l 492 972 l 492 108 "},"ľ":{"ha":833,"x_min":0,"x_max":0,"o":"m 492 108 l 738 108 l 738 0 l 107 0 l 107 108 l 360 108 l 360 864 l 143 864 l 143 972 l 492 972 m 621 972 l 753 972 l 753 825 b 615 694 753 747 696 694 l 589 694 l 589 769 l 608 769 b 676 824 654 769 676 789 l 676 832 l 621 832 "},"ļ":{"ha":833,"x_min":0,"x_max":0,"o":"m 738 108 l 738 0 l 107 0 l 107 108 l 360 108 l 360 864 l 143 864 l 143 972 l 492 972 l 492 108 m 358 -249 l 358 -108 l 490 -108 l 490 -256 b 353 -386 490 -333 433 -386 l 326 -386 l 326 -311 l 346 -311 b 414 -257 392 -311 414 -292 l 414 -249 "},"ŀ":{"ha":833,"x_min":0,"x_max":0,"o":"m 492 108 l 738 108 l 738 0 l 107 0 l 107 108 l 360 108 l 360 864 l 143 864 l 143 972 l 492 972 m 753 611 l 928 611 l 928 436 l 753 436 "},"ł":{"ha":833,"x_min":0,"x_max":0,"o":"m 513 108 l 758 108 l 758 0 l 128 0 l 128 108 l 381 108 l 381 454 l 267 390 l 267 517 l 381 581 l 381 864 l 164 864 l 164 972 l 513 972 l 513 656 l 629 721 l 629 596 l 513 529 "},"m":{"ha":833,"x_min":0,"x_max":0,"o":"m 604 708 b 756 524 689 708 756 646 l 756 0 l 633 0 l 633 493 b 574 597 633 554 618 597 l 571 597 b 482 447 513 597 482 528 l 482 0 l 358 0 l 358 493 b 299 597 358 554 343 597 l 297 597 b 207 447 238 597 207 528 l 207 0 l 83 0 l 83 694 l 204 694 l 204 625 b 335 708 228 668 269 708 b 461 626 390 708 436 681 b 604 708 490 671 535 708 "},"n":{"ha":833,"x_min":0,"x_max":0,"o":"m 119 0 l 119 694 l 251 694 l 251 585 b 479 708 292 658 376 708 b 721 450 631 708 721 610 l 721 0 l 589 0 l 589 425 b 449 600 589 542 540 600 l 439 600 b 251 365 319 600 251 490 l 251 0 "},"ń":{"ha":833,"x_min":0,"x_max":0,"o":"m 371 779 l 431 972 l 586 972 l 456 779 m 119 0 l 119 694 l 251 694 l 251 585 b 479 708 292 658 376 708 b 721 450 631 708 721 610 l 721 0 l 589 0 l 589 425 b 449 600 589 542 540 600 l 439 600 b 251 365 319 600 251 490 l 251 0 "},"ň":{"ha":833,"x_min":0,"x_max":0,"o":"m 493 779 l 340 779 l 182 972 l 278 972 l 417 871 l 556 972 l 651 972 m 479 708 b 721 450 631 708 721 610 l 721 0 l 589 0 l 589 425 b 449 600 589 542 540 600 l 439 600 b 251 365 319 600 251 490 l 251 0 l 119 0 l 119 694 l 251 694 l 251 585 b 479 708 292 658 376 708 "},"ņ":{"ha":833,"x_min":0,"x_max":0,"o":"m 119 0 l 119 694 l 251 694 l 251 585 b 479 708 292 658 376 708 b 721 450 631 708 721 610 l 721 0 l 589 0 l 589 425 b 449 600 589 542 540 600 l 439 600 b 251 365 319 600 251 490 l 251 0 m 325 -386 l 325 -311 l 344 -311 b 413 -257 390 -311 413 -292 l 413 -249 l 357 -249 l 357 -108 l 489 -108 l 489 -256 b 351 -386 489 -333 432 -386 "},"ŋ":{"ha":833,"x_min":0,"x_max":0,"o":"m 479 708 b 721 450 631 708 721 610 l 721 -106 b 569 -253 721 -206 671 -253 l 425 -253 l 425 -140 l 524 -140 b 589 -75 572 -140 589 -122 l 589 425 b 449 600 589 542 540 600 l 439 600 b 251 365 319 600 251 490 l 251 0 l 119 0 l 119 694 l 251 694 l 251 585 b 479 708 292 658 376 708 "},"ñ":{"ha":833,"x_min":0,"x_max":0,"o":"m 525 775 b 417 817 488 775 456 790 l 399 826 b 324 863 375 842 353 863 b 271 789 290 863 271 835 l 172 789 l 172 822 b 310 968 172 903 232 968 b 411 933 353 968 376 954 l 428 922 b 514 879 460 901 486 879 b 563 954 546 879 563 908 l 661 954 l 661 921 b 525 775 661 839 601 775 m 119 0 l 119 694 l 251 694 l 251 585 b 479 708 292 658 376 708 b 721 450 631 708 721 610 l 721 0 l 589 0 l 589 425 b 449 600 589 542 540 600 l 439 600 b 251 365 319 600 251 490 l 251 0 "},"o":{"ha":833,"x_min":0,"x_max":0,"o":"m 417 -14 b 82 347 222 -14 82 135 b 417 708 82 560 222 708 b 751 347 611 708 751 560 b 417 -14 751 135 611 -14 m 424 94 b 618 347 535 94 618 189 b 424 600 618 506 535 600 l 410 600 b 215 347 299 600 215 506 b 410 94 215 189 299 94 "},"ó":{"ha":833,"x_min":0,"x_max":0,"o":"m 371 779 l 431 972 l 586 972 l 456 779 m 417 -14 b 82 347 222 -14 82 135 b 417 708 82 560 222 708 b 751 347 611 708 751 560 b 417 -14 751 135 611 -14 m 424 94 b 618 347 535 94 618 189 b 424 600 618 506 535 600 l 410 600 b 215 347 299 600 215 506 b 410 94 215 189 299 94 "},"ŏ":{"ha":833,"x_min":0,"x_max":0,"o":"m 417 765 b 203 972 294 765 204 842 l 311 972 b 417 864 315 903 356 864 b 522 972 478 864 518 903 l 631 972 b 417 765 629 842 539 765 m 417 -14 b 82 347 222 -14 82 135 b 417 708 82 560 222 708 b 751 347 611 708 751 560 b 417 -14 751 135 611 -14 m 424 94 b 618 347 535 94 618 189 b 424 600 618 506 535 600 l 410 600 b 215 347 299 600 215 506 b 410 94 215 189 299 94 "},"ô":{"ha":833,"x_min":0,"x_max":0,"o":"m 417 881 l 278 779 l 182 779 l 340 972 l 493 972 l 651 779 l 556 779 m 417 708 b 751 347 611 708 751 560 b 417 -14 751 135 611 -14 b 82 347 222 -14 82 135 b 417 708 82 560 222 708 m 424 94 b 618 347 535 94 618 189 b 424 600 618 506 535 600 l 410 600 b 215 347 299 600 215 506 b 410 94 215 189 299 94 "},"ö":{"ha":833,"x_min":0,"x_max":0,"o":"m 221 803 l 221 947 l 354 947 l 354 803 m 479 803 l 479 947 l 613 947 l 613 803 m 417 -14 b 82 347 222 -14 82 135 b 417 708 82 560 222 708 b 751 347 611 708 751 560 b 417 -14 751 135 611 -14 m 424 94 b 618 347 535 94 618 189 b 424 600 618 506 535 600 l 410 600 b 215 347 299 600 215 506 b 410 94 215 189 299 94 "},"ò":{"ha":833,"x_min":0,"x_max":0,"o":"m 390 779 l 261 972 l 417 972 l 475 779 m 417 -14 b 82 347 222 -14 82 135 b 417 708 82 560 222 708 b 751 347 611 708 751 560 b 417 -14 751 135 611 -14 m 424 94 b 618 347 535 94 618 189 b 424 600 618 506 535 600 l 410 600 b 215 347 299 600 215 506 b 410 94 215 189 299 94 "},"ő":{"ha":833,"x_min":0,"x_max":0,"o":"m 268 779 l 328 972 l 483 972 l 353 779 m 488 779 l 547 972 l 703 972 l 572 779 m 417 -14 b 82 347 222 -14 82 135 b 417 708 82 560 222 708 b 751 347 611 708 751 560 b 417 -14 751 135 611 -14 m 424 94 b 618 347 535 94 618 189 b 424 600 618 506 535 600 l 410 600 b 215 347 299 600 215 506 b 410 94 215 189 299 94 "},"ō":{"ha":833,"x_min":0,"x_max":0,"o":"m 224 803 l 224 913 l 624 913 l 624 803 m 417 -14 b 82 347 222 -14 82 135 b 417 708 82 560 222 708 b 751 347 611 708 751 560 b 417 -14 751 135 611 -14 m 424 94 b 618 347 535 94 618 189 b 424 600 618 506 535 600 l 410 600 b 215 347 299 600 215 506 b 410 94 215 189 299 94 "},"ø":{"ha":833,"x_min":0,"x_max":0,"o":"m 672 589 b 751 347 722 528 751 444 b 417 -14 751 135 611 -14 b 244 32 353 -14 294 3 l 176 -57 l 90 14 l 160 106 b 82 347 111 168 82 251 b 417 708 82 560 222 708 b 588 664 481 708 538 693 l 654 751 l 746 685 m 215 347 b 242 211 215 294 225 249 l 518 574 b 424 600 490 590 458 600 l 410 600 b 215 347 299 600 215 506 m 424 94 b 618 347 535 94 618 189 b 592 485 618 400 608 447 l 314 122 b 410 94 342 104 375 94 "},"ǿ":{"ha":833,"x_min":0,"x_max":0,"o":"m 586 972 l 456 779 l 371 779 l 431 972 m 672 589 b 751 347 722 528 751 444 b 417 -14 751 135 611 -14 b 244 32 353 -14 294 3 l 176 -57 l 90 14 l 160 106 b 82 347 111 168 82 251 b 417 708 82 560 222 708 b 588 664 481 708 538 693 l 654 751 l 746 685 m 215 347 b 242 211 215 294 225 249 l 518 574 b 424 600 490 590 458 600 l 410 600 b 215 347 299 600 215 506 m 424 94 b 618 347 535 94 618 189 b 592 485 618 400 608 447 l 314 122 b 410 94 342 104 375 94 "},"õ":{"ha":833,"x_min":0,"x_max":0,"o":"m 525 775 b 417 817 488 775 456 790 l 399 826 b 324 863 375 842 353 863 b 271 789 290 863 271 835 l 172 789 l 172 822 b 310 968 172 903 232 968 b 411 933 353 968 376 954 l 428 922 b 514 879 460 901 486 879 b 563 954 546 879 563 908 l 661 954 l 661 921 b 525 775 661 839 601 775 m 417 -14 b 82 347 222 -14 82 135 b 417 708 82 560 222 708 b 751 347 611 708 751 560 b 417 -14 751 135 611 -14 m 424 94 b 618 347 535 94 618 189 b 424 600 618 506 535 600 l 410 600 b 215 347 299 600 215 506 b 410 94 215 189 299 94 "},"œ":{"ha":833,"x_min":0,"x_max":0,"o":"m 254 -14 b 8 347 93 -14 8 132 b 254 708 8 563 93 708 b 432 603 349 708 401 663 b 610 708 468 667 528 708 b 825 396 763 708 825 574 l 825 317 l 496 317 b 610 94 496 167 542 94 l 613 94 b 704 208 668 94 699 142 l 824 208 b 618 -14 817 88 754 -14 b 426 92 511 -14 457 35 b 254 -14 392 29 335 -14 m 257 94 b 365 347 328 94 365 178 b 257 600 365 517 329 600 l 254 600 b 138 347 178 600 138 517 b 254 94 138 178 179 94 m 710 417 b 613 600 710 515 681 600 l 610 600 b 497 417 538 600 501 515 "},"p":{"ha":833,"x_min":0,"x_max":0,"o":"m 114 -278 l 114 694 l 246 694 l 246 593 b 463 708 281 657 369 708 b 772 347 653 708 772 553 b 463 -14 772 142 653 -14 b 246 101 369 -14 281 38 l 246 -278 m 447 94 b 639 347 569 94 639 206 b 447 600 639 489 569 600 l 439 600 b 246 347 319 600 246 489 b 439 94 246 206 319 94 "},"þ":{"ha":833,"x_min":0,"x_max":0,"o":"m 463 708 b 772 347 653 708 772 553 b 463 -14 772 142 653 -14 b 246 101 369 -14 281 38 l 246 -278 l 114 -278 l 114 972 l 246 972 l 246 593 b 463 708 281 657 369 708 m 447 94 b 639 347 569 94 639 206 b 447 600 639 489 569 600 l 439 600 b 246 347 319 600 246 489 b 439 94 246 206 319 94 "},"q":{"ha":833,"x_min":0,"x_max":0,"o":"m 593 -278 l 593 101 b 375 -14 557 38 468 -14 b 67 347 185 -14 67 142 b 375 708 67 553 185 708 b 593 593 468 708 557 657 l 593 694 l 725 694 l 725 -278 m 400 94 b 593 347 519 94 593 206 b 400 600 593 489 519 600 l 390 600 b 199 347 269 600 199 489 b 390 94 199 206 269 94 "},"r":{"ha":833,"x_min":0,"x_max":0,"o":"m 204 0 l 204 694 l 332 694 l 332 564 b 556 701 356 644 419 701 l 706 701 l 706 583 l 549 583 b 336 343 407 583 336 493 l 336 0 "},"ŕ":{"ha":833,"x_min":0,"x_max":0,"o":"m 500 779 l 415 779 l 475 972 l 631 972 m 204 0 l 204 694 l 332 694 l 332 564 b 556 701 356 644 419 701 l 706 701 l 706 583 l 549 583 b 336 343 407 583 336 493 l 336 0 "},"ř":{"ha":833,"x_min":0,"x_max":0,"o":"m 385 779 l 226 972 l 322 972 l 461 871 l 600 972 l 696 972 l 538 779 m 204 0 l 204 694 l 332 694 l 332 564 b 556 701 356 644 419 701 l 706 701 l 706 583 l 549 583 b 336 343 407 583 336 493 l 336 0 "},"ŗ":{"ha":833,"x_min":0,"x_max":0,"o":"m 204 0 l 204 694 l 332 694 l 332 564 b 556 701 356 644 419 701 l 706 701 l 706 583 l 549 583 b 336 343 407 583 336 493 l 336 0 m 174 -386 l 174 -311 l 193 -311 b 261 -257 239 -311 261 -292 l 261 -249 l 206 -249 l 206 -108 l 338 -108 l 338 -256 b 200 -386 338 -333 281 -386 "},"s":{"ha":833,"x_min":0,"x_max":0,"o":"m 421 -14 b 133 218 238 -14 136 79 l 267 218 b 417 92 272 138 333 92 l 429 92 b 557 190 508 92 557 129 b 458 279 557 236 532 264 l 363 301 b 161 500 238 329 161 385 b 424 708 161 628 274 708 b 696 476 603 708 692 608 l 564 476 b 428 603 556 549 507 603 l 415 603 b 293 504 340 603 293 560 b 401 415 293 460 328 432 l 503 392 b 689 197 618 365 688 311 b 421 -14 689 71 589 -14 "},"ś":{"ha":833,"x_min":0,"x_max":0,"o":"m 457 779 l 372 779 l 432 972 l 588 972 m 421 -14 b 133 218 238 -14 136 79 l 267 218 b 417 92 272 138 333 92 l 429 92 b 557 190 508 92 557 129 b 458 279 557 236 532 264 l 363 301 b 161 500 238 329 161 385 b 424 708 161 628 274 708 b 696 476 603 708 692 608 l 564 476 b 428 603 556 549 507 603 l 415 603 b 293 504 340 603 293 560 b 401 415 293 460 328 432 l 503 392 b 689 197 618 365 688 311 b 421 -14 689 71 589 -14 "},"š":{"ha":833,"x_min":0,"x_max":0,"o":"m 342 779 l 183 972 l 279 972 l 418 871 l 557 972 l 653 972 l 494 779 m 421 -14 b 133 218 238 -14 136 79 l 267 218 b 417 92 272 138 333 92 l 429 92 b 557 190 508 92 557 129 b 458 279 557 236 532 264 l 363 301 b 161 500 238 329 161 385 b 424 708 161 628 274 708 b 696 476 603 708 692 608 l 564 476 b 428 603 556 549 507 603 l 415 603 b 293 504 340 603 293 560 b 401 415 293 460 328 432 l 503 392 b 689 197 618 365 688 311 b 421 -14 689 71 589 -14 "},"ş":{"ha":833,"x_min":0,"x_max":0,"o":"m 503 392 b 689 197 618 365 688 311 b 444 -14 689 76 599 -6 l 444 -62 b 567 -183 508 -61 567 -106 b 414 -325 567 -267 508 -325 l 317 -325 l 317 -236 l 418 -236 b 481 -183 454 -236 481 -219 b 421 -132 481 -151 458 -132 l 365 -132 l 365 -11 b 133 218 217 7 136 94 l 267 218 b 417 92 272 138 333 92 l 429 92 b 557 190 508 92 557 129 b 458 279 557 236 532 264 l 363 301 b 161 500 238 329 161 385 b 424 708 161 628 274 708 b 696 476 603 708 692 608 l 564 476 b 428 603 556 549 507 603 l 415 603 b 293 504 340 603 293 560 b 401 415 293 460 328 432 "},"ŝ":{"ha":833,"x_min":0,"x_max":0,"o":"m 494 972 l 653 779 l 557 779 l 418 881 l 279 779 l 183 779 l 342 972 m 421 -14 b 133 218 238 -14 136 79 l 267 218 b 417 92 272 138 333 92 l 429 92 b 557 190 508 92 557 129 b 458 279 557 236 532 264 l 363 301 b 161 500 238 329 161 385 b 424 708 161 628 274 708 b 696 476 603 708 692 608 l 564 476 b 428 603 556 549 507 603 l 415 603 b 293 504 340 603 293 560 b 401 415 293 460 328 432 l 503 392 b 689 197 618 365 688 311 b 421 -14 689 71 589 -14 "},"ș":{"ha":833,"x_min":0,"x_max":0,"o":"m 421 -14 b 133 218 238 -14 136 79 l 267 218 b 417 92 272 138 333 92 l 429 92 b 557 190 508 92 557 129 b 458 279 557 236 532 264 l 363 301 b 161 500 238 329 161 385 b 424 708 161 628 274 708 b 696 476 603 708 692 608 l 564 476 b 428 603 556 549 507 603 l 415 603 b 293 504 340 603 293 560 b 401 415 293 460 328 432 l 503 392 b 689 197 618 365 688 311 b 421 -14 689 71 589 -14 m 310 -386 l 310 -311 l 329 -311 b 397 -257 375 -311 397 -292 l 397 -249 l 342 -249 l 342 -108 l 474 -108 l 474 -256 b 336 -386 474 -333 417 -386 "},"ß":{"ha":833,"x_min":0,"x_max":0,"o":"m 142 -257 l 142 699 b 426 986 142 885 247 986 b 701 738 589 986 701 879 b 551 515 701 615 629 543 b 736 279 640 500 736 415 b 432 0 736 96 614 0 l 358 0 l 358 113 l 418 113 b 604 289 547 113 604 183 b 414 456 604 400 519 456 l 358 456 l 358 564 l 407 564 b 572 724 510 564 572 639 b 432 878 572 814 515 878 l 421 878 b 274 689 343 878 274 826 l 274 -257 "},"t":{"ha":833,"x_min":0,"x_max":0,"o":"m 465 0 b 311 150 363 0 311 47 l 311 586 l 86 586 l 86 694 l 311 694 l 311 919 l 443 919 l 443 694 l 697 694 l 697 586 l 443 586 l 443 176 b 508 111 443 125 457 111 l 728 111 l 728 0 "},"ŧ":{"ha":833,"x_min":0,"x_max":0,"o":"m 735 111 l 735 0 l 472 0 b 318 150 369 0 318 47 l 318 336 l 115 336 l 115 444 l 318 444 l 318 586 l 93 586 l 93 694 l 318 694 l 318 919 l 450 919 l 450 694 l 704 694 l 704 586 l 450 586 l 450 444 l 694 444 l 694 336 l 450 336 l 450 176 b 515 111 450 125 464 111 "},"ť":{"ha":833,"x_min":0,"x_max":0,"o":"m 514 733 l 514 797 l 532 797 b 592 844 572 797 592 814 l 592 851 l 543 851 l 543 972 l 658 972 l 658 846 b 538 733 658 778 608 733 m 465 0 b 311 150 363 0 311 47 l 311 586 l 86 586 l 86 694 l 311 694 l 311 919 l 443 919 l 443 694 l 697 694 l 697 586 l 443 586 l 443 176 b 508 111 443 125 457 111 l 728 111 l 728 0 "},"ţ":{"ha":833,"x_min":0,"x_max":0,"o":"m 728 0 l 518 0 l 518 -60 b 640 -181 582 -58 640 -103 b 488 -322 640 -264 582 -322 l 390 -322 l 390 -233 l 492 -233 b 554 -181 528 -233 554 -217 b 494 -129 554 -149 532 -129 l 439 -129 l 439 1 b 311 150 354 8 311 57 l 311 586 l 86 586 l 86 694 l 311 694 l 311 919 l 443 919 l 443 694 l 697 694 l 697 586 l 443 586 l 443 176 b 508 111 443 125 457 111 l 728 111 "},"ț":{"ha":833,"x_min":0,"x_max":0,"o":"m 465 0 b 311 150 363 0 311 47 l 311 586 l 86 586 l 86 694 l 311 694 l 311 919 l 443 919 l 443 694 l 697 694 l 697 586 l 443 586 l 443 176 b 508 111 443 125 457 111 l 728 111 l 728 0 m 383 -383 l 383 -308 l 403 -308 b 471 -254 449 -308 471 -289 l 471 -246 l 415 -246 l 415 -106 l 547 -106 l 547 -253 b 410 -383 547 -331 490 -383 "},"u":{"ha":833,"x_min":0,"x_max":0,"o":"m 575 694 l 707 694 l 707 0 l 575 0 l 575 117 b 357 -14 536 36 458 -14 b 119 243 199 -14 119 93 l 119 694 l 251 694 l 251 267 b 389 94 251 154 299 94 l 401 94 b 575 314 492 94 575 183 "},"ú":{"ha":833,"x_min":0,"x_max":0,"o":"m 586 972 l 456 779 l 371 779 l 431 972 m 575 694 l 707 694 l 707 0 l 575 0 l 575 117 b 357 -14 536 36 458 -14 b 119 243 199 -14 119 93 l 119 694 l 251 694 l 251 267 b 389 94 251 154 299 94 l 401 94 b 575 314 492 94 575 183 "},"ŭ":{"ha":833,"x_min":0,"x_max":0,"o":"m 417 765 b 203 972 294 765 204 842 l 311 972 b 417 864 315 903 356 864 b 522 972 478 864 518 903 l 631 972 b 417 765 629 842 539 765 m 575 694 l 707 694 l 707 0 l 575 0 l 575 117 b 357 -14 536 36 458 -14 b 119 243 199 -14 119 93 l 119 694 l 251 694 l 251 267 b 389 94 251 154 299 94 l 401 94 b 575 314 492 94 575 183 "},"û":{"ha":833,"x_min":0,"x_max":0,"o":"m 417 881 l 278 779 l 182 779 l 340 972 l 493 972 l 651 779 l 556 779 m 575 694 l 707 694 l 707 0 l 575 0 l 575 117 b 357 -14 536 36 458 -14 b 119 243 199 -14 119 93 l 119 694 l 251 694 l 251 267 b 389 94 251 154 299 94 l 401 94 b 575 314 492 94 575 183 "},"ü":{"ha":833,"x_min":0,"x_max":0,"o":"m 354 947 l 354 803 l 221 803 l 221 947 m 613 947 l 613 803 l 479 803 l 479 947 m 575 694 l 707 694 l 707 0 l 575 0 l 575 117 b 357 -14 536 36 458 -14 b 119 243 199 -14 119 93 l 119 694 l 251 694 l 251 267 b 389 94 251 154 299 94 l 401 94 b 575 314 492 94 575 183 "},"ù":{"ha":833,"x_min":0,"x_max":0,"o":"m 475 779 l 390 779 l 261 972 l 417 972 m 575 694 l 707 694 l 707 0 l 575 0 l 575 117 b 357 -14 536 36 458 -14 b 119 243 199 -14 119 93 l 119 694 l 251 694 l 251 267 b 389 94 251 154 299 94 l 401 94 b 575 314 492 94 575 183 "},"ű":{"ha":833,"x_min":0,"x_max":0,"o":"m 483 972 l 353 779 l 268 779 l 328 972 m 703 972 l 572 779 l 488 779 l 547 972 m 575 694 l 707 694 l 707 0 l 575 0 l 575 117 b 357 -14 536 36 458 -14 b 119 243 199 -14 119 93 l 119 694 l 251 694 l 251 267 b 389 94 251 154 299 94 l 401 94 b 575 314 492 94 575 183 "},"ū":{"ha":833,"x_min":0,"x_max":0,"o":"m 624 913 l 624 803 l 224 803 l 224 913 m 575 694 l 707 694 l 707 0 l 575 0 l 575 117 b 357 -14 536 36 458 -14 b 119 243 199 -14 119 93 l 119 694 l 251 694 l 251 267 b 389 94 251 154 299 94 l 401 94 b 575 314 492 94 575 183 "},"ų":{"ha":833,"x_min":0,"x_max":0,"o":"m 707 0 b 590 -132 642 -40 590 -83 b 664 -194 590 -178 628 -194 l 701 -194 l 701 -287 l 651 -287 b 496 -164 553 -287 496 -237 b 614 0 496 -94 547 -37 l 575 0 l 575 117 b 357 -14 536 36 458 -14 b 119 243 199 -14 119 93 l 119 694 l 251 694 l 251 267 b 389 94 251 154 299 94 l 401 94 b 575 314 492 94 575 183 l 575 694 l 707 694 "},"ů":{"ha":833,"x_min":0,"x_max":0,"o":"m 417 768 b 286 899 349 768 286 824 b 417 1029 286 971 349 1029 b 547 899 488 1029 547 971 b 417 768 547 824 488 768 m 418 960 b 357 899 385 960 357 932 b 418 838 357 865 385 838 b 478 899 451 838 478 865 b 418 960 478 932 451 960 m 575 694 l 707 694 l 707 0 l 575 0 l 575 117 b 357 -14 536 36 458 -14 b 119 243 199 -14 119 93 l 119 694 l 251 694 l 251 267 b 389 94 251 154 299 94 l 401 94 b 575 314 492 94 575 183 "},"ũ":{"ha":833,"x_min":0,"x_max":0,"o":"m 324 863 b 271 789 290 863 271 835 l 172 789 l 172 822 b 310 968 172 903 232 968 b 411 933 353 968 376 954 l 428 922 b 514 879 460 901 486 879 b 563 954 546 879 563 908 l 661 954 l 661 921 b 525 775 661 839 601 775 b 417 817 488 775 456 790 l 399 826 b 324 863 375 842 353 863 m 575 694 l 707 694 l 707 0 l 575 0 l 575 117 b 357 -14 536 36 458 -14 b 119 243 199 -14 119 93 l 119 694 l 251 694 l 251 267 b 389 94 251 154 299 94 l 401 94 b 575 314 492 94 575 183 "},"v":{"ha":833,"x_min":0,"x_max":0,"o":"m 625 694 l 763 694 l 507 0 l 326 0 l 72 694 l 213 694 l 419 106 "},"w":{"ha":833,"x_min":0,"x_max":0,"o":"m 654 694 l 775 694 l 665 0 l 521 0 l 418 421 l 314 0 l 169 0 l 60 694 l 182 694 l 254 147 l 349 539 l 486 539 l 581 146 "},"ẃ":{"ha":833,"x_min":0,"x_max":0,"o":"m 586 972 l 456 779 l 371 779 l 431 972 m 654 694 l 775 694 l 665 0 l 521 0 l 418 421 l 314 0 l 169 0 l 60 694 l 182 694 l 254 147 l 349 539 l 486 539 l 581 146 "},"ŵ":{"ha":833,"x_min":0,"x_max":0,"o":"m 417 881 l 278 779 l 182 779 l 340 972 l 493 972 l 651 779 l 556 779 m 654 694 l 775 694 l 665 0 l 521 0 l 418 421 l 314 0 l 169 0 l 60 694 l 182 694 l 254 147 l 349 539 l 486 539 l 581 146 "},"ẅ":{"ha":833,"x_min":0,"x_max":0,"o":"m 354 947 l 354 803 l 221 803 l 221 947 m 613 947 l 613 803 l 479 803 l 479 947 m 654 694 l 775 694 l 665 0 l 521 0 l 418 421 l 314 0 l 169 0 l 60 694 l 182 694 l 254 147 l 349 539 l 486 539 l 581 146 "},"ẁ":{"ha":833,"x_min":0,"x_max":0,"o":"m 475 779 l 390 779 l 261 972 l 417 972 m 654 694 l 775 694 l 665 0 l 521 0 l 418 421 l 314 0 l 169 0 l 60 694 l 182 694 l 254 147 l 349 539 l 486 539 l 581 146 "},"x":{"ha":833,"x_min":0,"x_max":0,"o":"m 751 0 l 601 0 l 415 253 l 228 0 l 83 0 l 343 351 l 92 694 l 242 694 l 418 453 l 597 694 l 743 694 l 492 354 "},"y":{"ha":833,"x_min":0,"x_max":0,"o":"m 775 694 l 485 42 l 485 -104 b 331 -253 485 -204 433 -253 l 100 -253 l 100 -140 l 292 -140 b 357 -75 343 -140 357 -126 l 357 36 l 60 694 l 207 694 l 419 197 l 631 694 "},"ý":{"ha":833,"x_min":0,"x_max":0,"o":"m 593 972 l 463 779 l 378 779 l 438 972 m 775 694 l 485 42 l 485 -104 b 331 -253 485 -204 433 -253 l 100 -253 l 100 -140 l 292 -140 b 357 -75 343 -140 357 -126 l 357 36 l 60 694 l 207 694 l 419 197 l 631 694 "},"ŷ":{"ha":833,"x_min":0,"x_max":0,"o":"m 424 881 l 285 779 l 189 779 l 347 972 l 500 972 l 658 779 l 563 779 m 775 694 l 485 42 l 485 -104 b 331 -253 485 -204 433 -253 l 100 -253 l 100 -140 l 292 -140 b 357 -75 343 -140 357 -126 l 357 36 l 60 694 l 207 694 l 419 197 l 631 694 "},"ÿ":{"ha":833,"x_min":0,"x_max":0,"o":"m 361 947 l 361 803 l 228 803 l 228 947 m 619 947 l 619 803 l 486 803 l 486 947 m 775 694 l 485 42 l 485 -104 b 331 -253 485 -204 433 -253 l 100 -253 l 100 -140 l 292 -140 b 357 -75 343 -140 357 -126 l 357 36 l 60 694 l 207 694 l 419 197 l 631 694 "},"ỳ":{"ha":833,"x_min":0,"x_max":0,"o":"m 482 779 l 397 779 l 268 972 l 424 972 m 775 694 l 485 42 l 485 -104 b 331 -253 485 -204 433 -253 l 100 -253 l 100 -140 l 292 -140 b 357 -75 343 -140 357 -126 l 357 36 l 60 694 l 207 694 l 419 197 l 631 694 "},"ȳ":{"ha":833,"x_min":0,"x_max":0,"o":"m 631 913 l 631 803 l 231 803 l 231 913 m 775 694 l 485 42 l 485 -104 b 331 -253 485 -204 433 -253 l 100 -253 l 100 -140 l 292 -140 b 357 -75 343 -140 357 -126 l 357 36 l 60 694 l 207 694 l 419 197 l 631 694 "},"z":{"ha":833,"x_min":0,"x_max":0,"o":"m 286 115 l 706 115 l 706 0 l 132 0 l 132 110 l 529 579 l 139 579 l 139 694 l 685 694 l 685 586 "},"ź":{"ha":833,"x_min":0,"x_max":0,"o":"m 581 972 l 450 779 l 365 779 l 425 972 m 286 115 l 706 115 l 706 0 l 132 0 l 132 110 l 529 579 l 139 579 l 139 694 l 685 694 l 685 586 "},"ž":{"ha":833,"x_min":0,"x_max":0,"o":"m 488 779 l 335 779 l 176 972 l 272 972 l 411 871 l 550 972 l 646 972 m 286 115 l 706 115 l 706 0 l 132 0 l 132 110 l 529 579 l 139 579 l 139 694 l 685 694 l 685 586 "},"ż":{"ha":833,"x_min":0,"x_max":0,"o":"m 483 954 l 483 803 l 338 803 l 338 954 m 286 115 l 706 115 l 706 0 l 132 0 l 132 110 l 529 579 l 139 579 l 139 694 l 685 694 l 685 586 "},"ﬁ":{"ha":1667,"x_min":0,"x_max":0,"o":"m 360 0 l 360 586 l 78 586 l 78 694 l 360 694 l 360 822 b 514 972 360 925 411 972 l 888 972 l 888 863 l 556 863 b 492 797 506 863 492 849 l 492 694 l 1335 694 l 1335 108 l 1583 108 l 1583 0 l 953 0 l 953 108 l 1207 108 l 1207 586 l 492 586 l 492 0 m 1193 803 l 1193 965 l 1347 965 l 1347 803 "},"ﬂ":{"ha":1667,"x_min":0,"x_max":0,"o":"m 363 0 l 363 586 l 78 586 l 78 694 l 363 694 l 363 822 b 517 972 363 925 414 972 l 1321 972 l 1321 108 l 1571 108 l 1571 0 l 940 0 l 940 108 l 1193 108 l 1193 863 l 556 863 b 492 797 506 863 492 849 l 492 694 l 906 694 l 906 586 l 492 586 l 492 0 "},"ª":{"ha":833,"x_min":0,"x_max":0,"o":"m 364 569 b 240 689 294 569 240 615 b 375 813 240 768 301 803 l 483 825 l 483 838 b 421 900 483 875 457 900 l 415 900 b 351 847 385 900 353 883 l 250 847 b 421 979 254 931 324 979 b 586 839 514 979 586 925 l 586 663 b 592 576 586 636 588 606 l 497 576 b 490 638 493 593 492 615 b 364 569 467 592 421 569 m 400 646 b 485 729 444 646 485 674 l 485 760 l 394 747 b 343 693 367 743 343 725 b 394 646 343 661 365 646 "},"º":{"ha":833,"x_min":0,"x_max":0,"o":"m 417 569 b 219 774 296 569 219 653 b 417 979 219 894 296 979 b 614 774 538 979 614 894 b 417 569 614 653 538 569 m 418 654 b 506 774 476 654 506 704 b 417 894 506 847 474 894 b 328 774 358 894 328 844 b 418 654 328 701 361 654 "},"Δ":{"ha":833,"x_min":0,"x_max":0,"o":"m 63 0 l 63 110 l 332 972 l 507 972 l 771 110 l 771 0 m 206 125 l 625 125 l 415 828 "},"Ω":{"ha":833,"x_min":0,"x_max":0,"o":"m 32 0 l 32 121 l 199 121 b 51 507 149 169 51 283 b 417 986 51 796 183 986 b 782 507 650 986 782 796 b 635 121 782 283 685 169 l 801 121 l 801 0 l 475 0 l 475 111 b 644 494 540 157 644 278 b 419 861 644 724 561 861 l 414 861 b 189 494 272 861 189 724 b 358 111 189 278 293 157 l 358 0 "},"μ":{"ha":833,"x_min":0,"x_max":0,"o":"m 582 694 l 714 694 l 714 0 l 582 0 l 582 117 b 364 -14 543 36 465 -14 b 258 6 324 -14 289 -7 l 258 -278 l 126 -278 l 126 694 l 258 694 l 258 267 b 396 94 258 154 306 94 l 408 94 b 582 314 499 94 582 183 "},"π":{"ha":833,"x_min":0,"x_max":0,"o":"m 178 0 l 178 585 l 32 585 l 32 694 l 783 694 l 783 585 l 643 585 l 643 174 b 703 110 643 129 661 110 l 783 110 l 783 0 l 657 0 b 511 146 560 0 511 49 l 511 585 l 310 585 l 310 0 "},"⓿":{"ha":833,"x_min":0,"x_max":0,"o":"m 417 69 b 0 486 188 69 0 257 b 417 903 0 715 188 903 b 833 486 646 903 833 715 b 417 69 833 257 646 69 m 415 278 b 596 489 538 278 596 375 b 415 700 596 603 538 700 b 236 489 294 700 236 603 b 415 278 236 375 294 278 m 414 363 b 336 489 363 363 336 418 b 414 614 336 561 363 614 l 418 614 b 496 489 469 614 496 561 b 418 363 496 418 469 363 "},"❶":{"ha":833,"x_min":0,"x_max":0,"o":"m 417 69 b 0 486 188 69 0 257 b 417 903 0 715 188 903 b 833 486 646 903 833 715 b 417 69 833 257 646 69 m 385 283 l 482 283 l 482 694 l 401 694 l 269 583 l 269 469 l 385 565 "},"❷":{"ha":833,"x_min":0,"x_max":0,"o":"m 417 69 b 0 486 188 69 0 257 b 417 903 0 715 188 903 b 833 486 646 903 833 715 b 417 69 833 257 646 69 m 267 283 l 569 283 l 569 369 l 390 369 l 490 457 b 567 581 529 492 567 525 b 422 700 567 644 508 700 b 265 567 336 700 269 649 l 364 567 b 414 617 365 597 386 617 l 418 617 b 467 575 447 617 465 600 b 414 504 467 549 436 524 l 267 371 "},"❸":{"ha":833,"x_min":0,"x_max":0,"o":"m 417 69 b 0 486 188 69 0 257 b 417 903 0 715 188 903 b 833 486 646 903 833 715 b 417 69 833 257 646 69 m 413 278 b 572 393 499 278 572 317 b 507 492 572 440 543 474 b 568 583 547 507 568 542 b 418 700 568 658 501 700 b 267 579 336 700 267 658 l 365 579 b 414 618 368 603 388 618 l 418 618 b 469 575 449 618 469 600 b 421 531 469 549 450 531 l 382 531 l 382 450 l 421 450 b 472 406 451 450 472 433 b 415 358 472 376 447 358 l 411 358 b 360 400 383 358 361 375 l 260 400 b 413 278 260 321 332 278 "},"❹":{"ha":833,"x_min":0,"x_max":0,"o":"m 417 69 b 0 486 188 69 0 257 b 417 903 0 715 188 903 b 833 486 646 903 833 715 b 417 69 833 257 646 69 m 429 283 l 521 283 l 521 357 l 578 357 l 578 438 l 521 438 l 521 694 l 414 694 l 229 453 l 229 357 l 429 357 m 317 438 l 429 588 l 429 438 "},"❺":{"ha":833,"x_min":0,"x_max":0,"o":"m 417 69 b 0 486 188 69 0 257 b 417 903 0 715 188 903 b 833 486 646 903 833 715 b 417 69 833 257 646 69 m 413 278 b 574 422 504 278 574 333 b 450 550 574 503 513 550 b 371 524 418 550 390 540 l 389 613 l 569 613 l 569 694 l 317 694 l 271 449 l 369 449 b 417 469 378 457 394 469 l 421 469 b 476 417 451 469 476 450 b 418 360 476 385 451 360 l 414 360 b 357 403 385 360 361 375 l 253 403 b 413 278 261 325 329 278 "},"❻":{"ha":833,"x_min":0,"x_max":0,"o":"m 417 69 b 0 486 188 69 0 257 b 417 903 0 715 188 903 b 833 486 646 903 833 715 b 417 69 833 257 646 69 m 418 278 b 576 421 515 278 576 342 b 442 554 576 501 518 554 b 342 507 397 554 361 535 b 432 617 349 569 385 617 l 436 617 b 486 579 463 617 482 603 l 582 579 b 442 700 581 644 532 700 b 250 472 328 700 250 614 b 418 278 250 351 317 278 m 415 361 b 357 418 383 361 357 385 b 417 474 357 450 385 474 l 419 474 b 478 418 454 474 478 450 b 418 361 478 385 453 361 "},"❼":{"ha":833,"x_min":0,"x_max":0,"o":"m 417 69 b 0 486 188 69 0 257 b 417 903 0 715 188 903 b 833 486 646 903 833 715 b 417 69 833 257 646 69 m 335 283 l 438 283 l 438 310 b 569 617 438 444 496 547 l 569 694 l 267 694 l 267 610 l 464 610 b 335 306 394 543 335 446 "},"❽":{"ha":833,"x_min":0,"x_max":0,"o":"m 417 69 b 0 486 188 69 0 257 b 417 903 0 715 188 903 b 833 486 646 903 833 715 b 417 69 833 257 646 69 m 415 278 b 567 390 500 278 567 321 b 496 485 567 435 539 471 b 574 586 540 504 574 535 b 415 700 574 656 504 700 b 258 586 328 700 258 656 b 339 485 258 535 293 503 b 264 390 294 471 264 436 b 415 278 264 321 331 278 m 414 529 b 353 575 383 529 353 544 b 414 618 353 604 382 618 l 418 618 b 478 575 450 618 478 604 b 418 529 478 544 449 529 m 414 360 b 361 403 386 360 361 375 b 414 449 361 431 386 449 l 418 449 b 471 403 446 449 471 431 b 418 360 471 375 446 360 "},"❾":{"ha":833,"x_min":0,"x_max":0,"o":"m 417 69 b 0 486 188 69 0 257 b 417 903 0 715 188 903 b 833 486 646 903 833 715 b 417 69 833 257 646 69 m 392 276 b 583 504 506 276 583 363 b 415 699 583 625 518 699 b 258 556 319 699 258 635 b 392 422 258 475 317 422 b 492 469 436 422 472 442 b 403 358 486 407 449 358 l 397 358 b 347 397 372 358 353 374 l 251 397 b 392 276 253 332 301 276 m 414 503 b 356 558 381 503 356 526 b 415 615 356 592 382 615 l 419 615 b 478 558 451 615 478 592 b 418 503 478 526 450 503 "},"⓪":{"ha":833,"x_min":0,"x_max":0,"o":"m 417 69 b 0 486 188 69 0 257 b 417 903 0 715 188 903 b 833 486 646 903 833 715 b 417 69 833 257 646 69 m 417 154 b 746 486 601 154 746 304 b 417 819 746 669 601 819 b 88 486 232 819 88 669 b 417 154 88 304 232 154 m 415 278 b 236 489 294 278 236 375 b 415 700 236 603 294 700 b 596 489 538 700 596 603 b 415 278 596 375 538 278 m 418 363 b 496 489 469 363 496 418 b 418 614 496 561 469 614 l 414 614 b 336 489 363 614 336 561 b 414 363 336 418 363 363 "},"①":{"ha":833,"x_min":0,"x_max":0,"o":"m 417 69 b 0 486 188 69 0 257 b 417 903 0 715 188 903 b 833 486 646 903 833 715 b 417 69 833 257 646 69 m 417 154 b 746 486 601 154 746 304 b 417 819 746 669 601 819 b 88 486 232 819 88 669 b 417 154 88 304 232 154 m 394 283 l 394 565 l 279 469 l 279 583 l 411 694 l 492 694 l 492 283 "},"②":{"ha":833,"x_min":0,"x_max":0,"o":"m 417 69 b 0 486 188 69 0 257 b 417 903 0 715 188 903 b 833 486 646 903 833 715 b 417 69 833 257 646 69 m 417 154 b 746 486 601 154 746 304 b 417 819 746 669 601 819 b 88 486 232 819 88 669 b 417 154 88 304 232 154 m 267 283 l 267 371 l 414 504 b 467 575 436 524 467 549 b 418 617 465 600 447 617 l 414 617 b 364 567 386 617 365 597 l 265 567 b 422 700 269 649 336 700 b 567 581 508 700 567 644 b 490 457 567 525 529 492 l 390 369 l 569 369 l 569 283 "},"③":{"ha":833,"x_min":0,"x_max":0,"o":"m 417 69 b 0 486 188 69 0 257 b 417 903 0 715 188 903 b 833 486 646 903 833 715 b 417 69 833 257 646 69 m 417 154 b 746 486 601 154 746 304 b 417 819 746 669 601 819 b 88 486 232 819 88 669 b 417 154 88 304 232 154 m 413 278 b 260 400 332 278 260 321 l 360 400 b 411 358 361 375 383 358 l 415 358 b 472 406 447 358 472 376 b 421 450 472 433 451 450 l 382 450 l 382 531 l 421 531 b 469 575 450 531 469 549 b 418 618 469 600 449 618 l 414 618 b 365 579 388 618 368 603 l 267 579 b 418 700 267 658 336 700 b 568 583 501 700 568 658 b 507 492 568 542 547 507 b 572 393 543 474 572 440 b 413 278 572 317 499 278 "},"④":{"ha":833,"x_min":0,"x_max":0,"o":"m 417 69 b 0 486 188 69 0 257 b 417 903 0 715 188 903 b 833 486 646 903 833 715 b 417 69 833 257 646 69 m 417 154 b 746 486 601 154 746 304 b 417 819 746 669 601 819 b 88 486 232 819 88 669 b 417 154 88 304 232 154 m 429 283 l 429 357 l 229 357 l 229 453 l 414 694 l 521 694 l 521 438 l 578 438 l 578 357 l 521 357 l 521 283 m 317 438 l 429 438 l 429 588 "},"⑤":{"ha":833,"x_min":0,"x_max":0,"o":"m 417 69 b 0 486 188 69 0 257 b 417 903 0 715 188 903 b 833 486 646 903 833 715 b 417 69 833 257 646 69 m 417 154 b 746 486 601 154 746 304 b 417 819 746 669 601 819 b 88 486 232 819 88 669 b 417 154 88 304 232 154 m 406 278 b 246 403 322 278 254 325 l 350 403 b 407 360 354 375 378 360 l 411 360 b 469 417 444 360 469 385 b 414 469 469 450 444 469 l 410 469 b 363 449 388 469 371 457 l 264 449 l 310 694 l 563 694 l 563 613 l 382 613 l 364 524 b 443 550 383 540 411 550 b 567 422 506 550 567 503 b 406 278 567 333 497 278 "},"⑥":{"ha":833,"x_min":0,"x_max":0,"o":"m 417 69 b 0 486 188 69 0 257 b 417 903 0 715 188 903 b 833 486 646 903 833 715 b 417 69 833 257 646 69 m 417 154 b 746 486 601 154 746 304 b 417 819 746 669 601 819 b 88 486 232 819 88 669 b 417 154 88 304 232 154 m 414 278 b 246 472 313 278 246 351 b 438 700 246 614 324 700 b 578 579 528 700 576 644 l 482 579 b 432 617 478 603 458 617 l 428 617 b 338 507 381 617 344 569 b 438 554 357 535 393 554 b 572 421 514 554 572 501 b 414 278 572 342 511 278 m 414 361 b 474 418 449 361 474 385 b 415 474 474 450 450 474 l 413 474 b 353 418 381 474 353 450 b 411 361 353 385 379 361 "},"⑦":{"ha":833,"x_min":0,"x_max":0,"o":"m 417 69 b 0 486 188 69 0 257 b 417 903 0 715 188 903 b 833 486 646 903 833 715 b 417 69 833 257 646 69 m 417 154 b 746 486 601 154 746 304 b 417 819 746 669 601 819 b 88 486 232 819 88 669 b 417 154 88 304 232 154 m 336 283 l 336 306 b 465 610 336 446 396 543 l 268 610 l 268 694 l 571 694 l 571 617 b 439 310 497 547 439 444 l 439 283 "},"⑧":{"ha":833,"x_min":0,"x_max":0,"o":"m 417 69 b 0 486 188 69 0 257 b 417 903 0 715 188 903 b 833 486 646 903 833 715 b 417 69 833 257 646 69 m 417 154 b 746 486 601 154 746 304 b 417 819 746 669 601 819 b 88 486 232 819 88 669 b 417 154 88 304 232 154 m 415 278 b 264 390 331 278 264 321 b 339 485 264 436 294 471 b 258 586 293 503 258 535 b 415 700 258 656 328 700 b 574 586 504 700 574 656 b 496 485 574 535 540 504 b 567 390 539 471 567 435 b 415 278 567 321 500 278 m 418 529 b 478 575 449 529 478 544 b 418 618 478 604 450 618 l 414 618 b 353 575 382 618 353 604 b 414 529 353 544 383 529 m 418 360 b 471 403 446 360 471 375 b 418 449 471 431 446 449 l 414 449 b 361 403 386 449 361 431 b 414 360 361 375 386 360 "},"⑨":{"ha":833,"x_min":0,"x_max":0,"o":"m 417 69 b 0 486 188 69 0 257 b 417 903 0 715 188 903 b 833 486 646 903 833 715 b 417 69 833 257 646 69 m 417 154 b 746 486 601 154 746 304 b 417 819 746 669 601 819 b 88 486 232 819 88 669 b 417 154 88 304 232 154 m 418 699 b 586 504 521 699 586 625 b 394 276 586 363 508 276 b 254 397 304 276 256 332 l 350 397 b 400 358 356 374 375 358 l 406 358 b 494 469 451 358 489 407 b 394 422 475 442 439 422 b 261 556 319 422 261 475 b 418 699 261 635 322 699 m 418 615 b 358 558 385 615 358 592 b 417 503 358 526 383 503 l 421 503 b 481 558 453 503 481 526 b 422 615 481 592 454 615 "},"⁰":{"ha":833,"x_min":0,"x_max":0,"o":"m 417 1132 b 650 850 571 1132 650 1007 b 417 569 650 693 571 569 b 183 850 263 569 183 693 b 417 1132 183 1007 263 1132 m 414 1036 b 299 850 336 1036 299 951 b 304 788 299 828 300 807 l 497 996 b 419 1036 478 1021 453 1036 m 419 665 b 535 850 497 665 535 749 b 528 919 535 875 532 899 l 333 710 b 414 665 353 682 379 665 "},"¹":{"ha":833,"x_min":0,"x_max":0,"o":"m 408 576 l 408 979 l 251 851 l 251 976 l 433 1125 l 518 1125 l 518 576 "},"²":{"ha":833,"x_min":0,"x_max":0,"o":"m 224 576 l 224 681 l 413 850 b 493 967 468 899 493 922 b 421 1038 493 1008 463 1038 l 414 1038 b 338 958 378 1038 338 1007 l 224 958 b 422 1132 226 1065 315 1132 b 608 971 533 1132 608 1061 b 511 807 608 896 561 851 l 358 671 l 611 671 l 611 576 "},"³":{"ha":833,"x_min":0,"x_max":0,"o":"m 414 569 b 217 729 308 569 217 625 l 331 729 b 410 663 333 689 367 663 l 417 663 b 503 739 465 663 503 692 b 425 808 503 783 468 808 l 368 808 l 368 897 l 426 897 b 499 967 469 897 499 922 b 421 1039 499 1013 468 1039 l 414 1039 b 340 976 372 1039 343 1013 l 225 976 b 421 1132 225 1079 317 1132 b 613 978 522 1132 613 1078 b 536 853 613 921 585 875 b 617 726 589 831 617 783 b 414 569 617 624 517 569 "},"⁴":{"ha":833,"x_min":0,"x_max":0,"o":"m 460 576 l 460 688 l 194 688 l 194 800 l 440 1125 l 563 1125 l 563 779 l 638 779 l 638 688 l 563 688 l 563 576 m 297 779 l 460 779 l 460 999 "},"⁵":{"ha":833,"x_min":0,"x_max":0,"o":"m 415 569 b 213 732 303 569 221 629 l 329 732 b 417 664 336 689 374 664 l 422 664 b 507 754 471 664 507 703 b 424 838 507 807 474 838 l 419 838 b 342 801 386 838 357 821 l 233 801 l 294 1125 l 613 1125 l 613 1031 l 378 1031 l 350 894 b 451 931 375 918 408 931 b 621 760 543 931 621 865 b 415 569 621 642 532 569 "},"⁶":{"ha":833,"x_min":0,"x_max":0,"o":"m 418 569 b 203 829 286 569 203 668 b 443 1132 203 1017 303 1132 b 631 974 564 1132 629 1056 l 519 974 b 440 1038 513 1011 483 1038 l 432 1038 b 307 872 367 1038 315 971 b 446 939 332 913 383 939 b 622 764 543 939 622 869 b 418 569 622 653 543 569 m 419 664 b 510 757 471 664 510 703 b 421 847 510 810 472 847 l 417 847 b 326 756 365 847 326 810 b 414 664 326 703 363 664 "},"⁷":{"ha":833,"x_min":0,"x_max":0,"o":"m 314 576 l 314 611 b 494 1031 314 800 390 940 l 221 1031 l 221 1125 l 611 1125 l 611 1035 b 432 615 517 947 432 811 l 432 576 "},"⁸":{"ha":833,"x_min":0,"x_max":0,"o":"m 414 569 b 221 718 307 569 221 625 b 314 846 221 779 258 825 b 213 981 257 869 213 914 b 415 1132 213 1074 301 1132 b 619 981 531 1132 619 1074 b 517 846 619 914 576 869 b 608 718 571 825 608 779 b 414 569 608 625 522 569 m 418 894 b 507 965 464 894 507 919 b 419 1038 507 1014 465 1038 l 413 1038 b 325 965 367 1038 325 1014 b 411 894 325 919 367 894 m 418 664 b 494 735 460 664 494 689 b 418 806 494 776 460 806 l 411 806 b 333 735 369 806 333 776 b 411 664 333 689 369 664 "},"⁹":{"ha":833,"x_min":0,"x_max":0,"o":"m 415 1132 b 631 872 547 1132 631 1033 b 390 569 631 685 531 569 b 203 728 269 569 204 646 l 314 728 b 393 664 321 690 350 664 l 401 664 b 526 829 467 664 518 731 b 388 763 501 789 450 763 b 211 938 290 763 211 832 b 415 1132 211 1049 290 1132 m 414 1038 b 324 944 363 1038 324 999 b 413 854 324 892 361 854 l 417 854 b 507 946 468 854 507 892 b 419 1038 507 999 471 1038 "},"⁄":{"ha":833,"x_min":0,"x_max":0,"o":"m 68 0 l 651 972 l 764 972 l 181 0 "},"⅟":{"ha":833,"x_min":0,"x_max":0,"o":"m 68 0 l 651 972 l 764 972 l 181 0 m 204 603 l 204 856 l 101 769 l 101 872 l 219 972 l 292 972 l 292 603 "},"½":{"ha":833,"x_min":0,"x_max":0,"o":"m 163 561 l 163 843 l 47 747 l 47 861 l 179 972 l 260 972 l 260 561 m 68 0 l 651 972 l 764 972 l 181 0 m 496 0 l 496 88 l 643 221 b 696 292 665 240 696 265 b 647 333 694 317 676 333 l 643 333 b 593 283 615 333 594 314 l 494 283 b 651 417 499 365 565 417 b 796 297 738 417 796 361 b 719 174 796 242 758 208 l 619 86 l 799 86 l 799 0 "},"⅓":{"ha":833,"x_min":0,"x_max":0,"o":"m 163 561 l 163 843 l 47 747 l 47 861 l 179 972 l 260 972 l 260 561 m 68 0 l 651 972 l 764 972 l 181 0 m 631 -6 b 478 117 550 -6 478 38 l 578 117 b 629 75 579 92 601 75 l 633 75 b 690 122 665 75 690 93 b 639 167 690 150 669 167 l 600 167 l 600 247 l 639 247 b 688 292 668 247 688 265 b 636 335 688 317 667 335 l 632 335 b 583 296 606 335 586 319 l 485 296 b 636 417 485 375 554 417 b 786 300 719 417 786 375 b 725 208 786 258 765 224 b 790 110 761 190 790 157 b 631 -6 790 33 717 -6 "},"⅔":{"ha":833,"x_min":0,"x_max":0,"o":"m 8 561 l 8 649 l 156 782 b 208 853 178 801 208 826 b 160 894 207 878 189 894 l 156 894 b 106 844 128 894 107 875 l 7 844 b 164 978 11 926 78 978 b 308 858 250 978 308 922 b 232 735 308 803 271 769 l 132 647 l 311 647 l 311 561 m 68 0 l 651 972 l 764 972 l 181 0 m 631 -6 b 478 117 550 -6 478 38 l 578 117 b 629 75 579 92 601 75 l 633 75 b 690 122 665 75 690 93 b 639 167 690 150 669 167 l 600 167 l 600 247 l 639 247 b 688 292 668 247 688 265 b 636 335 688 317 667 335 l 632 335 b 583 296 606 335 586 319 l 485 296 b 636 417 485 375 554 417 b 786 300 719 417 786 375 b 725 208 786 258 765 224 b 790 110 761 190 790 157 b 631 -6 790 33 717 -6 "},"¼":{"ha":833,"x_min":0,"x_max":0,"o":"m 163 561 l 163 843 l 47 747 l 47 861 l 179 972 l 260 972 l 260 561 m 68 0 l 651 972 l 764 972 l 181 0 m 639 0 l 639 74 l 439 74 l 439 169 l 624 411 l 731 411 l 731 154 l 788 154 l 788 74 l 731 74 l 731 0 m 526 154 l 639 154 l 639 304 "},"¾":{"ha":833,"x_min":0,"x_max":0,"o":"m 200 556 b 47 678 119 556 47 599 l 147 678 b 199 636 149 653 171 636 l 203 636 b 260 683 235 636 260 654 b 208 728 260 711 239 728 l 169 728 l 169 808 l 208 808 b 257 853 238 808 257 826 b 206 896 257 878 236 896 l 201 896 b 153 857 175 896 156 881 l 54 857 b 206 978 54 936 124 978 b 356 861 289 978 356 936 b 294 769 356 819 335 785 b 360 671 331 751 360 718 b 200 556 360 594 286 556 m 68 0 l 651 972 l 764 972 l 181 0 m 639 0 l 639 74 l 439 74 l 439 169 l 624 411 l 731 411 l 731 154 l 788 154 l 788 74 l 731 74 l 731 0 m 526 154 l 639 154 l 639 304 "},"⅕":{"ha":833,"x_min":0,"x_max":0,"o":"m 163 561 l 163 843 l 47 747 l 47 861 l 179 972 l 260 972 l 260 561 m 68 0 l 651 972 l 764 972 l 181 0 m 628 -6 b 468 119 544 -6 476 42 l 572 119 b 629 76 576 92 600 76 l 633 76 b 692 133 667 76 692 101 b 636 186 692 167 667 186 l 632 186 b 585 165 610 186 593 174 l 486 165 l 532 411 l 785 411 l 785 329 l 604 329 l 586 240 b 665 267 606 257 633 267 b 789 139 728 267 789 219 b 628 -6 789 50 719 -6 "},"⅖":{"ha":833,"x_min":0,"x_max":0,"o":"m 46 561 l 46 649 l 193 782 b 246 853 215 801 246 826 b 197 894 244 878 226 894 l 193 894 b 143 844 165 894 144 875 l 44 844 b 201 978 49 926 115 978 b 346 858 288 978 346 922 b 269 735 346 803 308 769 l 169 647 l 349 647 l 349 561 m 68 0 l 651 972 l 764 972 l 181 0 m 628 -6 b 468 119 544 -6 476 42 l 572 119 b 629 76 576 92 600 76 l 633 76 b 692 133 667 76 692 101 b 636 186 692 167 667 186 l 632 186 b 585 165 610 186 593 174 l 486 165 l 532 411 l 785 411 l 785 329 l 604 329 l 586 240 b 665 267 606 257 633 267 b 789 139 728 267 789 219 b 628 -6 789 50 719 -6 "},"⅗":{"ha":833,"x_min":0,"x_max":0,"o":"m 196 556 b 43 678 115 556 43 599 l 143 678 b 194 636 144 653 167 636 l 199 636 b 256 683 231 636 256 654 b 204 728 256 711 235 728 l 165 728 l 165 808 l 204 808 b 253 853 233 808 253 826 b 201 896 253 878 232 896 l 197 896 b 149 857 171 896 151 881 l 50 857 b 201 978 50 936 119 978 b 351 861 285 978 351 936 b 290 769 351 819 331 785 b 356 671 326 751 356 718 b 196 556 356 594 282 556 m 68 0 l 651 972 l 764 972 l 181 0 m 628 -6 b 468 119 544 -6 476 42 l 572 119 b 629 76 576 92 600 76 l 633 76 b 692 133 667 76 692 101 b 636 186 692 167 667 186 l 632 186 b 585 165 610 186 593 174 l 486 165 l 532 411 l 785 411 l 785 329 l 604 329 l 586 240 b 665 267 606 257 633 267 b 789 139 728 267 789 219 b 628 -6 789 50 719 -6 "},"⅘":{"ha":833,"x_min":0,"x_max":0,"o":"m 207 561 l 207 635 l 7 635 l 7 731 l 192 972 l 299 972 l 299 715 l 356 715 l 356 635 l 299 635 l 299 561 m 68 0 l 651 972 l 764 972 l 181 0 m 94 715 l 207 715 l 207 865 m 628 -6 b 468 119 544 -6 476 42 l 572 119 b 629 76 576 92 600 76 l 633 76 b 692 133 667 76 692 101 b 636 186 692 167 667 186 l 632 186 b 585 165 610 186 593 174 l 486 165 l 532 411 l 785 411 l 785 329 l 604 329 l 586 240 b 665 267 606 257 633 267 b 789 139 728 267 789 219 b 628 -6 789 50 719 -6 "},"⅙":{"ha":833,"x_min":0,"x_max":0,"o":"m 163 561 l 163 843 l 47 747 l 47 861 l 179 972 l 260 972 l 260 561 m 68 0 l 651 972 l 764 972 l 181 0 m 651 -6 b 483 189 550 -6 483 68 b 675 417 483 331 561 417 b 815 296 765 417 814 361 l 719 296 b 669 333 715 319 696 333 l 665 333 b 575 224 618 333 582 286 b 675 271 594 251 631 271 b 810 138 751 271 810 218 b 651 -6 810 58 749 -6 m 651 78 b 711 135 686 78 711 101 b 653 190 711 167 688 190 l 650 190 b 590 135 618 190 590 167 b 649 78 590 101 617 78 "},"⅚":{"ha":833,"x_min":0,"x_max":0,"o":"m 157 556 b -3 681 74 556 6 603 l 101 681 b 158 638 106 653 129 638 l 163 638 b 221 694 196 638 221 663 b 165 747 221 728 196 747 l 161 747 b 114 726 139 747 122 735 l 15 726 l 61 972 l 314 972 l 314 890 l 133 890 l 115 801 b 194 828 135 818 163 828 b 318 700 257 828 318 781 b 157 556 318 611 249 556 m 68 0 l 651 972 l 764 972 l 181 0 m 651 -6 b 483 189 550 -6 483 68 b 675 417 483 331 561 417 b 815 296 765 417 814 361 l 719 296 b 669 333 715 319 696 333 l 665 333 b 575 224 618 333 582 286 b 675 271 594 251 631 271 b 810 138 751 271 810 218 b 651 -6 810 58 749 -6 m 651 78 b 711 135 686 78 711 101 b 653 190 711 167 688 190 l 650 190 b 590 135 618 190 590 167 b 649 78 590 101 617 78 "},"⅛":{"ha":833,"x_min":0,"x_max":0,"o":"m 163 561 l 163 843 l 47 747 l 47 861 l 179 972 l 260 972 l 260 561 m 68 0 l 651 972 l 764 972 l 181 0 m 657 -6 b 506 107 572 -6 506 38 b 581 201 506 153 536 188 b 500 303 535 219 500 251 b 657 417 500 372 569 417 b 815 303 746 417 815 372 b 738 201 815 251 782 221 b 808 107 781 188 808 151 b 657 -6 808 38 742 -6 m 660 246 b 719 292 690 246 719 261 b 660 335 719 321 692 335 l 656 335 b 594 292 624 335 594 321 b 656 246 594 261 625 246 m 660 76 b 713 119 688 76 713 92 b 660 165 713 147 688 165 l 656 165 b 603 119 628 165 603 147 b 656 76 603 92 628 76 "},"⅜":{"ha":833,"x_min":0,"x_max":0,"o":"m 200 556 b 47 678 119 556 47 599 l 147 678 b 199 636 149 653 171 636 l 203 636 b 260 683 235 636 260 654 b 208 728 260 711 239 728 l 169 728 l 169 808 l 208 808 b 257 853 238 808 257 826 b 206 896 257 878 236 896 l 201 896 b 153 857 175 896 156 881 l 54 857 b 206 978 54 936 124 978 b 356 861 289 978 356 936 b 294 769 356 819 335 785 b 360 671 331 751 360 718 b 200 556 360 594 286 556 m 69 0 l 653 972 l 765 972 l 182 0 m 657 -6 b 506 107 572 -6 506 38 b 581 201 506 153 536 188 b 500 303 535 219 500 251 b 657 417 500 372 569 417 b 815 303 746 417 815 372 b 738 201 815 251 782 221 b 808 107 781 188 808 151 b 657 -6 808 38 742 -6 m 660 246 b 719 292 690 246 719 261 b 660 335 719 321 692 335 l 656 335 b 594 292 624 335 594 321 b 656 246 594 261 625 246 m 660 76 b 713 119 688 76 713 92 b 660 165 713 147 688 165 l 656 165 b 603 119 628 165 603 147 b 656 76 603 92 628 76 "},"⅝":{"ha":833,"x_min":0,"x_max":0,"o":"m 171 556 b 11 681 88 556 19 603 l 115 681 b 172 638 119 653 143 638 l 176 638 b 235 694 210 638 235 663 b 179 747 235 728 210 747 l 175 747 b 128 726 153 747 136 735 l 29 726 l 75 972 l 328 972 l 328 890 l 147 890 l 129 801 b 208 828 149 818 176 828 b 332 700 271 828 332 781 b 171 556 332 611 263 556 m 68 0 l 651 972 l 764 972 l 181 0 m 657 -6 b 506 107 572 -6 506 38 b 581 201 506 153 536 188 b 500 303 535 219 500 251 b 657 417 500 372 569 417 b 815 303 746 417 815 372 b 738 201 815 251 782 221 b 808 107 781 188 808 151 b 657 -6 808 38 742 -6 m 660 246 b 719 292 690 246 719 261 b 660 335 719 321 692 335 l 656 335 b 594 292 624 335 594 321 b 656 246 594 261 625 246 m 660 76 b 713 119 688 76 713 92 b 660 165 713 147 688 165 l 656 165 b 603 119 628 165 603 147 b 656 76 603 92 628 76 "},"⅞":{"ha":833,"x_min":0,"x_max":0,"o":"m 135 561 l 135 583 b 264 888 135 724 194 821 l 67 888 l 67 972 l 369 972 l 369 894 b 238 588 296 825 238 722 l 238 561 m 68 0 l 651 972 l 764 972 l 181 0 m 657 -6 b 506 107 572 -6 506 38 b 581 201 506 153 536 188 b 500 303 535 219 500 251 b 657 417 500 372 569 417 b 815 303 746 417 815 372 b 738 201 815 251 782 221 b 808 107 781 188 808 151 b 657 -6 808 38 742 -6 m 660 246 b 719 292 690 246 719 261 b 660 335 719 321 692 335 l 656 335 b 594 292 624 335 594 321 b 656 246 594 261 625 246 m 660 76 b 713 119 688 76 713 92 b 660 165 713 147 688 165 l 656 165 b 603 119 628 165 603 147 b 656 76 603 92 628 76 "},"Ⅰ":{"ha":833,"x_min":0,"x_max":0,"o":"m 151 0 l 151 108 l 351 108 l 351 864 l 151 864 l 151 972 l 683 972 l 683 864 l 483 864 l 483 108 l 683 108 l 683 0 "},"Ⅱ":{"ha":833,"x_min":0,"x_max":0,"o":"m 40 0 l 40 108 l 194 108 l 194 864 l 40 864 l 40 972 l 794 972 l 794 864 l 640 864 l 640 108 l 794 108 l 794 0 m 326 108 l 508 108 l 508 864 l 326 864 "},"Ⅲ":{"ha":833,"x_min":0,"x_max":0,"o":"m 24 0 l 24 108 l 119 108 l 119 864 l 24 864 l 24 972 l 811 972 l 811 864 l 715 864 l 715 108 l 811 108 l 811 0 m 249 108 l 353 108 l 353 864 l 249 864 m 482 108 l 586 108 l 586 864 l 482 864 "},"Ⅳ":{"ha":1667,"x_min":0,"x_max":0,"o":"m 176 0 l 176 108 l 376 108 l 376 864 l 176 864 l 176 972 l 944 972 l 944 864 l 792 864 l 1038 150 l 1269 864 l 1119 864 l 1119 972 l 1535 972 l 1535 864 l 1401 864 l 1153 108 l 1367 108 l 1367 0 m 508 108 l 924 108 l 661 864 l 508 864 "},"Ⅴ":{"ha":833,"x_min":0,"x_max":0,"o":"m 819 864 l 710 864 l 526 108 l 704 108 l 704 0 l 131 0 l 131 108 l 308 108 l 125 864 l 15 864 l 15 972 l 364 972 l 364 864 l 257 864 l 418 163 l 578 864 l 471 864 l 471 972 l 819 972 "},"Ⅵ":{"ha":1667,"x_min":0,"x_max":0,"o":"m 286 0 l 286 108 l 500 108 l 251 864 l 118 864 l 118 972 l 535 972 l 535 864 l 383 864 l 617 150 l 863 864 l 710 864 l 710 972 l 1478 972 l 1478 864 l 1278 864 l 1278 108 l 1478 108 l 1478 0 m 729 108 l 1146 108 l 1146 864 l 992 864 "},"Ⅶ":{"ha":1667,"x_min":0,"x_max":0,"o":"m 1590 864 l 1425 864 l 1425 108 l 1590 108 l 1590 0 l 186 0 l 186 108 l 385 108 l 169 864 l 46 864 l 46 972 l 425 972 l 425 864 l 301 864 l 500 164 l 706 864 l 581 864 l 581 972 l 1590 972 m 967 108 l 967 864 l 836 864 l 613 108 m 1293 108 l 1293 864 l 1099 864 l 1099 108 "},"Ⅷ":{"ha":1667,"x_min":0,"x_max":0,"o":"m 1579 864 l 1476 864 l 1476 108 l 1579 108 l 1579 0 l 160 0 l 160 108 l 339 108 l 154 864 l 44 864 l 44 972 l 393 972 l 393 864 l 285 864 l 449 163 l 610 864 l 501 864 l 501 972 l 1579 972 m 856 108 l 856 864 l 740 864 l 556 108 m 1101 108 l 1101 864 l 985 864 l 985 108 m 1347 108 l 1347 864 l 1231 864 l 1231 108 "},"Ⅸ":{"ha":1667,"x_min":0,"x_max":0,"o":"m 138 0 l 138 108 l 350 108 l 350 864 l 138 864 l 138 972 l 1521 972 l 1521 864 l 1383 864 l 1118 492 l 1393 108 l 1535 108 l 1535 0 m 482 108 l 696 108 l 971 490 l 703 864 l 482 864 m 1046 592 l 1239 864 l 851 864 m 842 108 l 1244 108 l 1043 392 "},"Ⅹ":{"ha":833,"x_min":0,"x_max":0,"o":"m 706 108 l 814 108 l 814 0 l 25 0 l 25 108 l 140 108 l 357 496 l 151 864 l 39 864 l 39 972 l 800 972 l 800 864 l 694 864 l 489 496 m 283 864 l 424 614 l 563 864 m 424 378 l 272 108 l 574 108 "},"Ⅼ":{"ha":833,"x_min":0,"x_max":0,"o":"m 51 0 l 51 108 l 189 108 l 189 864 l 51 864 l 51 972 l 485 972 l 485 864 l 321 864 l 321 108 l 649 108 l 649 344 l 781 344 l 781 0 "},"Ⅽ":{"ha":833,"x_min":0,"x_max":0,"o":"m 422 -14 b 36 486 164 -14 36 189 b 422 986 36 783 164 986 b 649 878 533 986 607 944 l 649 972 l 776 972 l 776 664 l 651 664 b 438 878 625 789 558 878 l 431 878 b 168 486 240 878 168 710 b 431 94 168 263 240 94 l 438 94 b 651 308 558 94 628 178 l 776 308 l 776 0 l 649 0 l 649 88 b 422 -14 606 25 532 -14 "},"Ⅾ":{"ha":833,"x_min":0,"x_max":0,"o":"m 19 0 l 19 108 l 136 108 l 136 864 l 19 864 l 19 972 l 371 972 b 783 489 640 972 783 789 b 374 0 783 178 639 0 m 268 108 l 347 108 b 651 488 557 108 651 235 b 354 864 651 731 560 864 l 268 864 "},"Ⅿ":{"ha":833,"x_min":0,"x_max":0,"o":"m 804 864 l 713 864 l 713 108 l 804 108 l 804 0 l 492 0 l 492 108 l 590 108 l 590 731 l 476 278 l 358 278 l 243 731 l 243 108 l 342 108 l 342 0 l 29 0 l 29 108 l 121 108 l 121 864 l 29 864 l 29 972 l 286 972 l 417 449 l 547 972 l 804 972 "},".":{"ha":833,"x_min":0,"x_max":0,"o":"m 329 0 l 329 175 l 504 175 l 504 0 "},",":{"ha":833,"x_min":0,"x_max":0,"o":"m 288 -182 l 288 -104 l 333 -104 b 418 -18 392 -104 418 -69 l 418 0 l 328 0 l 328 175 l 503 175 l 503 -25 b 344 -182 503 -114 440 -182 "},":":{"ha":833,"x_min":0,"x_max":0,"o":"m 329 526 l 329 701 l 504 701 l 504 526 m 329 0 l 329 175 l 504 175 l 504 0 "},";":{"ha":833,"x_min":0,"x_max":0,"o":"m 329 519 l 329 694 l 504 694 l 504 519 m 288 -182 l 288 -104 l 333 -104 b 418 -18 392 -104 418 -69 l 418 0 l 328 0 l 328 175 l 503 175 l 503 -25 b 344 -182 503 -114 440 -182 "},"…":{"ha":833,"x_min":0,"x_max":0,"o":"m 58 0 l 58 175 l 233 175 l 233 0 m 329 0 l 329 175 l 504 175 l 504 0 m 600 0 l 600 175 l 775 175 l 775 0 "},"!":{"ha":833,"x_min":0,"x_max":0,"o":"m 383 265 l 349 661 l 349 972 l 486 972 l 486 661 l 451 265 m 343 0 l 343 151 l 489 151 l 489 0 "},"¡":{"ha":833,"x_min":0,"x_max":0,"o":"m 343 694 l 489 694 l 489 543 l 343 543 m 383 429 l 451 429 l 486 33 l 486 -278 l 349 -278 l 349 33 "},"?":{"ha":833,"x_min":0,"x_max":0,"o":"m 283 276 l 283 469 b 394 581 283 546 318 581 l 426 581 b 568 717 518 581 568 633 b 419 850 568 794 514 850 l 149 850 l 149 972 l 442 972 b 704 718 593 972 704 869 b 464 465 704 571 604 465 l 453 465 b 411 424 421 465 411 456 l 411 276 m 272 -3 l 272 149 l 418 149 l 418 -3 "},"¿":{"ha":833,"x_min":0,"x_max":0,"o":"m 564 697 l 564 546 l 418 546 l 418 697 m 553 418 l 553 225 b 442 114 553 149 518 114 l 410 114 b 268 -22 318 114 268 61 b 417 -156 268 -100 322 -156 l 688 -156 l 688 -278 l 394 -278 b 132 -24 243 -278 132 -175 b 372 229 132 124 232 229 l 383 229 b 425 271 415 229 425 239 l 425 418 "},"·":{"ha":833,"x_min":0,"x_max":0,"o":"m 329 401 l 329 576 l 504 576 l 504 401 "},"•":{"ha":833,"x_min":0,"x_max":0,"o":"m 417 228 b 158 486 275 228 158 344 b 417 744 158 628 275 744 b 675 486 558 744 675 628 b 417 228 675 344 558 228 "},"*":{"ha":833,"x_min":0,"x_max":0,"o":"m 338 581 l 251 629 l 331 763 l 181 763 l 181 860 l 331 860 l 251 993 l 339 1042 l 417 908 l 496 1042 l 582 993 l 503 860 l 653 860 l 653 763 l 503 763 l 582 629 l 494 581 l 417 714 "},"#":{"ha":833,"x_min":0,"x_max":0,"o":"m 799 613 l 651 613 l 611 360 l 739 360 l 739 244 l 592 244 l 553 0 l 431 0 l 469 244 l 288 244 l 247 0 l 126 0 l 165 244 l 38 244 l 38 360 l 185 360 l 225 613 l 97 613 l 97 728 l 244 728 l 283 972 l 406 972 l 365 728 l 549 728 l 588 972 l 710 972 l 671 728 l 799 728 m 489 360 l 529 613 l 347 613 l 306 360 "},"/":{"ha":833,"x_min":0,"x_max":0,"o":"m 160 0 l 535 972 l 674 972 l 303 0 "},"\\":{"ha":833,"x_min":0,"x_max":0,"o":"m 160 972 l 303 972 l 674 0 l 535 0 "},"(":{"ha":833,"x_min":0,"x_max":0,"o":"m 694 -201 b 279 486 474 -196 279 58 b 694 1174 279 914 474 1168 l 694 1063 b 411 486 551 1047 411 854 b 694 -90 411 118 551 -75 "},")":{"ha":833,"x_min":0,"x_max":0,"o":"m 139 1174 b 554 486 360 1168 554 914 b 139 -201 554 58 360 -196 l 139 -90 b 422 486 282 -75 422 118 b 139 1063 422 854 282 1047 "},"{":{"ha":833,"x_min":0,"x_max":0,"o":"m 542 -201 b 369 14 422 -201 369 -132 l 369 299 b 300 393 369 371 356 393 l 265 393 l 265 579 l 300 579 b 369 674 356 579 369 601 l 369 958 b 542 1174 369 1104 422 1174 l 646 1174 l 646 1065 l 585 1065 b 501 957 515 1065 501 1036 l 501 622 b 390 500 501 532 453 500 l 390 472 b 501 350 453 472 501 440 l 501 15 b 585 -93 501 -64 515 -93 l 646 -93 l 646 -201 "},"}":{"ha":833,"x_min":0,"x_max":0,"o":"m 292 1174 b 464 958 411 1174 464 1104 l 464 674 b 533 579 464 601 478 579 l 568 579 l 568 393 l 533 393 b 464 299 478 393 464 371 l 464 14 b 292 -201 464 -132 411 -201 l 188 -201 l 188 -93 l 249 -93 b 332 15 318 -93 332 -64 l 332 350 b 443 472 332 440 381 472 l 443 500 b 332 622 381 500 332 532 l 332 957 b 249 1065 332 1036 318 1065 l 188 1065 l 188 1174 "},"[":{"ha":833,"x_min":0,"x_max":0,"o":"m 332 -201 l 332 1174 l 635 1174 l 635 1065 l 464 1065 l 464 -93 l 635 -93 l 635 -201 "},"]":{"ha":833,"x_min":0,"x_max":0,"o":"m 501 1174 l 501 -201 l 199 -201 l 199 -93 l 369 -93 l 369 1065 l 199 1065 l 199 1174 "},"〈":{"ha":833,"x_min":0,"x_max":0,"o":"m 528 -118 l 211 486 l 528 1090 l 667 1090 l 354 489 l 667 -118 "},"〉":{"ha":833,"x_min":0,"x_max":0,"o":"m 306 1090 l 622 486 l 306 -118 l 167 -118 l 479 483 l 167 1090 "},"【":{"ha":833,"x_min":0,"x_max":0,"o":"m 319 -201 l 319 1174 l 718 1174 b 451 488 533 976 451 726 b 718 -201 451 253 531 1 "},"】":{"ha":833,"x_min":0,"x_max":0,"o":"m 514 1175 l 514 -200 l 115 -200 b 382 486 300 -3 382 247 b 115 1175 382 721 303 972 "},"「":{"ha":833,"x_min":0,"x_max":0,"o":"m 343 539 l 343 1174 l 663 1174 l 663 1056 l 472 1056 l 472 539 "},"」":{"ha":833,"x_min":0,"x_max":0,"o":"m 490 433 l 490 -201 l 171 -201 l 171 -83 l 361 -83 l 361 433 "},"《":{"ha":833,"x_min":0,"x_max":0,"o":"m 372 -118 l 97 486 l 372 1090 l 511 1090 l 240 489 l 511 -118 m 653 -118 l 378 486 l 653 1090 l 792 1090 l 521 489 l 792 -118 "},"》":{"ha":833,"x_min":0,"x_max":0,"o":"m 181 1090 l 456 486 l 181 -118 l 42 -118 l 313 483 l 42 1090 m 461 1090 l 736 486 l 461 -118 l 322 -118 l 593 483 l 322 1090 "},"〔":{"ha":833,"x_min":0,"x_max":0,"o":"m 550 -201 l 350 24 l 350 949 l 550 1174 l 706 1174 l 482 921 l 482 53 l 707 -201 "},"〕":{"ha":833,"x_min":0,"x_max":0,"o":"m 283 1175 l 483 950 l 483 25 l 283 -200 l 128 -200 l 351 53 l 351 921 l 126 1175 "},"『":{"ha":833,"x_min":0,"x_max":0,"o":"m 236 440 l 236 1174 l 717 1174 l 717 922 l 526 922 l 526 440 m 338 528 l 425 528 l 425 1010 l 615 1010 l 615 1086 l 338 1086 "},"』":{"ha":833,"x_min":0,"x_max":0,"o":"m 597 532 l 597 -201 l 117 -201 l 117 50 l 307 50 l 307 532 m 496 444 l 408 444 l 408 -37 l 218 -37 l 218 -114 l 496 -114 "},"-":{"ha":833,"x_min":0,"x_max":0,"o":"m 231 365 l 231 475 l 603 475 l 603 365 "},"­":{"ha":833,"x_min":0,"x_max":0,"o":"m 231 365 l 231 475 l 603 475 l 603 365 "},"–":{"ha":833,"x_min":0,"x_max":0,"o":"m 146 365 l 146 475 l 688 475 l 688 365 "},"—":{"ha":833,"x_min":0,"x_max":0,"o":"m 28 365 l 28 475 l 806 475 l 806 365 "},"―":{"ha":833,"x_min":0,"x_max":0,"o":"m 28 365 l 28 475 l 806 475 l 806 365 "},"_":{"ha":833,"x_min":0,"x_max":0,"o":"m 106 -108 l 106 0 l 728 0 l 728 -108 "},"‚":{"ha":833,"x_min":0,"x_max":0,"o":"m 294 -182 l 294 -104 l 340 -104 b 425 -18 399 -104 425 -69 l 425 0 l 335 0 l 335 175 l 510 175 l 510 -25 b 351 -182 510 -114 447 -182 "},"„":{"ha":833,"x_min":0,"x_max":0,"o":"m 156 -182 l 156 -104 l 201 -104 b 286 -18 260 -104 286 -69 l 286 0 l 196 0 l 196 175 l 371 175 l 371 -25 b 213 -182 371 -114 308 -182 m 440 -182 l 440 -104 l 486 -104 b 571 -18 544 -104 571 -69 l 571 0 l 481 0 l 481 175 l 656 175 l 656 -25 b 497 -182 656 -114 593 -182 "},"“":{"ha":833,"x_min":0,"x_max":0,"o":"m 393 994 l 393 917 l 347 917 b 263 831 289 917 263 882 l 263 813 l 353 813 l 353 638 l 178 638 l 178 838 b 336 994 178 926 240 994 m 678 994 l 678 917 l 632 917 b 547 831 574 917 547 882 l 547 813 l 638 813 l 638 638 l 463 638 l 463 838 b 621 994 463 926 525 994 "},"”":{"ha":833,"x_min":0,"x_max":0,"o":"m 156 615 l 156 693 l 201 693 b 286 779 260 693 286 728 l 286 797 l 196 797 l 196 972 l 371 972 l 371 772 b 213 615 371 683 308 615 m 440 615 l 440 693 l 486 693 b 571 779 544 693 571 728 l 571 797 l 481 797 l 481 972 l 656 972 l 656 772 b 497 615 656 683 593 615 "},"‘":{"ha":833,"x_min":0,"x_max":0,"o":"m 546 972 l 546 894 l 500 894 b 415 808 442 894 415 860 l 415 790 l 506 790 l 506 615 l 331 615 l 331 815 b 489 972 331 904 393 972 "},"’":{"ha":833,"x_min":0,"x_max":0,"o":"m 288 615 l 288 693 l 333 693 b 418 779 392 693 418 728 l 418 797 l 328 797 l 328 972 l 503 972 l 503 772 b 344 615 503 683 440 615 "},"«":{"ha":833,"x_min":0,"x_max":0,"o":"m 443 694 l 242 397 l 444 97 l 292 97 l 90 396 l 292 694 m 533 397 l 736 97 l 583 97 l 382 396 l 583 694 l 735 694 "},"»":{"ha":833,"x_min":0,"x_max":0,"o":"m 250 694 l 451 396 l 250 97 l 99 97 l 300 394 l 97 694 m 542 694 l 743 396 l 542 97 l 390 97 l 592 394 l 389 694 "},"‹":{"ha":833,"x_min":0,"x_max":0,"o":"m 383 397 l 586 97 l 433 97 l 232 396 l 433 694 l 585 694 "},"›":{"ha":833,"x_min":0,"x_max":0,"o":"m 403 694 l 604 396 l 403 97 l 251 97 l 453 394 l 250 694 "},"\"":{"ha":833,"x_min":0,"x_max":0,"o":"m 276 661 l 242 844 l 242 972 l 365 972 l 365 844 l 326 661 m 501 661 l 467 844 l 467 972 l 590 972 l 590 844 l 551 661 "},"'":{"ha":833,"x_min":0,"x_max":0,"o":"m 390 661 l 356 844 l 356 972 l 479 972 l 479 844 l 440 661 "}," ":{"ha":208,"x_min":0,"x_max":0,"o":""}," ":{"ha":417,"x_min":0,"x_max":0,"o":""}," ":{"ha":833,"x_min":0,"x_max":0,"o":""}," ":{"ha":833,"x_min":0,"x_max":0,"o":""}," ":{"ha":833,"x_min":0,"x_max":0,"o":""},"₿":{"ha":833,"x_min":0,"x_max":0,"o":"m 586 493 b 767 264 679 475 767 397 b 475 0 767 107 653 0 l 378 0 l 350 -167 l 231 -167 l 258 0 l 119 0 l 119 972 l 421 972 l 450 1139 l 569 1139 l 540 965 b 746 719 671 940 746 847 b 586 493 746 600 678 522 m 258 847 l 258 554 l 444 554 b 607 701 543 554 607 606 b 444 847 607 796 553 847 m 450 125 b 628 279 567 125 628 176 b 451 431 628 381 557 431 l 258 431 l 258 125 "},"¢":{"ha":833,"x_min":0,"x_max":0,"o":"m 725 232 b 440 -14 704 82 599 -14 l 426 -14 l 400 -167 l 289 -167 l 318 6 b 108 347 182 54 108 186 b 436 708 108 550 225 707 l 463 861 l 574 861 l 544 693 b 724 463 646 660 713 578 l 590 463 b 524 567 582 507 558 544 l 446 107 l 447 107 b 592 232 525 107 578 163 m 242 347 b 339 132 242 257 274 172 l 417 586 b 242 347 299 578 242 468 "},"¤":{"ha":833,"x_min":0,"x_max":0,"o":"m 739 424 b 692 256 739 361 722 304 l 796 154 l 707 65 l 603 164 b 415 108 550 129 486 108 b 228 164 346 108 281 129 l 125 65 l 36 154 l 140 254 b 92 424 110 303 92 361 b 138 589 92 485 108 542 l 36 690 l 125 779 l 226 682 b 415 739 279 718 344 739 b 606 682 486 739 553 718 l 707 779 l 796 690 l 694 588 b 739 424 722 540 739 485 m 421 233 b 606 424 528 233 606 318 b 421 614 606 531 528 614 l 410 614 b 226 424 303 614 226 531 b 414 233 226 318 307 233 "},"$":{"ha":833,"x_min":0,"x_max":0,"o":"m 513 540 b 765 272 674 507 765 424 b 418 -14 765 107 636 -14 l 396 -14 l 369 -167 l 249 -167 l 278 3 b 44 315 121 44 47 160 l 183 315 b 299 132 188 221 228 161 l 350 433 l 332 438 b 93 701 168 472 93 558 b 432 986 93 853 219 986 l 442 986 l 468 1139 l 589 1139 l 560 969 b 781 678 700 929 778 821 l 642 678 b 539 839 638 754 599 811 l 489 546 m 421 861 b 232 704 307 858 232 790 b 372 569 232 628 275 589 m 432 111 b 626 264 560 111 626 181 b 486 404 626 338 586 383 l 467 408 l 417 111 l 425 111 "},"€":{"ha":833,"x_min":0,"x_max":0,"o":"m 474 108 b 651 294 579 108 638 179 l 788 294 b 467 -14 768 106 657 -14 b 146 250 299 -14 193 79 l 33 225 l 33 340 l 125 361 b 118 460 121 392 119 425 l 33 440 l 33 556 l 121 575 b 468 986 143 838 260 986 b 788 678 657 986 765 868 l 651 678 b 474 864 638 793 579 864 l 461 864 b 260 607 343 864 279 774 l 508 663 l 508 547 l 253 490 l 253 486 b 257 390 253 451 254 419 l 450 433 l 450 318 l 275 279 b 461 108 306 168 365 108 "},"ƒ":{"ha":833,"x_min":0,"x_max":0,"o":"m 674 850 b 540 715 581 850 556 810 l 528 633 l 700 633 l 700 517 l 510 517 l 429 -14 b 172 -278 400 -201 333 -278 l 94 -278 l 94 -156 l 160 -156 b 299 -21 256 -156 283 -115 l 381 517 l 235 517 l 235 633 l 399 633 l 411 714 b 661 972 440 901 503 972 l 739 972 l 739 850 "},"₴":{"ha":833,"x_min":0,"x_max":0,"o":"m 822 689 l 822 575 l 10 506 l 10 619 l 596 669 b 606 719 603 686 606 703 b 433 868 606 813 540 868 l 425 868 b 240 722 300 868 247 789 l 104 722 b 432 986 113 818 189 986 b 735 724 633 986 735 869 b 732 681 735 708 733 694 m 794 493 l 794 379 l 242 328 b 226 260 231 307 226 285 b 414 104 226 171 299 104 l 431 104 b 624 265 549 104 607 160 l 760 265 b 417 -14 742 92 628 -14 b 97 246 183 -14 97 129 b 107 317 97 271 100 294 l 38 310 l 38 424 l 203 439 "},"₽":{"ha":833,"x_min":0,"x_max":0,"o":"m 172 0 l 172 219 l 32 219 l 32 336 l 172 336 l 172 424 l 29 424 l 29 549 l 172 549 l 172 972 l 522 972 b 832 699 700 972 832 886 b 519 424 832 511 700 424 l 311 424 l 311 336 l 583 336 l 583 219 l 311 219 l 311 0 m 311 549 l 501 549 b 693 699 619 549 693 588 b 501 847 693 807 619 847 l 311 847 "},"£":{"ha":833,"x_min":0,"x_max":0,"o":"m 760 122 l 760 0 l 74 0 l 74 122 l 117 122 b 218 229 183 122 213 160 l 229 389 l 74 353 l 74 468 l 239 506 l 251 682 b 544 972 265 869 357 972 l 690 972 l 690 850 l 540 850 b 386 675 435 850 394 793 l 375 538 l 551 578 l 551 463 l 367 419 l 353 249 b 288 122 349 189 335 153 "},"₩":{"ha":833,"x_min":0,"x_max":0,"o":"m 833 522 l 833 417 l 729 417 l 694 0 l 532 0 l 418 563 l 290 0 l 132 0 l 101 417 l 0 417 l 0 522 l 93 522 l 60 972 l 186 972 l 232 207 l 349 726 l 489 726 l 600 206 l 646 972 l 775 972 l 738 522 "},"¥":{"ha":833,"x_min":0,"x_max":0,"o":"m 789 972 l 569 549 l 722 583 l 722 468 l 501 419 l 485 386 l 485 314 l 681 358 l 681 242 l 485 199 l 485 0 l 346 0 l 346 168 l 153 125 l 153 240 l 346 283 l 346 385 l 111 332 l 111 447 l 293 488 l 44 972 l 197 972 l 417 515 l 418 515 l 639 972 "},"∙":{"ha":833,"x_min":0,"x_max":0,"o":"m 417 228 b 158 486 275 228 158 344 b 417 744 158 628 275 744 b 675 486 558 744 675 628 b 417 228 675 344 558 228 "},"∕":{"ha":833,"x_min":0,"x_max":0,"o":"m 160 0 l 535 972 l 674 972 l 303 0 "},"+":{"ha":833,"x_min":0,"x_max":0,"o":"m 350 21 l 350 299 l 74 299 l 74 417 l 350 417 l 350 694 l 483 694 l 483 417 l 760 417 l 760 299 l 483 299 l 483 21 "},"−":{"ha":833,"x_min":0,"x_max":0,"o":"m 74 296 l 74 419 l 760 419 l 760 296 "},"×":{"ha":833,"x_min":0,"x_max":0,"o":"m 203 57 l 115 144 l 329 357 l 115 571 l 203 660 l 417 446 l 631 658 l 717 571 l 504 358 l 718 144 l 629 57 l 417 271 "},"÷":{"ha":833,"x_min":0,"x_max":0,"o":"m 343 514 l 343 665 l 489 665 l 489 514 m 74 296 l 74 419 l 760 419 l 760 296 m 343 50 l 343 201 l 489 201 l 489 50 "},"=":{"ha":833,"x_min":0,"x_max":0,"o":"m 74 428 l 74 551 l 760 551 l 760 428 m 74 164 l 74 288 l 760 288 l 760 164 "},"≠":{"ha":833,"x_min":0,"x_max":0,"o":"m 768 428 l 506 428 l 461 288 l 768 288 l 768 164 l 424 164 l 379 21 l 247 21 l 292 164 l 82 164 l 82 288 l 329 288 l 374 428 l 82 428 l 82 551 l 411 551 l 456 694 l 588 694 l 543 551 l 768 551 "},">":{"ha":833,"x_min":0,"x_max":0,"o":"m 125 657 l 715 415 l 715 296 l 125 54 l 125 182 l 567 354 l 125 526 "},"<":{"ha":833,"x_min":0,"x_max":0,"o":"m 708 657 l 708 529 l 267 357 l 708 185 l 708 54 l 118 296 l 118 415 "},"≥":{"ha":833,"x_min":0,"x_max":0,"o":"m 74 718 l 760 529 l 760 369 l 74 181 l 74 315 l 606 449 l 74 581 m 74 18 l 74 142 l 760 142 l 760 18 "},"≤":{"ha":833,"x_min":0,"x_max":0,"o":"m 760 718 l 760 583 l 231 451 l 760 318 l 760 181 l 74 369 l 74 529 m 74 18 l 74 142 l 760 142 l 760 18 "},"±":{"ha":833,"x_min":0,"x_max":0,"o":"m 483 517 l 760 517 l 760 393 l 483 393 l 483 221 l 350 221 l 350 393 l 74 393 l 74 517 l 350 517 l 350 694 l 483 694 m 74 0 l 74 124 l 760 124 l 760 0 "},"≈":{"ha":833,"x_min":0,"x_max":0,"o":"m 575 386 b 288 478 481 386 343 478 b 214 400 233 478 214 443 l 82 400 l 82 444 b 260 610 82 538 156 610 b 546 518 361 610 490 518 b 619 592 600 518 619 547 l 751 592 l 751 547 b 575 386 751 454 682 386 m 575 104 b 288 196 481 104 343 196 b 214 118 233 196 214 163 l 82 118 l 82 163 b 260 328 82 256 156 328 b 546 236 361 328 490 236 b 619 310 600 236 619 265 l 751 310 l 751 265 b 575 104 751 172 682 104 "},"¬":{"ha":833,"x_min":0,"x_max":0,"o":"m 599 171 l 599 365 l 93 365 l 93 489 l 735 489 l 735 171 "},"~":{"ha":833,"x_min":0,"x_max":0,"o":"m 529 478 b 421 513 489 478 453 494 l 381 535 b 319 560 357 549 340 560 b 267 488 290 560 267 536 l 168 488 l 168 511 b 310 664 168 606 229 664 b 411 631 356 664 386 644 l 453 607 b 518 581 475 593 496 581 b 567 653 546 581 567 604 l 665 653 l 665 629 b 529 478 665 539 607 478 "},"^":{"ha":833,"x_min":0,"x_max":0,"o":"m 731 396 l 592 396 l 415 822 l 239 396 l 103 396 l 347 972 l 486 972 "},"∞":{"ha":833,"x_min":0,"x_max":0,"o":"m 204 243 b 10 431 94 243 10 318 b 204 618 10 543 94 618 b 417 503 300 618 367 574 b 629 618 467 574 533 618 b 824 431 739 618 824 543 b 629 243 824 318 739 243 b 417 358 533 243 467 288 b 204 243 367 288 300 243 m 215 343 b 354 431 268 343 308 369 b 215 518 308 492 268 518 l 210 518 b 115 431 158 518 115 486 b 210 343 115 375 158 343 m 624 343 b 718 431 675 343 718 375 b 624 518 718 486 675 518 l 618 518 b 479 431 565 518 525 492 b 618 343 525 369 565 343 "},"∫":{"ha":833,"x_min":0,"x_max":0,"o":"m 151 -139 l 151 -17 l 211 -17 b 346 125 311 -17 346 22 l 346 715 b 600 972 346 899 436 972 l 676 972 l 676 850 l 615 850 b 482 708 515 850 482 811 l 482 118 b 226 -139 482 -65 392 -139 "},"Ω":{"ha":833,"x_min":0,"x_max":0,"o":"m 32 0 l 32 121 l 199 121 b 51 507 149 169 51 283 b 417 986 51 796 183 986 b 782 507 650 986 782 796 b 635 121 782 283 685 169 l 801 121 l 801 0 l 475 0 l 475 111 b 644 494 540 157 644 278 b 419 861 644 724 561 861 l 414 861 b 189 494 272 861 189 724 b 358 111 189 278 293 157 l 358 0 "},"∆":{"ha":833,"x_min":0,"x_max":0,"o":"m 63 0 l 63 110 l 332 972 l 507 972 l 771 110 l 771 0 m 206 125 l 625 125 l 415 828 "},"∏":{"ha":833,"x_min":0,"x_max":0,"o":"m 165 0 l 165 850 l 25 850 l 25 972 l 808 972 l 808 850 l 669 850 l 669 0 l 535 0 l 535 850 l 301 850 l 301 0 "},"∑":{"ha":833,"x_min":0,"x_max":0,"o":"m 728 972 l 728 851 l 276 851 l 546 486 l 275 121 l 728 121 l 728 0 l 113 0 l 113 114 l 385 486 l 113 864 l 113 972 "},"√":{"ha":833,"x_min":0,"x_max":0,"o":"m 804 972 l 804 857 l 571 857 l 404 0 l 236 0 l 47 694 l 182 694 l 317 158 l 474 972 "},"∂":{"ha":833,"x_min":0,"x_max":0,"o":"m 329 986 b 746 419 613 986 746 739 b 414 -14 746 128 608 -14 b 86 335 213 -14 86 125 b 393 674 86 533 219 674 b 596 588 485 674 556 640 b 318 864 578 788 443 864 b 176 842 268 864 208 853 l 176 964 b 329 986 204 974 265 986 m 418 111 b 611 333 521 111 611 182 b 418 556 611 479 526 556 l 404 556 b 222 335 300 556 222 483 b 411 111 222 185 307 111 "},"µ":{"ha":833,"x_min":0,"x_max":0,"o":"m 582 694 l 714 694 l 714 0 l 582 0 l 582 117 b 364 -14 543 36 465 -14 b 258 6 324 -14 289 -7 l 258 -278 l 126 -278 l 126 694 l 258 694 l 258 267 b 396 94 258 154 306 94 l 408 94 b 582 314 499 94 582 183 "},"%":{"ha":833,"x_min":0,"x_max":0,"o":"m 201 556 b 22 767 81 556 22 653 b 201 978 22 881 81 978 b 382 767 324 978 382 881 b 201 556 382 653 324 556 m 68 0 l 651 972 l 764 972 l 181 0 m 204 640 b 282 767 256 640 282 696 b 204 892 282 839 256 892 l 200 892 b 122 767 149 892 122 839 b 200 640 122 696 149 640 m 629 -6 b 450 206 508 -6 450 92 b 629 417 450 319 508 417 b 810 206 751 417 810 319 b 629 -6 810 92 751 -6 m 632 79 b 710 206 683 79 710 135 b 632 331 710 278 683 331 l 628 331 b 550 206 576 331 550 278 b 628 79 550 135 576 79 "},"‰":{"ha":833,"x_min":0,"x_max":0,"o":"m 190 556 b 11 767 69 556 11 653 b 190 978 11 881 69 978 b 371 767 313 978 371 881 b 190 556 371 653 313 556 m 189 892 b 111 767 138 892 111 839 b 189 640 111 696 138 640 l 193 640 b 271 767 244 640 271 696 b 193 892 271 839 244 892 m 524 649 l 524 557 l 53 324 l 53 415 m 642 417 b 822 206 764 417 822 319 b 642 -6 822 92 764 -6 b 511 51 585 -6 542 17 b 381 -6 482 17 439 -6 b 201 206 260 -6 201 92 b 381 417 201 319 260 417 b 511 360 439 417 482 394 b 642 417 542 394 585 417 m 383 79 b 461 206 435 79 461 135 b 383 331 461 278 435 331 l 379 331 b 301 206 328 331 301 278 b 379 79 301 135 328 79 m 644 79 b 722 206 696 79 722 135 b 644 331 722 278 696 331 l 640 331 b 563 206 589 331 563 278 b 640 79 563 135 589 79 "},"↑":{"ha":833,"x_min":0,"x_max":0,"o":"m 83 526 l 417 860 l 750 526 l 660 438 l 479 621 l 479 138 l 354 138 l 354 621 l 174 438 "},"↗":{"ha":833,"x_min":0,"x_max":0,"o":"m 200 240 l 113 329 l 461 676 l 192 676 l 192 803 l 676 803 l 676 321 l 549 321 l 549 588 "},"→":{"ha":833,"x_min":0,"x_max":0,"o":"m 457 819 l 790 486 l 457 153 l 368 243 l 551 424 l 68 424 l 68 549 l 551 549 l 368 729 "},"↘":{"ha":833,"x_min":0,"x_max":0,"o":"m 200 732 l 549 385 l 549 651 l 676 651 l 676 169 l 192 169 l 192 296 l 461 296 l 113 643 "},"↓":{"ha":833,"x_min":0,"x_max":0,"o":"m 750 461 l 417 128 l 83 461 l 174 550 l 354 367 l 354 850 l 479 850 l 479 367 l 660 550 "},"↙":{"ha":833,"x_min":0,"x_max":0,"o":"m 633 732 l 721 643 l 372 296 l 642 296 l 642 169 l 157 169 l 157 651 l 285 651 l 285 385 "},"←":{"ha":833,"x_min":0,"x_max":0,"o":"m 376 153 l 43 486 l 376 819 l 465 729 l 282 549 l 765 549 l 765 424 l 282 424 l 465 243 "},"↖":{"ha":833,"x_min":0,"x_max":0,"o":"m 633 240 l 285 588 l 285 321 l 157 321 l 157 803 l 642 803 l 642 676 l 372 676 l 721 329 "},"↤":{"ha":833,"x_min":0,"x_max":0,"o":"m 625 779 l 758 779 l 758 193 l 625 193 l 625 424 l 274 424 l 457 243 l 368 153 l 35 486 l 368 819 l 457 729 l 274 549 l 625 549 "},"↥":{"ha":833,"x_min":0,"x_max":0,"o":"m 479 615 l 479 264 l 710 264 l 710 131 l 124 131 l 124 264 l 354 264 l 354 615 l 174 432 l 83 521 l 417 854 l 750 521 l 660 432 "},"↦":{"ha":833,"x_min":0,"x_max":0,"o":"m 458 819 l 792 486 l 458 153 l 369 243 l 553 424 l 201 424 l 201 193 l 68 193 l 68 779 l 201 779 l 201 549 l 553 549 l 369 729 "},"↧":{"ha":833,"x_min":0,"x_max":0,"o":"m 660 513 l 750 424 l 417 90 l 83 424 l 174 513 l 354 329 l 354 681 l 124 681 l 124 814 l 710 814 l 710 681 l 479 681 l 479 329 "},"↰":{"ha":833,"x_min":0,"x_max":0,"o":"m 272 549 l 756 549 l 756 0 l 621 0 l 621 424 l 272 424 l 456 243 l 367 153 l 33 486 l 367 819 l 456 729 "},"↱":{"ha":833,"x_min":0,"x_max":0,"o":"m 467 819 l 800 486 l 467 153 l 378 243 l 561 424 l 213 424 l 213 0 l 78 0 l 78 549 l 561 549 l 378 729 "},"↲":{"ha":833,"x_min":0,"x_max":0,"o":"m 621 972 l 756 972 l 756 424 l 272 424 l 456 243 l 367 153 l 33 486 l 367 819 l 456 729 l 272 549 l 621 549 "},"↳":{"ha":833,"x_min":0,"x_max":0,"o":"m 467 819 l 800 486 l 467 153 l 378 243 l 561 424 l 78 424 l 78 972 l 213 972 l 213 549 l 561 549 l 378 729 "},"◊":{"ha":833,"x_min":0,"x_max":0,"o":"m 354 0 l 24 486 l 354 972 l 485 972 l 808 486 l 485 0 m 419 128 l 663 483 l 417 850 l 174 486 "},"▲":{"ha":833,"x_min":0,"x_max":0,"o":"m 0 0 l 417 742 l 833 0 "},"":{"ha":1667,"x_min":0,"x_max":0,"o":"m 1286 979 b 1444 951 1347 986 1421 972 b 1439 913 1443 940 1443 917 b 1350 908 1422 896 1365 904 b 1243 764 1353 839 1322 757 b 967 631 1203 635 1047 624 b 1028 361 967 628 1011 494 b 1140 242 1051 335 1090 288 b 1224 133 1182 204 1214 158 b 1200 93 1233 108 1221 97 b 1024 265 1132 133 1092 199 b 1058 24 1018 174 1051 88 b 1000 19 1032 3 1010 4 b 946 304 957 88 953 275 b 636 243 915 306 769 275 b 783 -44 633 129 749 72 b 732 -51 779 -50 761 -68 b 638 64 701 -35 668 24 b 579 165 607 104 596 154 b 492 -32 546 67 508 -31 b 450 -4 475 -33 449 -35 b 536 240 453 49 489 157 b 267 300 483 250 339 244 b 253 319 267 300 260 308 b 319 369 276 347 293 353 b 465 506 360 424 424 447 b 335 597 440 526 349 553 b 347 624 336 599 340 607 b 474 576 356 631 419 604 b 488 675 478 610 481 657 b 539 693 492 686 539 693 b 554 672 546 689 553 679 b 540 546 560 647 536 589 b 729 633 613 546 674 618 b 903 681 758 642 843 663 b 899 865 868 742 864 826 b 1075 700 1051 867 1106 788 b 1165 753 1110 703 1160 729 b 1085 825 1129 786 1115 792 b 1122 956 1042 872 1063 933 b 1254 821 1207 988 1267 918 b 1286 979 1289 838 1289 915 m 1190 817 b 1143 907 1203 850 1188 894 b 1190 817 1118 864 1158 821 m 1010 707 b 1029 754 1010 707 1029 714 b 950 793 1010 774 981 793 b 961 706 940 765 944 722 b 1010 707 969 697 997 704 m 617 311 b 951 374 731 317 817 383 b 925 481 944 418 932 443 b 893 604 914 543 921 571 b 579 475 765 576 697 506 b 617 311 599 406 614 319 m 389 328 b 543 314 451 318 503 310 b 503 440 526 356 522 399 b 389 328 458 399 417 374 "},"@":{"ha":833,"x_min":0,"x_max":0,"o":"m 571 -174 b 38 426 218 -174 38 56 b 446 1014 38 778 182 1014 b 778 686 665 1014 778 867 l 778 132 l 658 132 l 658 224 b 489 118 621 156 569 118 b 260 415 349 118 260 243 b 489 708 260 589 350 708 b 658 604 574 708 625 668 l 658 667 b 450 904 658 807 581 904 l 438 904 b 160 429 253 904 160 706 b 572 -67 160 118 285 -67 l 785 -67 l 785 -174 m 524 224 b 653 415 603 224 653 307 b 524 603 653 524 604 603 l 515 603 b 382 417 431 603 382 522 b 515 224 382 308 429 224 "},"&":{"ha":833,"x_min":0,"x_max":0,"o":"m 360 0 b 90 257 218 0 90 96 b 256 493 90 372 157 460 b 97 722 167 529 97 606 b 365 972 97 881 224 972 l 492 972 l 492 857 l 397 857 b 232 704 308 857 232 807 b 401 551 232 607 308 551 l 511 551 l 511 724 l 644 724 l 644 551 l 782 551 l 782 436 l 644 436 l 644 0 m 511 115 l 511 436 l 401 436 b 225 282 304 436 225 386 b 401 115 225 171 304 115 "},"¶":{"ha":833,"x_min":0,"x_max":0,"o":"m 326 -278 l 326 418 l 310 418 b 31 696 150 418 31 546 b 307 972 31 847 150 972 l 797 972 l 797 864 l 707 864 l 707 -278 l 586 -278 l 586 864 l 447 864 l 447 -278 "},"§":{"ha":833,"x_min":0,"x_max":0,"o":"m 164 -83 l 164 32 l 443 32 b 539 113 510 32 539 63 b 443 201 539 151 510 176 l 250 274 b 108 447 153 311 107 369 b 236 628 108 518 156 582 b 158 779 186 668 158 717 b 392 972 158 906 243 972 l 640 972 l 640 857 l 399 857 b 293 778 333 857 293 832 b 386 690 293 736 319 713 l 513 649 b 724 447 639 607 724 561 b 594 260 724 371 676 304 b 675 111 644 219 675 178 b 439 -83 675 11 610 -83 m 489 315 b 588 428 568 347 588 393 b 461 536 588 489 525 515 l 340 575 b 244 458 271 546 244 497 b 367 361 244 401 301 385 "},"©":{"ha":833,"x_min":0,"x_max":0,"o":"m 418 69 b 1 486 189 69 1 257 b 418 903 1 715 189 903 b 835 486 647 903 835 715 b 418 69 835 257 647 69 m 418 154 b 747 486 603 154 747 304 b 418 819 747 669 603 819 b 89 486 233 819 89 669 b 418 154 89 304 233 154 m 425 250 b 211 486 294 250 211 340 b 425 728 211 626 288 729 b 618 561 543 728 611 661 l 519 561 b 428 646 513 611 479 646 l 422 646 b 311 486 357 646 311 589 b 422 332 311 385 357 332 l 428 332 b 524 417 479 332 515 364 l 621 417 b 425 250 611 318 539 250 "},"®":{"ha":833,"x_min":0,"x_max":0,"o":"m 419 69 b 3 486 190 69 3 257 b 419 903 3 715 190 903 b 836 486 649 903 836 715 b 419 69 836 257 649 69 m 419 154 b 749 486 604 154 749 304 b 419 819 749 669 604 819 b 90 486 235 819 90 669 b 419 154 90 304 235 154 m 250 264 l 250 718 l 458 718 b 606 593 556 718 606 664 b 513 476 606 525 564 486 b 600 392 572 476 600 456 l 600 264 l 506 264 l 506 382 b 450 432 506 417 490 432 l 347 432 l 347 264 m 347 510 l 432 510 b 510 574 482 510 510 531 b 432 638 510 621 482 638 l 347 638 "},"℗":{"ha":833,"x_min":0,"x_max":0,"o":"m 419 69 b 3 486 190 69 3 257 b 419 903 3 715 190 903 b 836 486 649 903 836 715 b 419 69 836 257 649 69 m 419 154 b 749 486 604 154 749 304 b 419 819 749 669 604 819 b 90 486 235 819 90 669 b 419 154 90 304 235 154 m 278 265 l 278 719 l 474 719 b 633 574 569 719 633 667 b 474 431 633 481 568 431 l 375 431 l 375 265 m 375 510 l 461 510 b 536 575 506 510 536 526 b 460 639 536 622 504 639 l 375 639 "},"™":{"ha":833,"x_min":0,"x_max":0,"o":"m 22 883 l 22 972 l 329 972 l 329 883 l 226 883 l 226 444 l 126 444 l 126 883 m 647 972 l 781 972 l 781 444 l 690 444 l 690 861 l 624 588 l 532 588 l 465 856 l 465 444 l 374 444 l 374 972 l 510 972 l 579 688 "},"℅":{"ha":833,"x_min":0,"x_max":0,"o":"m 203 569 b 7 771 89 569 7 636 b 204 979 7 907 90 979 b 382 833 311 979 375 915 l 274 833 b 204 894 269 871 243 894 l 199 894 b 115 771 138 894 115 835 b 199 654 115 708 138 654 l 204 654 b 274 714 243 654 267 676 l 381 714 b 203 569 372 629 310 569 m 68 0 l 651 972 l 764 972 l 181 0 m 629 -7 b 432 197 508 -7 432 76 b 629 403 432 318 508 403 b 826 197 750 403 826 318 b 629 -7 826 76 750 -7 m 631 78 b 718 197 689 78 718 128 b 629 318 718 271 686 318 b 540 197 571 318 540 268 b 631 78 540 125 574 78 "},"°":{"ha":833,"x_min":0,"x_max":0,"o":"m 417 472 b 160 729 269 472 160 583 b 417 986 160 875 269 986 b 674 729 564 986 674 875 b 417 472 674 583 564 472 m 417 585 b 554 729 493 585 554 649 b 417 871 554 808 493 871 b 279 729 340 871 279 808 b 417 585 279 649 340 585 "},"|":{"ha":833,"x_min":0,"x_max":0,"o":"m 349 -118 l 349 1090 l 483 1090 l 483 -118 "},"¦":{"ha":833,"x_min":0,"x_max":0,"o":"m 349 588 l 349 1090 l 483 1090 l 483 588 m 349 -118 l 349 399 l 483 399 l 483 -118 "},"†":{"ha":833,"x_min":0,"x_max":0,"o":"m 350 -118 l 350 647 l 117 647 l 117 758 l 350 758 l 350 1090 l 482 1090 l 482 758 l 717 758 l 717 647 l 482 647 l 482 -118 "},"ℓ":{"ha":833,"x_min":0,"x_max":0,"o":"m 404 190 b 472 122 404 139 422 122 l 594 122 l 594 0 l 408 0 b 271 146 317 0 271 49 l 271 271 l 167 207 l 167 347 l 271 410 l 271 750 b 472 986 271 903 346 986 b 682 733 617 986 682 864 b 481 399 682 588 596 468 l 404 351 m 404 488 l 419 497 b 547 725 519 557 547 643 b 471 864 547 824 517 864 b 404 768 432 864 404 833 "},"‡":{"ha":833,"x_min":0,"x_max":0,"o":"m 717 647 l 482 647 l 482 325 l 717 325 l 717 214 l 482 214 l 482 -118 l 350 -118 l 350 214 l 117 214 l 117 325 l 350 325 l 350 647 l 117 647 l 117 758 l 350 758 l 350 1090 l 482 1090 l 482 758 l 717 758 "},"№":{"ha":1667,"x_min":0,"x_max":0,"o":"m 1321 571 b 1125 775 1200 571 1125 654 b 1321 981 1125 894 1200 981 b 1518 775 1443 981 1518 894 b 1321 571 1518 654 1443 571 m 844 201 l 844 974 l 983 974 l 983 1 l 808 1 l 328 781 l 328 1 l 189 1 l 189 974 l 368 974 m 1321 894 b 1233 775 1265 894 1233 847 b 1322 656 1233 701 1265 656 b 1410 775 1381 656 1410 701 b 1321 894 1410 847 1378 894 m 1135 401 l 1135 488 l 1514 488 l 1514 401 "},"":{"ha":833,"x_min":0,"x_max":0,"o":"m 179 249 l 179 724 l 654 724 l 654 249 m 268 338 l 565 338 l 565 635 l 268 635 "},"":{"ha":833,"x_min":0,"x_max":0,"o":"m 89 158 l 89 814 l 744 814 l 744 158 m 179 249 l 654 249 l 654 724 l 179 724 "},"":{"ha":833,"x_min":0,"x_max":0,"o":"m 0 69 l 0 903 l 833 903 l 833 69 m 89 158 l 744 158 l 744 814 l 89 814 "},"":{"ha":833,"x_min":0,"x_max":0,"o":"m 179 249 l 179 724 l 654 724 l 654 249 m 268 338 l 565 338 l 565 635 l 268 635 m 357 426 l 357 546 l 476 546 l 476 426 "},"":{"ha":833,"x_min":0,"x_max":0,"o":"m 89 158 l 89 814 l 744 814 l 744 158 m 179 249 l 654 249 l 654 724 l 179 724 m 268 338 l 268 635 l 565 635 l 565 338 m 357 426 l 476 426 l 476 546 l 357 546 "},"":{"ha":833,"x_min":0,"x_max":0,"o":"m 0 69 l 0 903 l 833 903 l 833 69 m 89 158 l 744 158 l 744 814 l 89 814 m 179 249 l 179 724 l 654 724 l 654 249 m 268 338 l 565 338 l 565 635 l 268 635 m 357 426 l 357 546 l 476 546 l 476 426 "},"":{"ha":833,"x_min":0,"x_max":0,"o":"m 179 249 l 179 724 l 654 724 l 654 249 "},"":{"ha":833,"x_min":0,"x_max":0,"o":"m 89 158 l 89 814 l 744 814 l 744 158 "},"":{"ha":833,"x_min":0,"x_max":0,"o":"m 0 69 l 0 903 l 833 903 l 833 69 "},"":{"ha":833,"x_min":0,"x_max":0,"o":"m 417 229 b 160 486 275 229 160 344 b 417 743 160 628 275 743 b 674 486 558 743 674 628 b 417 229 674 344 558 229 m 417 310 b 593 486 514 310 593 389 b 417 663 593 583 514 663 b 240 486 319 663 240 583 b 417 310 240 389 319 310 m 417 390 b 321 486 364 390 321 433 b 417 582 321 539 364 582 b 513 486 469 582 513 539 b 417 390 513 433 469 390 "},"":{"ha":833,"x_min":0,"x_max":0,"o":"m 417 150 b 81 486 232 150 81 301 b 417 822 81 671 232 822 b 753 486 601 822 753 671 b 417 150 753 301 601 150 m 417 229 b 674 486 558 229 674 344 b 417 743 674 628 558 743 b 160 486 275 743 160 628 b 417 229 160 344 275 229 m 417 310 b 240 486 319 310 240 389 b 417 663 240 583 319 663 b 593 486 514 663 593 583 b 417 310 593 389 514 310 m 417 390 b 513 486 469 390 513 433 b 417 582 513 539 469 582 b 321 486 364 582 321 539 b 417 390 321 433 364 390 "},"":{"ha":833,"x_min":0,"x_max":0,"o":"m 417 69 b 0 486 188 69 0 257 b 417 903 0 715 188 903 b 833 486 646 903 833 715 b 417 69 833 257 646 69 m 417 150 b 753 486 601 150 753 301 b 417 822 753 671 601 822 b 81 486 232 822 81 671 b 417 150 81 301 232 150 m 417 229 b 160 486 275 229 160 344 b 417 743 160 628 275 743 b 674 486 558 743 674 628 b 417 229 674 344 558 229 m 417 310 b 593 486 514 310 593 389 b 417 663 593 583 514 663 b 240 486 319 663 240 583 b 417 310 240 389 319 310 m 417 390 b 321 486 364 390 321 433 b 417 582 321 539 364 582 b 513 486 469 582 513 539 b 417 390 513 433 469 390 "},"ʼ":{"ha":833,"x_min":0,"x_max":0,"o":"m 288 615 l 288 693 l 333 693 b 418 779 392 693 418 728 l 418 797 l 328 797 l 328 972 l 503 972 l 503 772 b 344 615 503 683 440 615 "},"´":{"ha":833,"x_min":0,"x_max":0,"o":"m 418 779 l 333 779 l 393 972 l 549 972 "},"˘":{"ha":833,"x_min":0,"x_max":0,"o":"m 417 765 b 203 972 294 765 204 842 l 311 972 b 417 864 315 903 356 864 b 522 972 478 864 518 903 l 631 972 b 417 765 629 842 539 765 "},"ˇ":{"ha":833,"x_min":0,"x_max":0,"o":"m 340 779 l 182 972 l 278 972 l 417 871 l 556 972 l 651 972 l 493 779 "},"¸":{"ha":833,"x_min":0,"x_max":0,"o":"m 308 -325 l 308 -236 l 410 -236 b 472 -183 446 -236 472 -219 b 413 -132 472 -151 450 -132 l 357 -132 l 357 21 l 436 21 l 436 -62 b 558 -183 500 -61 558 -106 b 406 -325 558 -267 500 -325 "},"ˆ":{"ha":833,"x_min":0,"x_max":0,"o":"m 493 972 l 651 779 l 556 779 l 417 881 l 278 779 l 182 779 l 340 972 "},"¨":{"ha":833,"x_min":0,"x_max":0,"o":"m 221 803 l 221 947 l 354 947 l 354 803 m 479 803 l 479 947 l 613 947 l 613 803 "},"˙":{"ha":833,"x_min":0,"x_max":0,"o":"m 343 803 l 343 954 l 489 954 l 489 803 "},"`":{"ha":833,"x_min":0,"x_max":0,"o":"m 415 779 l 286 972 l 442 972 l 500 779 "},"˝":{"ha":833,"x_min":0,"x_max":0,"o":"m 303 779 l 218 779 l 278 972 l 433 972 m 522 779 l 438 779 l 497 972 l 653 972 "},"¯":{"ha":833,"x_min":0,"x_max":0,"o":"m 217 803 l 217 913 l 617 913 l 617 803 "},"˛":{"ha":833,"x_min":0,"x_max":0,"o":"m 494 -287 l 444 -287 b 289 -164 346 -287 289 -237 b 440 17 289 -83 358 -19 l 500 0 b 383 -132 435 -40 383 -83 b 457 -194 383 -178 421 -194 l 494 -194 "},"˚":{"ha":833,"x_min":0,"x_max":0,"o":"m 417 768 b 286 899 349 768 286 824 b 417 1029 286 971 349 1029 b 547 899 488 1029 547 971 b 417 768 547 824 488 768 m 418 838 b 478 899 451 838 478 865 b 418 960 478 932 451 960 b 357 899 385 960 357 932 b 418 838 357 865 385 838 "},"˜":{"ha":833,"x_min":0,"x_max":0,"o":"m 525 775 b 417 817 488 775 456 790 l 399 826 b 324 863 375 842 353 863 b 271 789 290 863 271 835 l 172 789 l 172 822 b 310 968 172 903 232 968 b 411 933 353 968 376 954 l 428 922 b 514 879 460 901 486 879 b 563 954 546 879 563 908 l 661 954 l 661 921 b 525 775 661 839 601 775 "}}}
